<svg width="134" height="218" viewBox="0 0 134 218" fill="none" xmlns="http://www.w3.org/2000/svg">
<path opacity="0.6" d="M125.015 34.9892L113.506 41.0067C111.621 41.9923 110.124 43.6025 109.261 45.5711L104.91 55.5009C104.854 55.6281 104.772 55.7417 104.67 55.8337C104.567 55.9257 104.446 55.9941 104.315 56.034C104.183 56.0739 104.045 56.0845 103.91 56.065C103.774 56.0455 103.644 55.9965 103.529 55.9211L96.7363 51.5075L97.0606 31.6931L99.84 24.8898C102.08 24.2451 104.131 23.0527 105.814 21.4166L120.488 7.14096C120.703 6.93103 120.875 6.67886 120.992 6.39967C121.109 6.12047 121.17 5.82003 121.17 5.51646V3.56782C121.17 2.88378 120.934 2.2214 120.503 1.69642C120.071 1.17144 119.473 0.817248 118.811 0.69573C111.258 -0.691312 102.781 -0.13536 96.0192 3.55651C87.1805 8.48654 84.9829 12.6778 83.2874 17.278L74.7452 40.445L68.6712 37.2582C68.4379 37.1397 68.2315 36.9729 68.0653 36.7684C67.8991 36.564 67.7767 36.3265 67.7061 36.0712C67.6354 35.8158 67.618 35.5483 67.655 35.2857C67.6919 35.0231 67.7825 34.7713 67.9207 34.5463L72.2159 27.5433C72.7315 26.7029 73.0779 25.7667 73.2351 24.7891C73.3922 23.8114 73.3569 22.8118 73.1313 21.8481L69.9812 8.31693C69.8857 7.89836 69.6735 7.51668 69.3702 7.2176C69.0668 6.91852 68.6851 6.71471 68.2708 6.63059C67.8565 6.54647 67.4271 6.58561 67.0341 6.7433C66.641 6.901 66.301 7.17059 66.0548 7.51976C64.7856 9.32009 63.9428 11.3945 63.5924 13.581C63.2421 15.7674 63.3936 18.0067 64.0351 20.1238L65.964 26.4842L60.9054 33.9753C60.1012 35.1673 59.716 36.6004 59.8122 38.0426C59.9084 39.4849 60.4803 40.852 61.4353 41.9226L68.8898 50.2505C63.9146 55.9701 54.8795 66.3334 46.1335 76.3706L42.057 69.4165C41.6009 68.6374 40.8621 68.0716 39.9998 67.841C39.1375 67.6105 38.2206 67.7337 37.4468 68.184L32.0027 71.3463C31.6906 71.5279 31.343 71.637 30.9846 71.666C30.6262 71.695 30.2659 71.6431 29.9295 71.514C29.5931 71.3849 29.289 71.1818 29.0388 70.9192C28.7885 70.6566 28.5984 70.3411 28.4821 69.9951L24.1684 57.18C23.9563 56.5502 23.5742 55.9938 23.0658 55.5744C22.5574 55.155 21.9432 54.8897 21.2935 54.8087C20.6438 54.7277 19.9847 54.8343 19.3918 55.1163C18.7988 55.3984 18.2959 55.8445 17.9405 56.4036C16.1429 59.2299 15.3843 62.611 15.7985 65.9507C16.2128 69.2903 17.7733 72.3739 20.2049 74.6575L24.8373 78.992C25.5785 79.6915 26.5401 80.1002 27.5503 80.1451C28.5604 80.19 29.5534 79.8681 30.3517 79.237L35.012 76.5364C35.1619 76.4495 35.3304 76.4009 35.5028 76.3947C35.6753 76.3886 35.8467 76.425 36.0023 76.501C36.1579 76.577 36.293 76.6902 36.3961 76.8309C36.4993 76.9717 36.5673 77.1357 36.5944 77.3091L37.9767 86.0818L38.188 85.8292C26.5686 100.368 16.6903 116.26 8.76092 133.171C8.60342 133.511 8.44406 133.848 8.28471 134.187C-2.31614 156.802 -3.37419 188.84 8.79613 203.279C17.8535 214.021 32.8106 217.201 45.2589 211.479C57.7072 205.758 62.6639 192.892 57.6979 180.964C56.0685 177.052 55.5326 172.759 56.1493 168.557C56.7659 164.355 58.5111 160.408 61.1926 157.151L62.8436 155.146C62.8436 155.146 55.6559 155.914 51.5405 164.553C44.8235 178.688 57.5145 188.252 47.9365 198.427C39.1719 207.736 24.993 204.883 18.7225 197.535C14.242 192.287 10.2674 174.197 18.1388 153.059C26.3604 130.983 42.763 123.257 54.3829 116.453C54.3829 116.453 57.9036 118.246 58.3094 118.557C58.5873 118.773 59.9474 120.673 58.0129 121.949C56.8381 122.729 54.9944 123.645 53.134 124.531C50.1563 125.954 47.1415 127.627 46.8024 130.951C46.7802 131.161 45.976 137.057 45.6758 141.362C45.4701 144.302 48.4886 145.291 49.5671 145.093C50.5695 144.905 56.8492 144.6 57.7035 144.168C61.2426 142.381 60.583 139.506 59.7232 138.085C57.7331 134.796 54.2347 129.743 54.3663 129.676C55.3576 129.167 66.9831 123.332 67.7632 122.663C72.7385 118.385 68.7898 113.617 68.7898 113.617L60.998 106.194L63.2735 104.426C69.09 100.557 74.1819 96.1567 78.4679 91.172C86.1176 82.6216 91.9076 72.526 95.4596 61.5447L101.322 63.4801C102.125 63.7444 102.97 63.8436 103.811 63.772C104.651 63.7003 105.469 63.4593 106.216 63.0628C106.964 62.6664 107.627 62.1225 108.166 61.4629C108.704 60.8033 109.109 60.0412 109.355 59.221L111.43 52.3009L117.56 50.8347C120.579 50.112 123.291 48.4247 125.299 46.0202C127.307 43.6157 128.505 40.6203 128.717 37.4731C128.747 37.0156 128.657 36.5582 128.457 36.1474C128.257 35.7366 127.953 35.3872 127.577 35.1347C127.2 34.8823 126.765 34.7358 126.315 34.7102C125.865 34.6847 125.416 34.7809 125.015 34.9892Z" fill="#D88080"/>
<path d="M97.9335 28.7306L103.481 27.1362C105.723 26.4927 107.774 25.3001 109.457 23.663L124.129 9.38923C124.344 9.17862 124.516 8.92606 124.633 8.64663C124.75 8.3672 124.81 8.06663 124.811 7.76285V5.80855C124.811 5.1243 124.575 4.46166 124.144 3.93637C123.713 3.41107 123.114 3.05651 122.452 2.93459C114.899 1.54754 106.422 2.10538 99.6605 5.79536C90.8218 10.7273 88.6242 14.9167 86.9287 19.5169L78.053 43.5866C76.969 46.5287 75.3623 49.243 73.3131 51.5942C68.2916 57.3572 57.9612 69.2149 48.2813 80.3169C33.841 96.8801 21.7613 115.425 12.3967 135.408C12.2385 135.745 12.0798 136.083 11.9204 136.422C1.3196 159.037 0.261553 191.086 12.4319 205.516C21.4892 216.258 36.4464 219.438 48.8947 213.714C61.3429 207.991 66.2996 195.127 61.3337 183.199C59.7045 179.287 59.1687 174.994 59.7853 170.792C60.4019 166.59 62.1471 162.643 64.8284 159.386L66.4793 157.381" stroke="black" stroke-width="2" stroke-miterlimit="10"/>
<path d="M103.481 27.1287C101.389 30.3666 100.276 34.1566 100.277 38.0309V46.7489" stroke="black" stroke-width="2" stroke-miterlimit="10"/>
<path d="M78.4123 42.5991L72.2975 39.4971C72.065 39.3779 71.8595 39.2106 71.6943 39.006C71.529 38.8013 71.4077 38.5638 71.3379 38.3087C71.2681 38.0536 71.2515 37.7865 71.2891 37.5244C71.3267 37.2624 71.4177 37.0112 71.5563 36.7871L75.8515 29.7821C76.3671 28.9417 76.7135 28.0055 76.8706 27.0279C77.0278 26.0503 76.9925 25.0506 76.7668 24.087L73.6075 10.5558C73.512 10.1372 73.2998 9.75551 72.9964 9.45642C72.6931 9.15734 72.3114 8.95354 71.897 8.86942C71.4827 8.7853 71.0534 8.82443 70.6603 8.98213C70.2673 9.13983 69.9273 9.40941 69.6811 9.75858C68.412 11.559 67.5693 13.6334 67.2189 15.8199C66.8686 18.0063 67.02 20.2455 67.6613 22.3626L69.5958 28.7305L64.5372 36.2217C63.7335 37.4141 63.349 38.8474 63.4458 40.2897C63.5427 41.7319 64.1153 43.0988 65.0709 44.1689L68.8547 48.4054" stroke="black" stroke-width="2" stroke-miterlimit="10"/>
<path d="M106.633 16.3111C108.139 16.3111 109.36 15.0691 109.36 13.537C109.36 12.0049 108.139 10.7629 106.633 10.7629C105.126 10.7629 103.905 12.0049 103.905 13.537C103.905 15.0691 105.126 16.3111 106.633 16.3111Z" stroke="black" stroke-width="2" stroke-miterlimit="10"/>
<path d="M106.633 16.3111C108.139 16.3111 109.36 15.0691 109.36 13.537C109.36 12.0049 108.139 10.7629 106.633 10.7629C105.126 10.7629 103.905 12.0049 103.905 13.537C103.905 15.0691 105.126 16.3111 106.633 16.3111Z" fill="black"/>
<path d="M107.5 14C108.328 14 109 13.3284 109 12.5C109 11.6716 108.328 11 107.5 11C106.672 11 106 11.6716 106 12.5C106 13.3284 106.672 14 107.5 14Z" fill="white"/>
<path d="M108.095 13.0753C108.257 13.0753 108.388 12.942 108.388 12.7775C108.388 12.6131 108.257 12.4797 108.095 12.4797C107.933 12.4797 107.802 12.6131 107.802 12.7775C107.802 12.942 107.933 13.0753 108.095 13.0753Z" fill="white"/>
<path d="M99.1025 63.7834C93.4289 81.3586 82.0913 96.4731 66.9238 106.682" stroke="black" stroke-width="2" stroke-miterlimit="10"/>
<path d="M115.073 54.5493L112.998 61.4676C112.752 62.2879 112.348 63.0502 111.809 63.7099C111.27 64.3696 110.608 64.9136 109.86 65.3101C109.112 65.7066 108.294 65.9476 107.454 66.0191C106.614 66.0907 105.768 65.9912 104.966 65.7267L92.8359 61.7107" stroke="black" stroke-width="2" stroke-miterlimit="10"/>
<path d="M96.8159 51.4379L107.163 58.162C107.278 58.237 107.408 58.2857 107.544 58.3049C107.679 58.3241 107.817 58.3132 107.948 58.2732C108.079 58.2331 108.2 58.1647 108.303 58.0726C108.406 57.9806 108.488 57.8671 108.543 57.7399L112.896 47.8101C113.758 45.8408 115.255 44.2294 117.139 43.2419L128.648 37.2245C129.05 37.0153 129.499 36.9182 129.95 36.9433C130.4 36.9684 130.836 37.1148 131.213 37.3673C131.59 37.6199 131.894 37.9697 132.095 38.381C132.295 38.7923 132.385 39.2504 132.354 39.7083C132.142 42.8556 130.944 45.8509 128.937 48.2555C126.929 50.66 124.217 52.3473 121.197 53.0699" stroke="black" stroke-width="2" stroke-miterlimit="10"/>
<path d="M58.0071 131.926L63.364 140.335C63.7401 140.925 63.9604 141.604 64.0037 142.306C64.047 143.008 63.9118 143.71 63.6111 144.343C63.3105 144.977 62.8545 145.521 62.2871 145.923C61.7197 146.326 61.06 146.573 60.3715 146.64L53.2116 147.345C52.6857 147.397 52.1551 147.328 51.6585 147.145C51.1619 146.961 50.7118 146.668 50.341 146.285C49.9701 145.902 49.6879 145.44 49.5149 144.932C49.3419 144.425 49.2824 143.884 49.3408 143.35L50.4525 133.202C50.5618 132.2 50.9121 131.24 51.4725 130.409C52.0329 129.577 52.7861 128.899 53.6656 128.434L61.663 124.199C61.983 124.027 62.2511 123.771 62.4386 123.456C62.626 123.141 62.7258 122.781 62.7271 122.413C62.7284 122.045 62.6313 121.683 62.4461 121.367C62.261 121.051 61.9948 120.792 61.676 120.618L48.8608 113.709" stroke="black" stroke-width="2" stroke-miterlimit="10"/>
<path d="M60.5381 104.59L71.8412 115.228C72.5796 115.924 73.1417 116.791 73.4794 117.755C73.8171 118.719 73.9205 119.752 73.7807 120.766C73.6409 121.779 73.262 122.743 72.6765 123.576C72.091 124.408 71.3162 125.085 70.4181 125.546" stroke="black" stroke-width="2" stroke-miterlimit="10"/>
<path d="M40.8154 83.2604L40.2299 79.544C40.2025 79.3709 40.1343 79.207 40.0311 79.0665C39.9279 78.926 39.7927 78.813 39.6371 78.7372C39.4816 78.6615 39.3103 78.6252 39.1379 78.6314C38.9656 78.6377 38.7973 78.6864 38.6475 78.7732L33.9872 81.4719C33.1897 82.1053 32.1966 82.4294 31.1856 82.3863C30.1746 82.3431 29.2116 81.9355 28.4691 81.2364L23.8367 76.9019C21.4051 74.6182 19.8446 71.5347 19.4303 68.195C19.016 64.8554 19.7747 61.4742 21.5723 58.6479C21.9279 58.0889 22.4309 57.6429 23.024 57.361C23.617 57.0791 24.2761 56.9726 24.9259 57.0538C25.5756 57.135 26.1898 57.4006 26.6981 57.8202C27.2064 58.2397 27.5883 58.7963 27.8002 59.4263L32.1139 72.2413C32.2302 72.5874 32.4202 72.903 32.6705 73.1655C32.9208 73.4281 33.225 73.6311 33.5615 73.7601C33.8979 73.889 34.2583 73.9407 34.6167 73.9114C34.975 73.8821 35.3226 73.7726 35.6345 73.5907L41.0786 70.4284C41.8524 69.9781 42.7693 69.8549 43.6316 70.0854C44.4939 70.3159 45.2327 70.8817 45.6888 71.6609L49.7653 78.6168" stroke="black" stroke-width="2" stroke-miterlimit="10"/>
</svg>
