<svg width="135" height="219" viewBox="0 0 135 219" fill="none" xmlns="http://www.w3.org/2000/svg">
<g opacity="0.6">
<mask id="path-1-inside-1_395_648" fill="white">
<path d="M129.554 36.3887L117.729 42.4679C115.792 43.4637 114.253 45.0904 113.367 47.0791L108.896 57.1108C108.839 57.2393 108.755 57.3541 108.65 57.447C108.544 57.54 108.42 57.609 108.285 57.6493C108.15 57.6897 108.008 57.7004 107.869 57.6807C107.73 57.661 107.596 57.6114 107.478 57.5353L100.498 53.0764L100.831 33.0588L103.687 26.1857C105.989 25.5344 108.096 24.3297 109.825 22.6768L124.902 8.25474C125.124 8.04266 125.3 7.78791 125.421 7.50585C125.541 7.22379 125.603 6.92027 125.603 6.61358V4.64495C125.603 3.9539 125.361 3.28472 124.918 2.75435C124.475 2.22399 123.859 1.86616 123.179 1.74339C115.419 0.342123 106.709 0.903779 99.7614 4.63352C90.6798 9.61413 88.4218 13.8484 86.6797 18.4958L77.9027 41.9005L71.6617 38.681C71.422 38.5612 71.2099 38.3927 71.0391 38.1862C70.8684 37.9796 70.7426 37.7397 70.67 37.4817C70.5974 37.2238 70.5796 36.9535 70.6175 36.6882C70.6555 36.4229 70.7485 36.1685 70.8906 35.9413L75.3039 28.8664C75.8336 28.0173 76.1896 27.0716 76.351 26.0839C76.5125 25.0962 76.4762 24.0863 76.2444 23.1128L73.0078 9.44277C72.9096 9.01991 72.6916 8.63432 72.3799 8.33217C72.0682 8.03002 71.676 7.82412 71.2503 7.73914C70.8246 7.65416 70.3834 7.69369 69.9796 7.85301C69.5757 8.01233 69.2264 8.28467 68.9734 8.63743C67.6693 10.4562 66.8034 12.552 66.4434 14.7608C66.0834 16.9697 66.239 19.232 66.8981 21.3707L68.8801 27.7964L63.6825 35.3644C62.8562 36.5686 62.4604 38.0164 62.5592 39.4734C62.658 40.9305 63.2456 42.3116 64.227 43.3932L71.8864 51.8065C66.7744 57.5848 57.491 68.0544 48.5045 78.1946L44.316 71.1692C43.8473 70.382 43.0882 69.8104 42.2022 69.5775C41.3162 69.3446 40.3742 69.4691 39.579 69.924L33.9854 73.1188C33.6647 73.3022 33.3075 73.4125 32.9392 73.4417C32.571 73.471 32.2008 73.4186 31.8552 73.2882C31.5096 73.1577 31.197 72.9525 30.9399 72.6873C30.6828 72.422 30.4875 72.1032 30.368 71.7537L25.9357 58.8071C25.7178 58.1708 25.3252 57.6087 24.8028 57.185C24.2804 56.7614 23.6494 56.4933 22.9818 56.4115C22.3142 56.3296 21.637 56.4374 21.0278 56.7223C20.4186 57.0072 19.9018 57.4579 19.5367 58.0227C17.6896 60.878 16.9101 64.2939 17.3358 67.6678C17.7614 71.0417 19.3649 74.1569 21.8632 76.4639L26.623 80.8429C27.3846 81.5496 28.3726 81.9625 29.4105 82.0078C30.4485 82.0532 31.4687 81.728 32.289 81.0904L37.0773 78.3621C37.2314 78.2743 37.4045 78.2252 37.5817 78.219C37.7589 78.2127 37.935 78.2496 38.0948 78.3263C38.2547 78.4031 38.3936 78.5175 38.4995 78.6596C38.6055 78.8018 38.6754 78.9676 38.7033 79.1427L40.1236 88.0054L40.3406 87.7502C28.4019 102.438 18.2521 118.493 10.1047 135.578C9.94292 135.921 9.77918 136.262 9.61544 136.604C-1.27678 159.451 -2.3639 191.818 10.1409 206.405C19.4472 217.257 34.8155 220.469 47.6059 214.689C60.3963 208.909 65.4893 195.911 60.3868 183.861C58.7126 179.909 58.162 175.572 58.7956 171.327C59.4292 167.082 61.2224 163.094 63.9776 159.803L65.6739 157.778C65.6739 157.778 58.2887 158.554 54.0601 167.282C47.1585 181.561 60.1983 191.223 50.3571 201.503C41.3516 210.908 26.7829 208.025 20.3401 200.602C15.7365 195.3 11.6526 177.024 19.7404 155.67C28.188 133.368 45.0414 125.562 56.9807 118.689C56.9807 118.689 60.5981 120.499 61.0151 120.813C61.3007 121.032 62.6981 122.951 60.7105 124.24C59.5034 125.029 57.609 125.954 55.6975 126.849C52.6379 128.286 49.5403 129.977 49.1918 133.335C49.169 133.547 48.3427 139.504 48.0343 143.853C47.8229 146.823 50.9244 147.822 52.0325 147.622C53.0625 147.432 59.5148 147.123 60.3925 146.687C64.029 144.883 63.3512 141.977 62.4678 140.542C60.423 137.219 56.8284 132.115 56.9636 132.046C57.9822 131.532 69.9273 125.638 70.7288 124.962C75.8408 120.64 71.7836 115.823 71.7836 115.823L63.7776 108.324L66.1156 106.538C72.092 102.629 77.3239 98.1836 81.7276 93.1478C89.5877 84.5097 95.5368 74.3106 99.1864 63.2166L105.21 65.1719C106.035 65.4389 106.904 65.5391 107.767 65.4667C108.63 65.3943 109.471 65.1508 110.239 64.7503C111.007 64.3498 111.688 63.8003 112.242 63.1339C112.795 62.4676 113.211 61.6977 113.464 60.8691L115.596 53.8779L121.894 52.3967C124.996 51.6666 127.783 49.962 129.846 47.5328C131.909 45.1036 133.14 42.0775 133.358 38.898C133.389 38.4359 133.297 37.9738 133.091 37.5588C132.885 37.1438 132.573 36.7908 132.186 36.5357C131.8 36.2807 131.352 36.1327 130.89 36.1068C130.427 36.081 129.966 36.1783 129.554 36.3887Z"/>
</mask>
<path d="M129.554 36.3887L117.729 42.4679C115.792 43.4637 114.253 45.0904 113.367 47.0791L108.896 57.1108C108.839 57.2393 108.755 57.3541 108.65 57.447C108.544 57.54 108.42 57.609 108.285 57.6493C108.15 57.6897 108.008 57.7004 107.869 57.6807C107.73 57.661 107.596 57.6114 107.478 57.5353L100.498 53.0764L100.831 33.0588L103.687 26.1857C105.989 25.5344 108.096 24.3297 109.825 22.6768L124.902 8.25474C125.124 8.04266 125.3 7.78791 125.421 7.50585C125.541 7.22379 125.603 6.92027 125.603 6.61358V4.64495C125.603 3.9539 125.361 3.28472 124.918 2.75435C124.475 2.22399 123.859 1.86616 123.179 1.74339C115.419 0.342123 106.709 0.903779 99.7614 4.63352C90.6798 9.61413 88.4218 13.8484 86.6797 18.4958L77.9027 41.9005L71.6617 38.681C71.422 38.5612 71.2099 38.3927 71.0391 38.1862C70.8684 37.9796 70.7426 37.7397 70.67 37.4817C70.5974 37.2238 70.5796 36.9535 70.6175 36.6882C70.6555 36.4229 70.7485 36.1685 70.8906 35.9413L75.3039 28.8664C75.8336 28.0173 76.1896 27.0716 76.351 26.0839C76.5125 25.0962 76.4762 24.0863 76.2444 23.1128L73.0078 9.44277C72.9096 9.01991 72.6916 8.63432 72.3799 8.33217C72.0682 8.03002 71.676 7.82412 71.2503 7.73914C70.8246 7.65416 70.3834 7.69369 69.9796 7.85301C69.5757 8.01233 69.2264 8.28467 68.9734 8.63743C67.6693 10.4562 66.8034 12.552 66.4434 14.7608C66.0834 16.9697 66.239 19.232 66.8981 21.3707L68.8801 27.7964L63.6825 35.3644C62.8562 36.5686 62.4604 38.0164 62.5592 39.4734C62.658 40.9305 63.2456 42.3116 64.227 43.3932L71.8864 51.8065C66.7744 57.5848 57.491 68.0544 48.5045 78.1946L44.316 71.1692C43.8473 70.382 43.0882 69.8104 42.2022 69.5775C41.3162 69.3446 40.3742 69.4691 39.579 69.924L33.9854 73.1188C33.6647 73.3022 33.3075 73.4125 32.9392 73.4417C32.571 73.471 32.2008 73.4186 31.8552 73.2882C31.5096 73.1577 31.197 72.9525 30.9399 72.6873C30.6828 72.422 30.4875 72.1032 30.368 71.7537L25.9357 58.8071C25.7178 58.1708 25.3252 57.6087 24.8028 57.185C24.2804 56.7614 23.6494 56.4933 22.9818 56.4115C22.3142 56.3296 21.637 56.4374 21.0278 56.7223C20.4186 57.0072 19.9018 57.4579 19.5367 58.0227C17.6896 60.878 16.9101 64.2939 17.3358 67.6678C17.7614 71.0417 19.3649 74.1569 21.8632 76.4639L26.623 80.8429C27.3846 81.5496 28.3726 81.9625 29.4105 82.0078C30.4485 82.0532 31.4687 81.728 32.289 81.0904L37.0773 78.3621C37.2314 78.2743 37.4045 78.2252 37.5817 78.219C37.7589 78.2127 37.935 78.2496 38.0948 78.3263C38.2547 78.4031 38.3936 78.5175 38.4995 78.6596C38.6055 78.8018 38.6754 78.9676 38.7033 79.1427L40.1236 88.0054L40.3406 87.7502C28.4019 102.438 18.2521 118.493 10.1047 135.578C9.94292 135.921 9.77918 136.262 9.61544 136.604C-1.27678 159.451 -2.3639 191.818 10.1409 206.405C19.4472 217.257 34.8155 220.469 47.6059 214.689C60.3963 208.909 65.4893 195.911 60.3868 183.861C58.7126 179.909 58.162 175.572 58.7956 171.327C59.4292 167.082 61.2224 163.094 63.9776 159.803L65.6739 157.778C65.6739 157.778 58.2887 158.554 54.0601 167.282C47.1585 181.561 60.1983 191.223 50.3571 201.503C41.3516 210.908 26.7829 208.025 20.3401 200.602C15.7365 195.3 11.6526 177.024 19.7404 155.67C28.188 133.368 45.0414 125.562 56.9807 118.689C56.9807 118.689 60.5981 120.499 61.0151 120.813C61.3007 121.032 62.6981 122.951 60.7105 124.24C59.5034 125.029 57.609 125.954 55.6975 126.849C52.6379 128.286 49.5403 129.977 49.1918 133.335C49.169 133.547 48.3427 139.504 48.0343 143.853C47.8229 146.823 50.9244 147.822 52.0325 147.622C53.0625 147.432 59.5148 147.123 60.3925 146.687C64.029 144.883 63.3512 141.977 62.4678 140.542C60.423 137.219 56.8284 132.115 56.9636 132.046C57.9822 131.532 69.9273 125.638 70.7288 124.962C75.8408 120.64 71.7836 115.823 71.7836 115.823L63.7776 108.324L66.1156 106.538C72.092 102.629 77.3239 98.1836 81.7276 93.1478C89.5877 84.5097 95.5368 74.3106 99.1864 63.2166L105.21 65.1719C106.035 65.4389 106.904 65.5391 107.767 65.4667C108.63 65.3943 109.471 65.1508 110.239 64.7503C111.007 64.3498 111.688 63.8003 112.242 63.1339C112.795 62.4676 113.211 61.6977 113.464 60.8691L115.596 53.8779L121.894 52.3967C124.996 51.6666 127.783 49.962 129.846 47.5328C131.909 45.1036 133.14 42.0775 133.358 38.898C133.389 38.4359 133.297 37.9738 133.091 37.5588C132.885 37.1438 132.573 36.7908 132.186 36.5357C131.8 36.2807 131.352 36.1327 130.89 36.1068C130.427 36.081 129.966 36.1783 129.554 36.3887Z" fill="#83CFD0" stroke="black" stroke-width="2" mask="url(#path-1-inside-1_395_648)"/>
</g>
<path d="M97.8896 27.7628L103.59 26.1521C105.893 25.502 108.001 24.2972 109.73 22.6432L124.805 8.22308C125.026 8.0103 125.202 7.75515 125.323 7.47286C125.443 7.19056 125.505 6.8869 125.506 6.58001V4.60567C125.506 3.91439 125.264 3.24496 124.821 2.71428C124.378 2.18359 123.762 1.82539 123.082 1.70222C115.322 0.300947 106.611 0.864501 99.6641 4.59234C90.5825 9.57485 88.3244 13.8072 86.5824 18.4546L77.4627 42.7713C76.3489 45.7436 74.698 48.4857 72.5925 50.861C67.4329 56.6831 56.8187 68.6624 46.8727 79.8783C32.0355 96.6115 19.6237 115.347 10.0017 135.535C9.83926 135.875 9.67615 136.217 9.51242 136.559C-1.3798 159.406 -2.46693 191.784 10.0379 206.362C19.3442 217.214 34.7125 220.426 47.5029 214.644C60.2933 208.862 65.3862 195.866 60.2838 183.816C58.6098 179.864 58.0593 175.527 58.6929 171.282C59.3265 167.037 61.1195 163.049 63.8745 159.758L65.5709 157.733" stroke="black" stroke-width="2" stroke-miterlimit="10"/>
<path d="M103.59 26.1445C101.441 29.4157 100.296 33.2446 100.298 37.1586V45.9661" stroke="black" stroke-width="2" stroke-miterlimit="10"/>
<path d="M77.8319 41.7737L71.549 38.6398C71.3101 38.5194 71.099 38.3504 70.9292 38.1437C70.7594 37.9369 70.6347 37.697 70.563 37.4393C70.4913 37.1815 70.4742 36.9117 70.5129 36.647C70.5515 36.3822 70.645 36.1285 70.7874 35.902L75.2007 28.8252C75.7305 27.9762 76.0864 27.0304 76.2478 26.0427C76.4093 25.0551 76.373 24.0452 76.1412 23.0716L72.895 9.40162C72.7969 8.97876 72.5789 8.59316 72.2672 8.29102C71.9555 7.98887 71.5633 7.78297 71.1376 7.69799C70.7118 7.613 70.2707 7.65254 69.8669 7.81186C69.463 7.97117 69.1137 8.24351 68.8607 8.59627C67.5567 10.4151 66.6909 12.5109 66.3309 14.7197C65.9709 16.9286 66.1264 19.1908 66.7854 21.3296L68.7731 27.7629L63.5754 35.3309C62.7497 36.5355 62.3545 37.9835 62.454 39.4406C62.5536 40.8976 63.1419 42.2785 64.1238 43.3596L68.0115 47.6396" stroke="black" stroke-width="2" stroke-miterlimit="10"/>
<path d="M106.828 15.2162C108.376 15.2162 109.631 13.9614 109.631 12.4136C109.631 10.8658 108.376 9.61108 106.828 9.61108C105.281 9.61108 104.026 10.8658 104.026 12.4136C104.026 13.9614 105.281 15.2162 106.828 15.2162Z" stroke="black" stroke-width="2" stroke-miterlimit="10"/>
<path d="M106.829 10.6111C107.824 10.6112 108.631 11.4184 108.631 12.4138C108.631 13.4092 107.824 14.2165 106.829 14.2166C105.833 14.2166 105.026 13.4092 105.026 12.4138C105.026 11.4183 105.833 10.6111 106.829 10.6111Z" fill="black" stroke="black" stroke-width="2"/>
<path d="M107.5 10.9998C107.776 10.9998 108 11.2236 108 11.4998C108 11.7759 107.776 11.9998 107.5 11.9998C107.224 11.9998 107 11.7759 107 11.4998C107 11.2236 107.224 10.9998 107.5 10.9998Z" fill="white" stroke="white" stroke-width="2"/>
<path d="M108.331 11.947C108.497 11.947 108.631 11.8124 108.631 11.6462C108.631 11.4801 108.497 11.3455 108.331 11.3455M108.331 11.947V11.3455M108.331 11.947C108.164 11.947 108.03 11.8124 108.03 11.6462C108.03 11.4801 108.164 11.3455 108.331 11.3455M108.331 11.947V11.3455" fill="white" stroke="white" stroke-width="2"/>
<path d="M99.091 63.1753C93.2614 80.9308 81.6122 96.2003 66.0278 106.514" stroke="black" stroke-width="2" stroke-miterlimit="10"/>
<path d="M115.501 53.8462L113.368 60.8354C113.115 61.6642 112.7 62.4343 112.146 63.1008C111.593 63.7673 110.912 64.3168 110.144 64.7174C109.375 65.1179 108.535 65.3614 107.672 65.4337C106.808 65.5059 105.939 65.4055 105.115 65.1382L92.6519 61.081" stroke="black" stroke-width="2" stroke-miterlimit="10"/>
<path d="M96.7417 50.7028L107.373 57.496C107.492 57.5717 107.625 57.6209 107.764 57.6403C107.904 57.6597 108.045 57.6487 108.18 57.6082C108.315 57.5677 108.439 57.4986 108.545 57.4057C108.65 57.3127 108.734 57.198 108.792 57.0695L113.264 47.0378C114.15 45.0483 115.688 43.4204 117.624 42.4228L129.449 36.3436C129.862 36.1322 130.323 36.0342 130.786 36.0596C131.249 36.0849 131.697 36.2328 132.084 36.488C132.472 36.7431 132.784 37.0965 132.99 37.512C133.196 37.9275 133.288 38.3903 133.257 38.853C133.039 42.0325 131.808 45.0586 129.745 47.4878C127.682 49.917 124.895 51.6215 121.793 52.3516" stroke="black" stroke-width="2" stroke-miterlimit="10"/>
<path d="M56.8659 132.017L62.3701 140.512C62.7565 141.108 62.9829 141.794 63.0274 142.504C63.0718 143.213 62.9329 143.922 62.624 144.562C62.3151 145.202 61.8465 145.751 61.2635 146.158C60.6805 146.564 60.0027 146.814 59.2953 146.882L51.9386 147.594C51.3983 147.646 50.8531 147.577 50.3428 147.392C49.8326 147.207 49.3701 146.91 48.9891 146.523C48.6081 146.136 48.3181 145.67 48.1403 145.157C47.9625 144.644 47.9014 144.098 47.9614 143.558L49.1037 133.306C49.2159 132.293 49.5759 131.324 50.1517 130.484C50.7275 129.644 51.5014 128.959 52.4051 128.489L60.6223 124.211C60.9511 124.037 61.2266 123.778 61.4192 123.46C61.6118 123.142 61.7143 122.778 61.7157 122.406C61.717 122.034 61.6172 121.669 61.427 121.35C61.2367 121.03 60.9632 120.769 60.6356 120.593L47.4683 113.614" stroke="black" stroke-width="2" stroke-miterlimit="10"/>
<path d="M59.4668 104.401L71.0806 115.148C71.8393 115.851 72.4168 116.726 72.7638 117.701C73.1108 118.675 73.217 119.718 73.0734 120.742C72.9297 121.766 72.5405 122.74 71.9389 123.581C71.3373 124.422 70.5411 125.105 69.6184 125.572" stroke="black" stroke-width="2" stroke-miterlimit="10"/>
<path d="M39.2017 82.8523L38.6 79.0978C38.5719 78.9228 38.5018 78.7573 38.3958 78.6153C38.2897 78.4734 38.1508 78.3592 37.991 78.2827C37.8311 78.2062 37.6552 78.1695 37.4781 78.1758C37.301 78.1822 37.1281 78.2313 36.9741 78.3191L32.1858 81.0455C31.3663 81.6854 30.3459 82.0128 29.3071 81.9692C28.2683 81.9256 27.2789 81.5138 26.516 80.8075L21.7562 76.4285C19.2578 74.1215 17.6544 71.0062 17.2288 67.6323C16.8031 64.2584 17.5826 60.8426 19.4297 57.9873C19.7949 57.4225 20.3118 56.972 20.9212 56.6872C21.5306 56.4023 22.2078 56.2948 22.8754 56.3768C23.543 56.4589 24.174 56.7272 24.6963 57.151C25.2186 57.5749 25.611 58.1372 25.8287 58.7736L30.261 71.7202C30.3804 72.0697 30.5757 72.3886 30.8329 72.6538C31.09 72.9191 31.4026 73.1242 31.7483 73.2545C32.094 73.3848 32.4643 73.437 32.8325 73.4074C33.2008 73.3778 33.5579 73.2672 33.8784 73.0834L39.472 69.8886C40.2672 69.4337 41.2092 69.3092 42.0952 69.5421C42.9812 69.775 43.7403 70.3466 44.2089 71.1338L48.3975 78.1611" stroke="black" stroke-width="2" stroke-miterlimit="10"/>
</svg>
