<svg width="393" height="668" viewBox="0 0 393 668" fill="none" xmlns="http://www.w3.org/2000/svg">
<path opacity="0.6" d="M309.34 208.011L288.595 218.676C285.198 220.423 282.499 223.276 280.943 226.765L273.101 244.364C273.001 244.589 272.853 244.79 272.668 244.953C272.483 245.117 272.264 245.238 272.028 245.308C271.792 245.379 271.543 245.398 271.298 245.363C271.054 245.329 270.82 245.242 270.613 245.108L258.368 237.286L258.953 202.169L263.963 190.112C268.001 188.969 271.697 186.856 274.731 183.956L301.18 158.656C301.569 158.284 301.878 157.837 302.089 157.342C302.301 156.847 302.41 156.315 302.409 155.777V152.323C302.41 151.111 301.984 149.937 301.207 149.007C300.43 148.076 299.351 147.448 298.158 147.233C284.544 144.775 269.263 145.76 257.076 152.303C241.144 161.041 237.183 168.469 234.126 176.622L218.729 217.68L207.781 212.032C207.36 211.822 206.988 211.527 206.688 211.164C206.389 210.802 206.168 210.381 206.041 209.929C205.914 209.476 205.882 209.002 205.949 208.536C206.015 208.071 206.179 207.625 206.428 207.226L214.17 194.815C215.099 193.325 215.724 191.666 216.007 189.933C216.29 188.201 216.227 186.429 215.82 184.721L210.142 160.74C209.97 159.998 209.587 159.322 209.04 158.792C208.494 158.262 207.806 157.9 207.059 157.751C206.312 157.602 205.538 157.672 204.83 157.951C204.121 158.231 203.508 158.708 203.064 159.327C200.777 162.518 199.258 166.194 198.626 170.069C197.994 173.944 198.268 177.913 199.424 181.665L202.901 192.938L193.783 206.214C192.333 208.327 191.639 210.866 191.812 213.423C191.985 215.979 193.016 218.401 194.738 220.299L208.175 235.058C199.207 245.195 182.921 263.562 167.156 281.351L159.808 269.026C158.986 267.645 157.654 266.643 156.1 266.234C154.546 265.825 152.893 266.044 151.498 266.842L141.685 272.446C141.123 272.768 140.496 272.962 139.85 273.013C139.204 273.064 138.555 272.972 137.948 272.743C137.342 272.515 136.794 272.155 136.343 271.689C135.892 271.224 135.549 270.665 135.339 270.052L127.564 247.34C127.181 246.223 126.493 245.237 125.576 244.494C124.66 243.751 123.553 243.28 122.382 243.137C121.211 242.993 120.023 243.182 118.954 243.682C117.885 244.182 116.979 244.973 116.338 245.963C113.098 250.972 111.73 256.965 112.477 262.884C113.224 268.802 116.037 274.267 120.419 278.315L128.769 285.997C130.105 287.236 131.839 287.961 133.66 288.04C135.48 288.12 137.27 287.549 138.709 286.431L147.109 281.645C147.38 281.491 147.683 281.404 147.994 281.394C148.305 281.383 148.614 281.447 148.894 281.582C149.175 281.717 149.419 281.917 149.604 282.167C149.79 282.416 149.913 282.707 149.962 283.014L152.453 298.562L152.834 298.114C131.89 323.881 114.084 352.047 99.7916 382.018C99.5077 382.62 99.2205 383.217 98.9333 383.819C79.8251 423.899 77.918 480.679 99.8551 506.27C116.181 525.308 143.142 530.942 165.58 520.802C188.018 510.662 196.952 487.86 188.001 466.721C185.064 459.788 184.098 452.179 185.21 444.732C186.321 437.285 189.467 430.29 194.3 424.517L197.276 420.963C197.276 420.963 184.32 422.325 176.902 437.636C164.795 462.686 187.67 479.636 170.406 497.669C154.608 514.169 129.05 509.112 117.747 496.089C109.671 486.787 102.507 454.727 116.695 417.265C131.515 378.141 161.081 364.447 182.026 352.389C182.026 352.389 188.372 355.566 189.103 356.117C189.604 356.501 192.056 359.867 188.569 362.129C186.451 363.511 183.128 365.135 179.775 366.704C174.407 369.226 168.973 372.192 168.362 378.084C168.322 378.455 166.872 388.905 166.331 396.534C165.96 401.744 171.401 403.498 173.345 403.147C175.152 402.813 186.471 402.272 188.011 401.507C194.39 398.341 193.201 393.244 191.652 390.726C188.065 384.897 181.759 375.943 181.996 375.823C183.783 374.921 204.738 364.58 206.144 363.395C215.112 355.813 207.994 347.363 207.994 347.363L193.95 334.206L198.051 331.073C208.535 324.216 217.714 316.417 225.439 307.583C239.228 292.429 249.664 274.537 256.067 255.075L266.635 258.505C268.081 258.974 269.605 259.149 271.12 259.022C272.634 258.895 274.108 258.468 275.456 257.766C276.804 257.063 277.998 256.099 278.97 254.93C279.941 253.761 280.67 252.41 281.114 250.957L284.854 238.692L295.903 236.094C301.345 234.813 306.234 231.823 309.853 227.561C313.472 223.3 315.631 217.991 316.013 212.413C316.068 211.602 315.906 210.792 315.545 210.064C315.184 209.336 314.637 208.716 313.958 208.269C313.28 207.821 312.495 207.562 311.684 207.517C310.873 207.471 310.064 207.642 309.34 208.011Z" fill="#E09BAE"/>
<path d="M254.231 193.052L264.231 190.226C268.271 189.086 271.969 186.972 275.002 184.071L301.448 158.774C301.836 158.4 302.145 157.953 302.356 157.458C302.568 156.962 302.677 156.43 302.678 155.891V152.428C302.678 151.215 302.253 150.041 301.476 149.11C300.699 148.179 299.619 147.55 298.426 147.334C284.812 144.876 269.531 145.865 257.344 152.404C241.412 161.145 237.451 168.57 234.395 176.723L218.396 219.381C216.442 224.596 213.546 229.406 209.852 233.573C200.801 243.787 182.18 264.802 164.732 284.478C138.703 313.833 116.93 346.7 100.05 382.116C99.7648 382.713 99.4787 383.312 99.1914 383.913C80.0833 423.993 78.1762 480.793 100.113 506.367C116.439 525.405 143.4 531.04 165.838 520.896C188.276 510.753 197.21 487.954 188.259 466.815C185.323 459.882 184.357 452.273 185.468 444.826C186.58 437.38 189.725 430.384 194.558 424.611L197.534 421.057" stroke="black" stroke-width="3" stroke-miterlimit="10"/>
<path d="M264.231 190.213C260.461 195.952 258.453 202.669 258.456 209.535V224.986" stroke="black" stroke-width="3" stroke-miterlimit="10"/>
<path d="M219.044 217.631L208.022 212.133C207.603 211.922 207.233 211.626 206.935 211.263C206.637 210.9 206.418 210.479 206.292 210.027C206.167 209.575 206.137 209.102 206.204 208.637C206.272 208.173 206.436 207.728 206.686 207.331L214.428 194.916C215.357 193.426 215.982 191.767 216.265 190.034C216.548 188.302 216.485 186.53 216.078 184.822L210.383 160.841C210.211 160.099 209.829 159.423 209.282 158.893C208.735 158.363 208.047 158.001 207.3 157.852C206.553 157.703 205.779 157.773 205.071 158.052C204.363 158.332 203.75 158.809 203.306 159.428C201.018 162.619 199.499 166.296 198.868 170.171C198.236 174.046 198.509 178.014 199.665 181.766L203.152 193.052L194.034 206.329C192.585 208.442 191.892 210.982 192.067 213.538C192.241 216.094 193.273 218.517 194.996 220.413L201.816 227.922" stroke="black" stroke-width="3" stroke-miterlimit="10"/>
<path d="M269.912 171.041C272.628 171.041 274.829 168.84 274.829 166.125C274.829 163.41 272.628 161.208 269.912 161.208C267.197 161.208 264.996 163.41 264.996 166.125C264.996 168.84 267.197 171.041 269.912 171.041Z" stroke="black" stroke-width="3" stroke-miterlimit="10"/>
<path d="M269.912 171.041C272.628 171.041 274.829 168.84 274.829 166.125C274.829 163.41 272.628 161.208 269.912 161.208C267.197 161.208 264.996 163.41 264.996 166.125C264.996 168.84 267.197 171.041 269.912 171.041Z" fill="black"/>
<path d="M270.263 165.073C271.006 165.073 271.609 164.47 271.609 163.727C271.609 162.983 271.006 162.381 270.263 162.381C269.52 162.381 268.917 162.983 268.917 163.727C268.917 164.47 269.52 165.073 270.263 165.073Z" fill="white"/>
<path d="M272.547 165.307C272.839 165.307 273.075 165.07 273.075 164.779C273.075 164.487 272.839 164.251 272.547 164.251C272.256 164.251 272.02 164.487 272.02 164.779C272.02 165.07 272.256 165.307 272.547 165.307Z" fill="white"/>
<path d="M256.338 255.176C246.112 286.324 225.676 313.112 198.336 331.204" stroke="black" stroke-width="3" stroke-miterlimit="10"/>
<path d="M285.126 238.81L281.385 251.071C280.942 252.525 280.213 253.876 279.242 255.045C278.271 256.215 277.076 257.179 275.728 257.881C274.381 258.584 272.906 259.011 271.392 259.138C269.877 259.265 268.352 259.088 266.906 258.62L245.043 251.502" stroke="black" stroke-width="3" stroke-miterlimit="10"/>
<path d="M252.217 233.296L270.868 245.213C271.075 245.346 271.31 245.432 271.554 245.466C271.798 245.5 272.047 245.481 272.283 245.41C272.52 245.339 272.738 245.217 272.923 245.054C273.108 244.891 273.256 244.69 273.356 244.465L281.201 226.866C282.756 223.376 285.454 220.52 288.85 218.77L309.595 208.105C310.319 207.735 311.128 207.563 311.941 207.607C312.753 207.652 313.539 207.911 314.218 208.359C314.898 208.806 315.446 209.426 315.807 210.155C316.169 210.884 316.33 211.696 316.275 212.507C315.893 218.085 313.734 223.394 310.115 227.655C306.496 231.917 301.607 234.907 296.165 236.188" stroke="black" stroke-width="3" stroke-miterlimit="10"/>
<path d="M182.264 375.944L191.92 390.847C192.598 391.893 192.995 393.096 193.073 394.341C193.151 395.585 192.907 396.829 192.365 397.951C191.823 399.074 191.001 400.039 189.979 400.752C188.956 401.465 187.767 401.902 186.526 402.022L173.62 403.272C172.672 403.363 171.716 403.242 170.821 402.916C169.925 402.591 169.114 402.071 168.446 401.392C167.777 400.714 167.269 399.895 166.957 398.995C166.645 398.095 166.538 397.137 166.643 396.191L168.647 378.205C168.844 376.429 169.475 374.729 170.485 373.255C171.495 371.781 172.853 370.579 174.438 369.755L188.854 362.25C189.431 361.946 189.914 361.49 190.252 360.933C190.59 360.375 190.769 359.736 190.772 359.084C190.774 358.432 190.599 357.791 190.265 357.231C189.932 356.671 189.452 356.212 188.877 355.904L165.778 343.659" stroke="black" stroke-width="3" stroke-miterlimit="10"/>
<path d="M186.826 327.497L207.2 346.351C208.531 347.584 209.544 349.12 210.153 350.829C210.762 352.538 210.948 354.368 210.696 356.165C210.444 357.961 209.761 359.67 208.706 361.146C207.651 362.621 206.254 363.819 204.635 364.638" stroke="black" stroke-width="3" stroke-miterlimit="10"/>
<path d="M151.275 289.695L150.22 283.108C150.171 282.802 150.048 282.511 149.862 282.262C149.675 282.013 149.432 281.813 149.151 281.679C148.871 281.544 148.562 281.48 148.252 281.491C147.941 281.502 147.638 281.588 147.368 281.742L138.967 286.525C137.53 287.648 135.74 288.222 133.917 288.146C132.095 288.069 130.359 287.347 129.021 286.108L120.671 278.426C116.288 274.379 113.475 268.914 112.728 262.995C111.982 257.076 113.349 251.084 116.589 246.075C117.23 245.084 118.137 244.293 119.206 243.794C120.275 243.294 121.463 243.105 122.634 243.249C123.805 243.393 124.912 243.864 125.829 244.607C126.745 245.351 127.433 246.338 127.815 247.454L135.591 270.166C135.8 270.779 136.143 271.339 136.594 271.804C137.045 272.269 137.594 272.629 138.2 272.858C138.806 273.086 139.456 273.178 140.102 273.126C140.748 273.074 141.375 272.88 141.937 272.557L151.75 266.953C153.145 266.155 154.797 265.936 156.351 266.345C157.906 266.754 159.237 267.756 160.06 269.137L167.408 281.465" stroke="black" stroke-width="3" stroke-miterlimit="10"/>
</svg>
