<svg width="393" height="668" viewBox="0 0 393 668" fill="none" xmlns="http://www.w3.org/2000/svg">
<path opacity="0.6" d="M303.045 204.144L282.3 214.809C278.903 216.556 276.204 219.409 274.648 222.898L266.806 240.497C266.706 240.722 266.558 240.923 266.373 241.087C266.188 241.25 265.97 241.371 265.733 241.441C265.497 241.512 265.248 241.531 265.004 241.496C264.759 241.462 264.525 241.375 264.318 241.241L252.073 233.419L252.658 198.302L257.668 186.245C261.706 185.102 265.402 182.989 268.436 180.089L294.885 154.789C295.274 154.417 295.583 153.97 295.795 153.475C296.006 152.98 296.115 152.448 296.114 151.91V148.456C296.115 147.244 295.689 146.07 294.912 145.14C294.135 144.209 293.056 143.581 291.863 143.366C278.249 140.908 262.968 141.893 250.781 148.436C234.849 157.174 230.888 164.602 227.832 172.755L212.434 213.813L201.486 208.165C201.065 207.955 200.693 207.66 200.393 207.297C200.094 206.935 199.873 206.514 199.746 206.062C199.619 205.609 199.587 205.135 199.654 204.669C199.72 204.204 199.884 203.758 200.133 203.359L207.875 190.948C208.804 189.458 209.429 187.799 209.712 186.066C209.995 184.334 209.932 182.562 209.525 180.854L203.847 156.873C203.675 156.131 203.292 155.455 202.746 154.925C202.199 154.395 201.511 154.033 200.764 153.884C200.017 153.735 199.243 153.805 198.535 154.084C197.826 154.364 197.213 154.841 196.77 155.46C194.482 158.651 192.963 162.327 192.331 166.202C191.7 170.078 191.973 174.046 193.129 177.798L196.606 189.071L187.488 202.347C186.038 204.46 185.344 206.999 185.517 209.556C185.691 212.112 186.721 214.535 188.443 216.432L201.88 231.191C192.912 241.328 176.626 259.695 160.861 277.484L153.513 265.159C152.691 263.778 151.359 262.776 149.805 262.367C148.251 261.958 146.598 262.177 145.203 262.975L135.39 268.579C134.828 268.901 134.201 269.095 133.555 269.146C132.909 269.197 132.26 269.105 131.653 268.877C131.047 268.648 130.499 268.288 130.048 267.822C129.597 267.357 129.254 266.798 129.044 266.185L121.269 243.473C120.887 242.356 120.198 241.37 119.281 240.627C118.365 239.884 117.258 239.413 116.087 239.27C114.916 239.126 113.728 239.315 112.659 239.815C111.59 240.315 110.684 241.106 110.043 242.096C106.803 247.106 105.435 253.098 106.182 259.017C106.929 264.935 109.742 270.4 114.125 274.448L122.475 282.13C123.811 283.369 125.544 284.094 127.365 284.173C129.186 284.253 130.975 283.682 132.414 282.564L140.815 277.778C141.085 277.624 141.388 277.538 141.699 277.527C142.01 277.516 142.319 277.58 142.6 277.715C142.88 277.85 143.124 278.05 143.309 278.3C143.495 278.549 143.618 278.84 143.667 279.147L146.159 294.695L146.539 294.247C125.595 320.014 107.789 348.18 93.4967 378.151C93.2128 378.753 92.9256 379.35 92.6383 379.952C73.5302 420.032 71.6231 476.812 93.5602 502.403C109.886 521.441 136.847 527.075 159.285 516.935C181.723 506.795 190.657 483.993 181.706 462.854C178.769 455.921 177.803 448.312 178.915 440.865C180.026 433.418 183.172 426.423 188.005 420.65L190.981 417.096C190.981 417.096 178.025 418.458 170.607 433.769C158.5 458.819 181.375 475.77 164.111 493.802C148.313 510.302 122.755 505.245 111.453 492.222C103.376 482.921 96.2121 450.86 110.4 413.398C125.22 374.274 154.786 360.58 175.731 348.522C175.731 348.522 182.077 351.699 182.808 352.25C183.309 352.634 185.761 356.001 182.274 358.262C180.156 359.644 176.833 361.268 173.48 362.837C168.112 365.359 162.678 368.325 162.067 374.217C162.027 374.588 160.577 385.038 160.036 392.667C159.665 397.877 165.106 399.631 167.05 399.28C168.857 398.946 180.176 398.405 181.716 397.64C188.096 394.474 186.907 389.377 185.357 386.859C181.77 381.03 175.464 372.076 175.701 371.956C177.488 371.054 198.443 360.713 199.849 359.528C208.817 351.946 201.699 343.496 201.699 343.496L187.655 330.339L191.756 327.206C202.24 320.349 211.419 312.55 219.144 303.716C232.933 288.562 243.37 270.67 249.772 251.208L260.34 254.638C261.786 255.107 263.31 255.282 264.825 255.155C266.339 255.028 267.814 254.601 269.161 253.899C270.509 253.196 271.703 252.232 272.675 251.063C273.646 249.894 274.375 248.543 274.819 247.09L278.559 234.825L289.608 232.227C295.05 230.946 299.939 227.956 303.558 223.694C307.177 219.433 309.336 214.124 309.718 208.546C309.773 207.735 309.611 206.925 309.25 206.197C308.889 205.469 308.342 204.849 307.663 204.402C306.985 203.955 306.2 203.695 305.389 203.65C304.578 203.604 303.769 203.775 303.045 204.144Z" fill="#2D9110"/>
<path d="M254.231 193.052L264.231 190.226C268.271 189.086 271.969 186.972 275.002 184.071L301.448 158.774C301.836 158.4 302.145 157.953 302.356 157.458C302.568 156.962 302.677 156.43 302.678 155.891V152.428C302.678 151.215 302.253 150.041 301.476 149.11C300.699 148.179 299.619 147.55 298.426 147.334C284.812 144.876 269.531 145.865 257.344 152.404C241.412 161.145 237.451 168.57 234.395 176.723L218.396 219.381C216.442 224.596 213.546 229.406 209.852 233.573C200.801 243.787 182.18 264.802 164.732 284.478C138.703 313.833 116.93 346.7 100.05 382.116C99.7648 382.713 99.4787 383.312 99.1914 383.913C80.0833 423.993 78.1762 480.793 100.113 506.367C116.439 525.405 143.4 531.04 165.838 520.896C188.276 510.753 197.21 487.954 188.259 466.815C185.323 459.882 184.357 452.273 185.468 444.826C186.58 437.38 189.725 430.384 194.558 424.611L197.534 421.057" stroke="black" stroke-width="3" stroke-miterlimit="10"/>
<path d="M264.231 190.213C260.461 195.951 258.453 202.668 258.456 209.535V224.986" stroke="black" stroke-width="3" stroke-miterlimit="10"/>
<path d="M219.044 217.631L208.022 212.133C207.603 211.922 207.233 211.626 206.935 211.263C206.637 210.9 206.418 210.479 206.292 210.027C206.167 209.575 206.137 209.102 206.204 208.637C206.272 208.173 206.436 207.728 206.686 207.33L214.428 194.916C215.357 193.426 215.982 191.767 216.265 190.034C216.548 188.302 216.485 186.53 216.078 184.822L210.383 160.841C210.211 160.099 209.829 159.423 209.282 158.893C208.735 158.363 208.047 158.001 207.3 157.852C206.553 157.703 205.779 157.773 205.071 158.052C204.363 158.332 203.75 158.809 203.306 159.428C201.018 162.619 199.499 166.295 198.868 170.17C198.236 174.045 198.509 178.014 199.665 181.766L203.152 193.052L194.034 206.328C192.585 208.442 191.892 210.982 192.067 213.538C192.241 216.094 193.273 218.517 194.996 220.413L201.816 227.922" stroke="black" stroke-width="3" stroke-miterlimit="10"/>
<path d="M269.912 171.041C272.628 171.041 274.829 168.84 274.829 166.125C274.829 163.41 272.628 161.208 269.912 161.208C267.197 161.208 264.996 163.41 264.996 166.125C264.996 168.84 267.197 171.041 269.912 171.041Z" stroke="black" stroke-width="3" stroke-miterlimit="10"/>
<path d="M269.912 171.041C272.628 171.041 274.829 168.84 274.829 166.125C274.829 163.41 272.628 161.208 269.912 161.208C267.197 161.208 264.996 163.41 264.996 166.125C264.996 168.84 267.197 171.041 269.912 171.041Z" fill="black"/>
<path d="M270.263 165.073C271.006 165.073 271.609 164.47 271.609 163.727C271.609 162.983 271.006 162.381 270.263 162.381C269.52 162.381 268.917 162.983 268.917 163.727C268.917 164.47 269.52 165.073 270.263 165.073Z" fill="white"/>
<path d="M272.547 165.307C272.839 165.307 273.075 165.07 273.075 164.779C273.075 164.487 272.839 164.251 272.547 164.251C272.256 164.251 272.02 164.487 272.02 164.779C272.02 165.07 272.256 165.307 272.547 165.307Z" fill="white"/>
<path d="M256.338 255.176C246.112 286.324 225.676 313.112 198.336 331.204" stroke="black" stroke-width="3" stroke-miterlimit="10"/>
<path d="M285.126 238.81L281.385 251.071C280.942 252.525 280.213 253.876 279.242 255.045C278.271 256.215 277.076 257.179 275.728 257.881C274.381 258.584 272.906 259.011 271.392 259.138C269.877 259.265 268.352 259.088 266.906 258.62L245.043 251.502" stroke="black" stroke-width="3" stroke-miterlimit="10"/>
<path d="M252.217 233.296L270.867 245.213C271.075 245.346 271.31 245.432 271.554 245.466C271.798 245.5 272.047 245.481 272.283 245.41C272.52 245.339 272.738 245.218 272.923 245.054C273.108 244.891 273.256 244.69 273.356 244.465L281.201 226.866C282.756 223.376 285.454 220.52 288.85 218.77L309.595 208.105C310.319 207.735 311.128 207.563 311.941 207.607C312.753 207.652 313.539 207.911 314.218 208.359C314.898 208.806 315.446 209.426 315.807 210.155C316.169 210.884 316.33 211.696 316.275 212.508C315.892 218.085 313.734 223.394 310.115 227.656C306.496 231.917 301.607 234.907 296.165 236.188" stroke="black" stroke-width="3" stroke-miterlimit="10"/>
<path d="M182.264 375.944L191.92 390.847C192.598 391.893 192.995 393.096 193.073 394.341C193.151 395.585 192.907 396.828 192.365 397.951C191.823 399.074 191.001 400.038 189.979 400.751C188.956 401.465 187.767 401.902 186.526 402.022L173.62 403.271C172.672 403.363 171.716 403.241 170.821 402.916C169.925 402.591 169.114 402.071 168.446 401.392C167.777 400.714 167.269 399.895 166.957 398.995C166.645 398.095 166.537 397.137 166.643 396.191L168.647 378.205C168.844 376.429 169.475 374.729 170.485 373.255C171.495 371.781 172.853 370.579 174.438 369.755L188.854 362.25C189.431 361.946 189.914 361.49 190.252 360.933C190.59 360.375 190.769 359.736 190.772 359.084C190.774 358.432 190.599 357.791 190.265 357.231C189.932 356.671 189.452 356.212 188.877 355.904L165.778 343.659" stroke="black" stroke-width="3" stroke-miterlimit="10"/>
<path d="M186.826 327.497L207.2 346.351C208.531 347.584 209.544 349.12 210.153 350.829C210.762 352.538 210.948 354.368 210.696 356.165C210.444 357.961 209.761 359.67 208.706 361.146C207.651 362.621 206.254 363.819 204.635 364.638" stroke="black" stroke-width="3" stroke-miterlimit="10"/>
<path d="M151.275 289.695L150.22 283.108C150.171 282.802 150.048 282.511 149.862 282.262C149.676 282.013 149.432 281.813 149.151 281.679C148.871 281.544 148.562 281.48 148.252 281.491C147.941 281.502 147.638 281.588 147.368 281.742L138.967 286.525C137.53 287.648 135.74 288.222 133.917 288.146C132.095 288.069 130.359 287.347 129.021 286.108L120.671 278.426C116.288 274.379 113.475 268.914 112.728 262.995C111.982 257.076 113.349 251.084 116.589 246.075C117.23 245.084 118.137 244.293 119.206 243.794C120.275 243.294 121.463 243.105 122.634 243.249C123.805 243.393 124.912 243.864 125.829 244.607C126.745 245.351 127.433 246.338 127.815 247.454L135.591 270.166C135.8 270.779 136.143 271.339 136.594 271.804C137.045 272.269 137.594 272.629 138.2 272.858C138.806 273.086 139.456 273.178 140.102 273.126C140.748 273.074 141.375 272.88 141.937 272.557L151.75 266.953C153.145 266.155 154.797 265.936 156.351 266.345C157.906 266.754 159.237 267.756 160.06 269.137L167.408 281.465" stroke="black" stroke-width="3" stroke-miterlimit="10"/>
</svg>
