<svg width="59" height="42" viewBox="0 0 59 42" fill="none" xmlns="http://www.w3.org/2000/svg">
<path d="M8.1521 22.8081C8.1521 22.8081 9.66299 24.6079 23.6816 23.2236C30.1538 22.5846 35.673 20.5713 39.3287 17.814C42.3612 15.5268 43.5662 13.5488 43.5662 13.5488" stroke="#89504D" stroke-width="0.8" stroke-linejoin="round"/>
<path d="M44.9543 8.0548C39.5919 -3.24038 26.6826 0.489005 20.78 3.44028C14.2687 6.69814 8.40264 14.2211 8.06836 20.7538" stroke="#89504D" stroke-width="0.8" stroke-linejoin="round"/>
<path d="M44.9542 15.6584C44.9542 15.6584 43.3281 14.5158 43.3281 11.9228C43.3281 9.32968 46.0824 6.38281 50.9166 6.38281C55.7508 6.38281 57.613 9.46126 57.613 11.2636C57.613 13.066 56.8217 15.1309 55.1956 15.8781" stroke="#89504D" stroke-width="0.8" stroke-miterlimit="10"/>
<path d="M54.3009 15.8782C53.8602 16.8854 53.2464 17.8562 50.9901 17.8562C48.6753 17.8562 48.3234 17.2997 47.5327 16.2742" stroke="#89504D" stroke-width="0.8" stroke-miterlimit="10"/>
<path d="M46.2505 14.3622C46.9102 14.8658 47.8659 14.7462 48.4702 14.0103C48.7271 13.6955 48.9644 13.9662 49.1073 14.0984C49.2049 14.1878 49.983 14.913 50.4709 15.3676C50.725 15.6041 51.0593 15.7354 51.4064 15.7352C51.6084 15.7353 51.8079 15.6908 51.9907 15.6049C52.1735 15.5191 52.3351 15.394 52.464 15.2385C52.8688 14.7487 53.4323 14.0682 53.4713 14.021C53.5305 13.948 53.6281 13.8705 53.7905 14.0103C54.0108 14.1991 54.3741 14.49 54.945 14.4573C55.2482 14.441 55.5425 14.3495 55.8014 14.1909C56.0603 14.0323 56.2755 13.8116 56.4276 13.5488" stroke="#89504D" stroke-width="0.8" stroke-miterlimit="10"/>
<path d="M50.0245 17.814L48.8623 18.8961C48.64 19.103 48.3476 19.2182 48.0439 19.2185H47.3256C47.0272 19.2184 46.7394 19.1076 46.5179 18.9075L46.0854 18.5165" stroke="#89504D" stroke-width="0.8" stroke-miterlimit="10"/>
<path d="M48.9714 18.7935C49.0721 19.9027 48.8272 20.8407 48.1479 21.5634" stroke="#89504D" stroke-width="0.8" stroke-miterlimit="10"/>
<path d="M37.2159 25.7966C37.2159 25.7966 31.8378 27.3818 28.8494 27.3818C22.1851 27.3818 20.7239 27.1741 14.1062 25.3276" stroke="#89504D" stroke-width="0.8" stroke-linejoin="round"/>
<path d="M14.0972 24.9906C14.1601 25.6025 13.9291 28.6419 13.5306 30.7993C14.1645 31.0191 14.0972 31.7663 14.0972 31.7663C13.5343 31.7997 12.7902 31.8098 12.223 31.8123C11.6129 31.8171 11.0195 31.6123 10.5422 31.2323C10.0648 30.8522 9.73238 30.3198 9.60036 29.7241C9.59596 29.7046 9.59218 29.6844 9.58777 29.6611C9.23775 27.2746 9.1729 26.098 9.6608 23.3406" stroke="#89504D" stroke-width="0.8" stroke-linejoin="round"/>
<path d="M20.2045 26.8354C20.2045 26.8354 20.0484 29.2837 20.6049 30.2507C21.1614 31.2177 21.6782 31.3637 22.6156 31.3637C23.2861 31.3637 24.4665 31.1623 24.4665 31.1623C24.4665 30.7738 24.2531 30.5579 23.8136 30.5145C23.6827 29.7981 24.0623 28.6888 23.8722 27.8333" stroke="#89504D" stroke-width="0.8" stroke-linejoin="round"/>
<path d="M37.2158 24.1262C37.2158 24.1262 37.9485 25.4741 36.2784 27.2613C34.6082 29.0486 33.5242 31.6568 34.6227 32.8013C35.7212 33.9458 39.326 33.2703 39.326 33.2703C39.326 33.2703 39.2485 32.4789 38.7745 32.4204" stroke="#89504D" stroke-width="0.8" stroke-linejoin="round"/>
<path d="M38.7771 21.2253C38.7771 21.2253 43.2544 20.2583 43.0498 23.892C42.8452 27.5257 38.2439 30.3964 38.2439 31.2759" stroke="#89504D" stroke-width="0.8" stroke-linejoin="round"/>
<path d="M42.963 23.0425C42.963 23.0425 43.6939 22.6018 46.0823 22.6018C48.4708 22.6018 47.7468 23.9182 47.5303 24.0497C46.9442 24.4161 46.7314 24.5534 44.7099 24.5534H42.9604" stroke="#89504D" stroke-width="0.8" stroke-linejoin="round"/>
<path d="M51.5762 31.071C52.2574 31.0269 52.36 31.9523 52.36 31.9523C52.36 31.9523 51.3414 32.2476 49.4956 32.218C47.6498 32.1884 47.1518 31.5129 47.5327 30.3407C47.9136 29.1685 45.7605 28.4691 45.3834 26.6321C45.0794 25.1545 44.9541 24.5615 44.9541 24.5615" stroke="#89504D" stroke-width="0.8" stroke-linejoin="round"/>
<path d="M48.6816 20.7539C48.6816 20.7539 49.2772 20.8446 49.3357 22.9573C49.3943 25.07 49.7135 25.7115 50.7132 27.675C51.0745 28.3877 51.5165 28.958 51.6165 29.9036" stroke="#89504D" stroke-width="0.8" stroke-linejoin="round"/>
<path d="M29.5564 27.3566C27.8812 26.3141 27.5054 24.8303 28.1053 22.4531" stroke="#89504D" stroke-width="0.8" stroke-linejoin="round"/>
<path d="M21.7348 27.0799C21.1216 26.468 20.6998 25.4211 20.8704 23.4727" stroke="#89504D" stroke-width="0.8" stroke-linejoin="round"/>
<path d="M15.9425 25.8067C15.5578 25.5693 15.3312 24.1302 15.4294 23.7468" stroke="#89504D" stroke-width="0.8" stroke-linejoin="round"/>
<path d="M47.6265 12.012C48.2732 12.012 48.7974 11.4878 48.7974 10.8411C48.7974 10.1944 48.2732 9.67017 47.6265 9.67017C46.9798 9.67017 46.4556 10.1944 46.4556 10.8411C46.4556 11.4878 46.9798 12.012 47.6265 12.012Z" fill="black"/>
<path d="M47.7103 10.5901C47.8873 10.5901 48.0308 10.4466 48.0308 10.2697C48.0308 10.0927 47.8873 9.94922 47.7103 9.94922C47.5334 9.94922 47.3899 10.0927 47.3899 10.2697C47.3899 10.4466 47.5334 10.5901 47.7103 10.5901Z" fill="white"/>
<path d="M48.2537 10.6461C48.3229 10.6461 48.379 10.59 48.379 10.5208C48.379 10.4516 48.3229 10.3955 48.2537 10.3955C48.1845 10.3955 48.1284 10.4516 48.1284 10.5208C48.1284 10.59 48.1845 10.6461 48.2537 10.6461Z" fill="white"/>
<path d="M54.4414 12.012C55.0881 12.012 55.6124 11.4878 55.6124 10.8411C55.6124 10.1944 55.0881 9.67017 54.4414 9.67017C53.7948 9.67017 53.2705 10.1944 53.2705 10.8411C53.2705 11.4878 53.7948 12.012 54.4414 12.012Z" fill="black"/>
<path d="M54.5253 10.5901C54.7022 10.5901 54.8457 10.4466 54.8457 10.2697C54.8457 10.0927 54.7022 9.94922 54.5253 9.94922C54.3483 9.94922 54.2048 10.0927 54.2048 10.2697C54.2048 10.4466 54.3483 10.5901 54.5253 10.5901Z" fill="white"/>
<path d="M55.0689 10.6461C55.1381 10.6461 55.1942 10.59 55.1942 10.5208C55.1942 10.4516 55.1381 10.3955 55.0689 10.3955C54.9997 10.3955 54.9436 10.4516 54.9436 10.5208C54.9436 10.59 54.9997 10.6461 55.0689 10.6461Z" fill="white"/>
<path d="M50.1731 12.9724L50.5439 13.3432" stroke="#89504D" stroke-width="0.8" stroke-miterlimit="10" stroke-linecap="round"/>
<path d="M52.3322 12.9724L52.0596 13.3583" stroke="#89504D" stroke-width="0.8" stroke-miterlimit="10" stroke-linecap="round"/>
<path d="M34.867 12.668L37.6269 12.872C38.0187 12.901 38.4095 12.8047 38.743 12.5971C39.0765 12.3895 39.3353 12.0812 39.4821 11.7168L40.9087 8.18069C41.0403 7.8541 41.0763 7.49676 41.0123 7.15048C40.9483 6.8042 40.787 6.48331 40.5473 6.22535L38.8476 4.39591C38.6593 4.19355 38.4282 4.0358 38.1711 3.93418C37.9141 3.83256 37.6376 3.78964 37.3618 3.80855L32.7335 4.12962C32.4718 4.14771 32.217 4.22115 31.9858 4.34509C31.7547 4.46902 31.5524 4.64062 31.3926 4.84855L29.4284 7.40132C29.1443 7.77082 29.0098 8.23377 29.0517 8.69798C29.0936 9.16218 29.3088 9.59358 29.6544 9.90626L32.5163 12.4937" stroke="#89504D" stroke-width="0.8" stroke-linejoin="round"/>
<path d="M28.0115 0.906494L30.6908 2.35443C31.0478 2.54676 31.458 2.61664 31.8586 2.55336L36.7545 1.78092" stroke="#89504D" stroke-width="0.8" stroke-linejoin="round"/>
<path d="M24.1359 3.00024L27.7179 3.35027C27.865 3.36488 28.0059 3.41621 28.1279 3.49954C28.2499 3.58288 28.349 3.69554 28.4161 3.82717C28.4831 3.95881 28.5161 4.10519 28.5118 4.25287C28.5075 4.40054 28.4661 4.54477 28.3916 4.6723L26.9241 7.17282C26.8324 7.3285 26.695 7.45222 26.5306 7.52722C26.3662 7.60221 26.1827 7.62486 26.005 7.5921L22.3782 6.91786C22.2413 6.892 22.1124 6.83405 22.0023 6.74876C21.8921 6.66347 21.8037 6.55327 21.7443 6.42721C21.685 6.30114 21.6564 6.1628 21.6609 6.02353C21.6653 5.88427 21.7028 5.74805 21.7701 5.62605L22.9347 3.52968" stroke="#89504D" stroke-width="0.8" stroke-linejoin="round"/>
<path d="M21.1763 14.3099L18.7966 12.5069C18.65 12.3958 18.534 12.2493 18.4593 12.0812C18.3847 11.9131 18.3539 11.7288 18.3698 11.5456L18.4624 10.4432C18.484 10.1886 18.5945 9.94975 18.7745 9.76837C18.9545 9.587 19.1925 9.47469 19.4469 9.45109L25.7637 8.86751C26.1243 8.83414 26.4867 8.9071 26.8062 9.07738C27.1257 9.24765 27.3884 9.50779 27.5617 9.82566L28.5431 11.6255C28.6909 11.8964 28.7305 12.2132 28.6538 12.512C28.5772 12.8109 28.3901 13.0696 28.1302 13.2359L23.5937 16.1412" stroke="#89504D" stroke-width="0.8" stroke-linejoin="round"/>
<path d="M17.1769 22.2508L13.3368 19.3738C13.1158 19.2084 12.9573 18.9732 12.8869 18.7064C12.8165 18.4395 12.8384 18.1567 12.949 17.9039L14.3207 14.7562C14.388 14.6019 14.4865 14.4631 14.6099 14.3486C14.7332 14.2341 14.8789 14.1462 15.0378 14.0906C15.1967 14.0349 15.3654 14.0126 15.5333 14.0251C15.7011 14.0376 15.8647 14.0846 16.0135 14.1632L20.6671 16.6184C20.9295 16.7567 21.1548 16.956 21.3242 17.1996C21.4935 17.4431 21.602 17.7237 21.6404 18.0178L21.8236 19.4148C21.8515 19.6348 21.8076 19.8579 21.6982 20.0508C21.5888 20.2437 21.4198 20.3961 21.2167 20.485L19.3237 21.3116" stroke="#89504D" stroke-width="0.8" stroke-linejoin="round"/>
<path d="M32.2023 19.5678L28.5062 20.6418C28.2523 20.7159 27.9855 20.7346 27.7237 20.6966L24.7832 20.2717C24.6035 20.2456 24.4392 20.1558 24.3204 20.0186C24.2015 19.8813 24.1361 19.7059 24.136 19.5244V18.3031C24.1361 18.026 24.2163 17.7548 24.3669 17.5223C24.5176 17.2897 24.7323 17.1057 24.9852 16.9924L29.8327 14.8211C30.0956 14.7034 30.3822 14.6485 30.67 14.6606L35.6817 14.8759C35.8639 14.8837 36.0406 14.9403 36.1935 15.0396C36.3464 15.139 36.4698 15.2776 36.5509 15.4409C36.632 15.6043 36.6678 15.7864 36.6545 15.9682C36.6413 16.1501 36.5795 16.3251 36.4756 16.4749L34.869 18.7935" stroke="#89504D" stroke-width="0.8" stroke-linejoin="round"/>
<path d="M8.35425 18.6483L10.754 17.2338C11.1537 16.9982 11.4505 16.6212 11.5857 16.1774L12.5621 12.9724" stroke="#89504D" stroke-width="0.8" stroke-linejoin="round"/>
<path d="M17.6226 8.48909L18.6846 7.23001C18.8861 6.99153 19.0239 6.70584 19.085 6.39965L19.5445 4.11694" stroke="#89504D" stroke-width="0.8" stroke-linejoin="round"/>
<path d="M13.1726 9.5376L16.4739 9.84796" stroke="#89504D" stroke-width="0.8" stroke-linejoin="round"/>
<path d="M9.39729 28.1894C9.39729 28.1894 7.21468 27.8859 6.04248 26.7534C4.87028 25.6208 4.37231 25.8091 4.37231 25.8091" stroke="#89504D" stroke-width="0.8" stroke-linejoin="round"/>
<path d="M3.22962 26.0017C3.22962 26.0017 -0.716958 27.1154 0.711465 30.8366C2.35267 35.1174 8.89546 35.9358 14.8251 35.9358H49.2338C51.3396 35.9358 56.0328 35.0822 57.9277 31.2772C59.5922 27.9363 56.4275 26.1937 55.0608 27.5793" stroke="#89504D" stroke-width="0.8" stroke-linejoin="round"/>
<path d="M13.7812 28.7964H20.1874" stroke="#89504D" stroke-width="0.8" stroke-linejoin="round"/>
<path d="M23.9082 28.7964H35.1178" stroke="#89504D" stroke-width="0.8" stroke-linejoin="round"/>
<path d="M40.4033 28.7964H46.8038" stroke="#89504D" stroke-width="0.8" stroke-linejoin="round"/>
<path d="M51.103 28.3884C51.103 28.3884 52.4553 28.5508 53.3637 28.2285" stroke="#89504D" stroke-width="0.8" stroke-linejoin="round"/>
<path d="M8.06511 40.6424C9.31121 40.6424 10.3214 39.6322 10.3214 38.3861C10.3214 37.14 9.31121 36.1299 8.06511 36.1299C6.819 36.1299 5.80884 37.14 5.80884 38.3861C5.80884 39.6322 6.819 40.6424 8.06511 40.6424Z" stroke="#89504D" stroke-width="0.8" stroke-linejoin="round"/>
<path d="M13.2653 35.9346C13.2653 36.1394 13.2249 36.3423 13.1465 36.5316C13.0681 36.7208 12.9532 36.8928 12.8083 37.0377C12.6635 37.1825 12.4915 37.2974 12.3022 37.3758C12.113 37.4542 11.9101 37.4946 11.7053 37.4946C11.5004 37.4946 11.2975 37.4542 11.1083 37.3758C10.919 37.2974 10.747 37.1825 10.6022 37.0377C10.4573 36.8928 10.3424 36.7208 10.264 36.5316C10.1856 36.3423 10.1453 36.1394 10.1453 35.9346" stroke="#89504D" stroke-width="0.8" stroke-linejoin="round"/>
<path d="M47.8041 40.8719C49.0502 40.8719 50.0604 39.8617 50.0604 38.6156C50.0604 37.3695 49.0502 36.3594 47.8041 36.3594C46.558 36.3594 45.5479 37.3695 45.5479 38.6156C45.5479 39.8617 46.558 40.8719 47.8041 40.8719Z" stroke="#89504D" stroke-width="0.8" stroke-linejoin="round"/>
<path d="M45.724 35.9346C45.724 36.3483 45.5596 36.7451 45.2671 37.0377C44.9745 37.3302 44.5777 37.4946 44.164 37.4946C43.7503 37.4946 43.3535 37.3302 43.0609 37.0377C42.7684 36.7451 42.604 36.3483 42.604 35.9346" stroke="#89504D" stroke-width="0.8" stroke-linejoin="round"/>
</svg>
