<svg width="324" height="306" viewBox="0 0 324 306" fill="none" xmlns="http://www.w3.org/2000/svg">
<path opacity="0.6" d="M194.939 138.434L194.701 138.622C194.823 131.384 194.215 123.556 193.648 118.082C193.197 113.682 192.298 109.339 190.966 105.122L196.114 108.58C199.108 110.595 202.708 111.511 206.3 111.172L212.93 110.545C213.642 110.478 214.325 110.227 214.911 109.815C215.497 109.403 215.965 108.846 216.27 108.198C217.291 106.225 219.186 102.946 218.052 100.271C216.122 95.6021 213.217 91.3991 209.531 87.9438C205.845 84.4886 201.463 81.8609 196.679 80.2369C191.485 78.4686 185.816 78.7096 180.79 80.9124C177.452 82.385 174.665 84.1864 172.961 89.2522C171.281 94.2499 171.407 95.0372 172.313 109.415C172.741 116.251 173.515 121.403 172.906 131.865H170.766L168.822 131.677C163.652 122.469 155 117.04 144.269 117.04C133.517 117.04 118.466 123.501 120.376 140.878C120.918 145.821 123.501 149.557 127.353 152.218L127.142 152.165H116.237C111.919 152.165 107.733 153.648 104.378 156.366C102.227 158.108 100.493 160.309 99.3011 162.808C98.1096 165.306 97.4914 168.04 97.4916 170.808L98.3356 169.491C100.268 166.476 103.03 164.083 106.29 162.601C109.642 161.104 113.416 160.839 116.945 161.852L121.643 163.166L122.012 163.113C111.592 170.2 109.437 181.743 114.516 192.658C117.972 200.086 127.406 206.223 141.311 206.223C152.314 206.223 168.579 200.067 178.101 190.983L178.125 190.936C183.54 193.384 189.571 195.084 196.786 195.084C210.598 195.084 223.14 183.744 223.14 163.796C223.132 143.171 194.939 138.434 194.939 138.434ZM141.552 176.865C139.241 176.922 137.77 176.35 137.407 175.906C137.044 175.462 137.407 175.294 137.407 175.294C140.099 173.751 145.716 173.732 148.867 174.835C147.702 175.517 143.856 176.808 141.552 176.865ZM145.913 130.677C145.003 130.322 144.22 129.956 144.293 129.418C144.402 128.545 146.108 127.577 148.235 128.122C151.138 128.861 151.762 131.027 151.762 131.87C149.759 131.801 147.783 131.398 145.913 130.677Z" fill="#C63232"/>
<path d="M194.343 107.829L199.49 111.287C202.484 113.302 206.084 114.217 209.677 113.879L214.955 113.379C216.077 113.273 217.153 112.876 218.076 112.228C218.999 111.581 219.737 110.703 220.218 109.683L221.305 107.377C221.869 106.183 221.917 104.208 221.413 102.986C219.486 98.3182 216.584 94.1156 212.901 90.6601C209.218 87.2046 204.839 84.576 200.057 82.9502C194.814 81.1682 189.091 81.4308 184.034 83.6857C180.755 85.1437 178.019 86.9695 176.339 91.9672C174.659 96.9649 174.785 97.7506 175.691 112.13C176.381 123.173 179.268 144.416 167.579 162.998" stroke="black" stroke-width="2" stroke-miterlimit="10"/>
<path d="M191.014 172.306C191.014 172.306 196.757 160.318 197.841 146.565C198.925 132.811 196.182 113.635 196.182 113.635" stroke="black" stroke-width="2" stroke-miterlimit="10"/>
<path d="M197.64 162.991C201.988 165.583 202.319 169.471 198.831 171.542C192.412 175.353 188.604 170.424 174.132 165.236C159.661 160.049 149.04 157.222 135.432 161.212C116.601 166.735 111.456 181.553 117.884 195.367C121.34 202.795 130.773 208.933 144.679 208.933C155.68 208.933 171.947 202.777 181.469 193.693" stroke="black" stroke-width="2" stroke-miterlimit="10"/>
<path d="M152.244 177.542C144.212 181.399 139.629 178.7 140.784 178.001C142.923 176.705 148.27 176.219 152.244 177.542ZM152.244 177.542C167.571 182.666 178.603 197.792 200.154 197.792C213.968 197.792 226.508 186.452 226.508 166.505C226.508 145.876 198.32 141.139 198.32 141.139" stroke="black" stroke-width="2" stroke-miterlimit="10"/>
<path d="M174.134 134.572H155.131C153.581 134.572 147.665 133.501 147.665 132.125C147.665 130.75 152.014 129.533 154.469 132.668" stroke="black" stroke-width="2" stroke-miterlimit="10"/>
<path d="M143.461 159.584C133.067 157.95 124.771 152.92 123.745 143.585C121.835 126.206 136.89 119.747 147.64 119.747C158.444 119.747 167.144 125.255 172.3 134.572" stroke="black" stroke-width="2" stroke-miterlimit="10"/>
<path d="M125.012 165.87L120.118 164.498C116.666 163.53 112.983 163.808 109.714 165.284C106.434 166.763 103.654 169.164 101.713 172.195L100.868 173.512C100.867 170.743 101.486 168.01 102.677 165.511C103.869 163.013 105.603 160.812 107.754 159.069C111.109 156.351 115.295 154.868 119.613 154.869H130.514" stroke="black" stroke-width="2" stroke-miterlimit="10"/>
<path d="M206.338 103.589C208.11 103.589 209.547 102.152 209.547 100.38C209.547 98.6075 208.11 97.1707 206.338 97.1707C204.565 97.1707 203.129 98.6075 203.129 100.38C203.129 102.152 204.565 103.589 206.338 103.589Z" fill="black"/>
<path d="M216.805 108.517C217.227 108.517 217.569 108.175 217.569 107.752C217.569 107.33 217.227 106.988 216.805 106.988C216.382 106.988 216.04 107.33 216.04 107.752C216.04 108.175 216.382 108.517 216.805 108.517Z" fill="black"/>
<path d="M206.568 99.6914C207.053 99.6914 207.446 99.2983 207.446 98.8133C207.446 98.3284 207.053 97.9353 206.568 97.9353C206.083 97.9353 205.69 98.3284 205.69 98.8133C205.69 99.2983 206.083 99.6914 206.568 99.6914Z" fill="white"/>
<path d="M208.057 99.8436C208.246 99.8436 208.4 99.6899 208.4 99.5002C208.4 99.3105 208.246 99.1567 208.057 99.1567C207.867 99.1567 207.713 99.3105 207.713 99.5002C207.713 99.6899 207.867 99.8436 208.057 99.8436Z" fill="white"/>
</svg>
