<svg width="668" height="668" viewBox="0 0 668 668" fill="none" xmlns="http://www.w3.org/2000/svg">
<path opacity="0.6" d="M446.045 207.144L425.3 217.809C421.903 219.556 419.204 222.409 417.648 225.898L409.806 243.497C409.706 243.722 409.558 243.923 409.373 244.087C409.188 244.25 408.97 244.371 408.733 244.441C408.497 244.512 408.248 244.531 408.004 244.496C407.759 244.462 407.525 244.375 407.318 244.241L395.073 236.419L395.658 201.302L400.668 189.245C404.706 188.102 408.402 185.989 411.436 183.089L437.885 157.789C438.274 157.417 438.583 156.97 438.795 156.475C439.006 155.98 439.115 155.448 439.114 154.91V151.456C439.115 150.244 438.689 149.07 437.912 148.14C437.135 147.209 436.056 146.581 434.863 146.366C421.249 143.908 405.968 144.893 393.781 151.436C377.849 160.174 373.888 167.602 370.832 175.755L355.434 216.813L344.486 211.165C344.065 210.955 343.693 210.66 343.393 210.297C343.094 209.935 342.873 209.514 342.746 209.062C342.619 208.609 342.587 208.135 342.654 207.669C342.72 207.204 342.884 206.758 343.133 206.359L350.875 193.948C351.804 192.458 352.429 190.799 352.712 189.066C352.995 187.334 352.932 185.562 352.525 183.854L346.847 159.873C346.675 159.131 346.292 158.455 345.746 157.925C345.199 157.395 344.511 157.033 343.764 156.884C343.017 156.735 342.243 156.805 341.535 157.084C340.826 157.364 340.213 157.841 339.77 158.46C337.482 161.651 335.963 165.327 335.331 169.202C334.7 173.078 334.973 177.046 336.129 180.798L339.606 192.071L330.488 205.347C329.038 207.46 328.344 209.999 328.517 212.556C328.691 215.112 329.721 217.535 331.443 219.432L344.88 234.191C335.912 244.328 319.626 262.695 303.861 280.484L296.513 268.159C295.691 266.778 294.359 265.776 292.805 265.367C291.251 264.958 289.598 265.177 288.203 265.975L278.39 271.579C277.828 271.901 277.201 272.095 276.555 272.146C275.909 272.197 275.26 272.105 274.653 271.877C274.047 271.648 273.499 271.288 273.048 270.822C272.597 270.357 272.254 269.798 272.044 269.185L264.269 246.473C263.887 245.356 263.198 244.37 262.281 243.627C261.365 242.884 260.258 242.413 259.087 242.27C257.916 242.126 256.728 242.315 255.659 242.815C254.59 243.315 253.684 244.106 253.043 245.096C249.803 250.106 248.435 256.098 249.182 262.017C249.929 267.935 252.742 273.4 257.125 277.448L265.475 285.13C266.811 286.369 268.544 287.094 270.365 287.173C272.186 287.253 273.975 286.682 275.414 285.564L283.815 280.778C284.085 280.624 284.388 280.538 284.699 280.527C285.01 280.516 285.319 280.58 285.6 280.715C285.88 280.85 286.124 281.05 286.309 281.3C286.495 281.549 286.618 281.84 286.667 282.147L289.159 297.695L289.539 297.247C268.595 323.014 250.789 351.18 236.497 381.151C236.213 381.753 235.926 382.35 235.638 382.952C216.53 423.032 214.623 479.812 236.56 505.403C252.886 524.441 279.847 530.075 302.285 519.935C324.723 509.795 333.657 486.993 324.706 465.854C321.769 458.921 320.803 451.312 321.915 443.865C323.026 436.418 326.172 429.423 331.005 423.65L333.981 420.096C333.981 420.096 321.025 421.458 313.607 436.769C301.5 461.819 324.375 478.77 307.111 496.802C291.313 513.302 265.755 508.245 254.453 495.222C246.376 485.921 239.212 453.86 253.4 416.398C268.22 377.274 297.786 363.58 318.731 351.522C318.731 351.522 325.077 354.699 325.808 355.25C326.309 355.634 328.761 359.001 325.274 361.262C323.156 362.644 319.833 364.268 316.48 365.837C311.112 368.359 305.678 371.325 305.067 377.217C305.027 377.588 303.577 388.038 303.036 395.667C302.665 400.877 308.106 402.631 310.05 402.28C311.857 401.946 323.176 401.405 324.716 400.64C331.096 397.474 329.907 392.377 328.357 389.859C324.77 384.03 318.464 375.076 318.701 374.956C320.488 374.054 341.443 363.713 342.849 362.528C351.817 354.946 344.699 346.496 344.699 346.496L330.655 333.339L334.756 330.206C345.24 323.349 354.419 315.55 362.144 306.716C375.933 291.562 386.37 273.67 392.772 254.208L403.34 257.638C404.786 258.107 406.31 258.282 407.825 258.155C409.339 258.028 410.814 257.601 412.161 256.899C413.509 256.196 414.703 255.232 415.675 254.063C416.646 252.894 417.375 251.543 417.819 250.09L421.559 237.825L432.608 235.227C438.05 233.946 442.939 230.956 446.558 226.694C450.177 222.433 452.336 217.124 452.718 211.546C452.773 210.735 452.611 209.925 452.25 209.197C451.889 208.469 451.342 207.849 450.663 207.402C449.985 206.955 449.2 206.695 448.389 206.65C447.578 206.604 446.769 206.775 446.045 207.144Z" fill="#90EAEB"/>
<path d="M391.231 193.052L401.231 190.226C405.271 189.086 408.969 186.972 412.002 184.071L438.448 158.774C438.836 158.4 439.145 157.953 439.356 157.458C439.568 156.962 439.677 156.43 439.678 155.891V152.428C439.678 151.215 439.253 150.041 438.476 149.11C437.699 148.179 436.619 147.55 435.426 147.334C421.812 144.876 406.531 145.865 394.344 152.404C378.412 161.145 374.451 168.57 371.395 176.723L355.396 219.381C353.442 224.596 350.546 229.406 346.852 233.573C337.801 243.787 319.18 264.802 301.732 284.478C275.703 313.833 253.93 346.7 237.05 382.116C236.765 382.713 236.479 383.312 236.191 383.913C217.083 423.993 215.176 480.793 237.113 506.367C253.439 525.405 280.4 531.04 302.838 520.896C325.276 510.753 334.21 487.954 325.259 466.815C322.323 459.882 321.357 452.273 322.468 444.826C323.58 437.38 326.725 430.384 331.558 424.611L334.534 421.057" stroke="black" stroke-width="3" stroke-miterlimit="10"/>
<path d="M401.231 190.213C397.461 195.951 395.453 202.668 395.456 209.535V224.986" stroke="black" stroke-width="3" stroke-miterlimit="10"/>
<path d="M356.044 217.631L345.022 212.133C344.603 211.922 344.233 211.626 343.935 211.263C343.637 210.9 343.418 210.479 343.292 210.027C343.167 209.575 343.137 209.102 343.204 208.637C343.272 208.173 343.436 207.728 343.686 207.33L351.428 194.916C352.357 193.426 352.982 191.767 353.265 190.034C353.548 188.302 353.485 186.53 353.078 184.822L347.383 160.841C347.211 160.099 346.829 159.423 346.282 158.893C345.735 158.363 345.047 158.001 344.3 157.852C343.553 157.703 342.779 157.773 342.071 158.052C341.363 158.332 340.75 158.809 340.306 159.428C338.018 162.619 336.499 166.295 335.868 170.17C335.236 174.045 335.509 178.014 336.665 181.766L340.152 193.052L331.034 206.328C329.585 208.442 328.892 210.982 329.067 213.538C329.241 216.094 330.273 218.517 331.996 220.413L338.816 227.922" stroke="black" stroke-width="3" stroke-miterlimit="10"/>
<path d="M406.912 171.041C409.628 171.041 411.829 168.84 411.829 166.125C411.829 163.41 409.628 161.208 406.912 161.208C404.197 161.208 401.996 163.41 401.996 166.125C401.996 168.84 404.197 171.041 406.912 171.041Z" stroke="black" stroke-width="3" stroke-miterlimit="10"/>
<path d="M406.912 171.041C409.628 171.041 411.829 168.84 411.829 166.125C411.829 163.41 409.628 161.208 406.912 161.208C404.197 161.208 401.996 163.41 401.996 166.125C401.996 168.84 404.197 171.041 406.912 171.041Z" fill="black"/>
<path d="M407.263 165.073C408.006 165.073 408.609 164.47 408.609 163.727C408.609 162.983 408.006 162.381 407.263 162.381C406.52 162.381 405.917 162.983 405.917 163.727C405.917 164.47 406.52 165.073 407.263 165.073Z" fill="white"/>
<path d="M409.547 165.307C409.839 165.307 410.075 165.07 410.075 164.779C410.075 164.487 409.839 164.251 409.547 164.251C409.256 164.251 409.02 164.487 409.02 164.779C409.02 165.07 409.256 165.307 409.547 165.307Z" fill="white"/>
<path d="M393.338 255.176C383.112 286.324 362.676 313.112 335.336 331.204" stroke="black" stroke-width="3" stroke-miterlimit="10"/>
<path d="M422.126 238.81L418.385 251.071C417.942 252.525 417.213 253.876 416.242 255.045C415.271 256.215 414.076 257.179 412.728 257.881C411.381 258.584 409.906 259.011 408.392 259.138C406.877 259.265 405.352 259.088 403.906 258.62L382.043 251.502" stroke="black" stroke-width="3" stroke-miterlimit="10"/>
<path d="M389.217 233.296L407.867 245.213C408.075 245.346 408.31 245.432 408.554 245.466C408.798 245.5 409.047 245.481 409.283 245.41C409.52 245.339 409.738 245.218 409.923 245.054C410.108 244.891 410.256 244.69 410.356 244.465L418.201 226.866C419.756 223.376 422.454 220.52 425.85 218.77L446.595 208.105C447.319 207.735 448.128 207.563 448.941 207.607C449.753 207.652 450.539 207.911 451.218 208.359C451.898 208.806 452.446 209.426 452.807 210.155C453.169 210.884 453.33 211.696 453.275 212.508C452.892 218.085 450.734 223.394 447.115 227.656C443.496 231.917 438.607 234.907 433.165 236.188" stroke="black" stroke-width="3" stroke-miterlimit="10"/>
<path d="M319.264 375.944L328.92 390.847C329.598 391.893 329.995 393.096 330.073 394.341C330.151 395.585 329.907 396.828 329.365 397.951C328.823 399.074 328.001 400.038 326.979 400.751C325.956 401.465 324.767 401.902 323.526 402.022L310.62 403.271C309.672 403.363 308.716 403.241 307.821 402.916C306.925 402.591 306.114 402.071 305.446 401.392C304.777 400.714 304.269 399.895 303.957 398.995C303.645 398.095 303.537 397.137 303.643 396.191L305.647 378.205C305.844 376.429 306.475 374.729 307.485 373.255C308.495 371.781 309.853 370.579 311.438 369.755L325.854 362.25C326.431 361.946 326.914 361.49 327.252 360.933C327.59 360.375 327.769 359.736 327.772 359.084C327.774 358.432 327.599 357.791 327.265 357.231C326.932 356.671 326.452 356.212 325.877 355.904L302.778 343.659" stroke="black" stroke-width="3" stroke-miterlimit="10"/>
<path d="M323.826 327.497L344.2 346.351C345.531 347.584 346.544 349.12 347.153 350.829C347.762 352.538 347.948 354.368 347.696 356.165C347.444 357.961 346.761 359.67 345.706 361.146C344.651 362.621 343.254 363.819 341.635 364.638" stroke="black" stroke-width="3" stroke-miterlimit="10"/>
<path d="M288.275 289.695L287.22 283.108C287.171 282.802 287.048 282.511 286.862 282.262C286.675 282.013 286.432 281.813 286.151 281.679C285.871 281.544 285.562 281.48 285.252 281.491C284.941 281.502 284.638 281.588 284.368 281.742L275.967 286.525C274.53 287.648 272.74 288.222 270.917 288.146C269.095 288.069 267.359 287.347 266.021 286.108L257.671 278.426C253.288 274.379 250.475 268.914 249.728 262.995C248.982 257.076 250.349 251.084 253.589 246.075C254.23 245.084 255.137 244.293 256.206 243.794C257.275 243.294 258.463 243.105 259.634 243.249C260.805 243.393 261.912 243.864 262.829 244.607C263.745 245.351 264.433 246.338 264.815 247.454L272.591 270.166C272.8 270.779 273.143 271.339 273.594 271.804C274.045 272.269 274.594 272.629 275.2 272.858C275.806 273.086 276.456 273.178 277.102 273.126C277.748 273.074 278.375 272.88 278.937 272.557L288.75 266.953C290.145 266.155 291.797 265.936 293.351 266.345C294.906 266.754 296.237 267.756 297.06 269.137L304.408 281.465" stroke="black" stroke-width="3" stroke-miterlimit="10"/>
</svg>
