<svg width="668" height="668" viewBox="0 0 668 668" fill="none" xmlns="http://www.w3.org/2000/svg">
<path opacity="0.6" d="M440.045 204.144L419.3 214.809C415.903 216.556 413.204 219.409 411.648 222.898L403.806 240.497C403.706 240.722 403.558 240.923 403.373 241.087C403.188 241.25 402.97 241.371 402.733 241.441C402.497 241.512 402.248 241.531 402.004 241.496C401.759 241.462 401.525 241.375 401.318 241.241L389.073 233.419L389.658 198.302L394.668 186.245C398.706 185.102 402.402 182.989 405.436 180.089L431.885 154.789C432.274 154.417 432.583 153.97 432.795 153.475C433.006 152.98 433.115 152.448 433.114 151.91V148.456C433.115 147.244 432.689 146.07 431.912 145.14C431.135 144.209 430.056 143.581 428.863 143.366C415.249 140.908 399.968 141.893 387.781 148.436C371.849 157.174 367.888 164.602 364.832 172.755L349.434 213.813L338.486 208.165C338.065 207.955 337.693 207.66 337.393 207.297C337.094 206.935 336.873 206.514 336.746 206.062C336.619 205.609 336.587 205.135 336.654 204.669C336.72 204.204 336.884 203.758 337.133 203.359L344.875 190.948C345.804 189.458 346.429 187.799 346.712 186.066C346.995 184.334 346.932 182.562 346.525 180.854L340.847 156.873C340.675 156.131 340.292 155.455 339.746 154.925C339.199 154.395 338.511 154.033 337.764 153.884C337.017 153.735 336.243 153.805 335.535 154.084C334.826 154.364 334.213 154.841 333.77 155.46C331.482 158.651 329.963 162.327 329.331 166.202C328.7 170.078 328.973 174.046 330.129 177.798L333.606 189.071L324.488 202.347C323.038 204.46 322.344 206.999 322.517 209.556C322.691 212.112 323.721 214.535 325.443 216.432L338.88 231.191C329.912 241.328 313.626 259.695 297.861 277.484L290.513 265.159C289.691 263.778 288.359 262.776 286.805 262.367C285.251 261.958 283.598 262.177 282.203 262.975L272.39 268.579C271.828 268.901 271.201 269.095 270.555 269.146C269.909 269.197 269.26 269.105 268.653 268.877C268.047 268.648 267.499 268.288 267.048 267.822C266.597 267.357 266.254 266.798 266.044 266.185L258.269 243.473C257.887 242.356 257.198 241.37 256.281 240.627C255.365 239.884 254.258 239.413 253.087 239.27C251.916 239.126 250.728 239.315 249.659 239.815C248.59 240.315 247.684 241.106 247.043 242.096C243.803 247.106 242.435 253.098 243.182 259.017C243.929 264.935 246.742 270.4 251.125 274.448L259.475 282.13C260.811 283.369 262.544 284.094 264.365 284.173C266.186 284.253 267.975 283.682 269.414 282.564L277.815 277.778C278.085 277.624 278.388 277.538 278.699 277.527C279.01 277.516 279.319 277.58 279.6 277.715C279.88 277.85 280.124 278.05 280.309 278.3C280.495 278.549 280.618 278.84 280.667 279.147L283.159 294.695L283.539 294.247C262.595 320.014 244.789 348.18 230.497 378.151C230.213 378.753 229.926 379.35 229.638 379.952C210.53 420.032 208.623 476.812 230.56 502.403C246.886 521.441 273.847 527.075 296.285 516.935C318.723 506.795 327.657 483.993 318.706 462.854C315.769 455.921 314.803 448.312 315.915 440.865C317.026 433.418 320.172 426.423 325.005 420.65L327.981 417.096C327.981 417.096 315.025 418.458 307.607 433.769C295.5 458.819 318.375 475.77 301.111 493.802C285.313 510.302 259.755 505.245 248.453 492.222C240.376 482.921 233.212 450.86 247.4 413.398C262.22 374.274 291.786 360.58 312.731 348.522C312.731 348.522 319.077 351.699 319.808 352.25C320.309 352.634 322.761 356.001 319.274 358.262C317.156 359.644 313.833 361.268 310.48 362.837C305.112 365.359 299.678 368.325 299.067 374.217C299.027 374.588 297.577 385.038 297.036 392.667C296.665 397.877 302.106 399.631 304.05 399.28C305.857 398.946 317.176 398.405 318.716 397.64C325.096 394.474 323.907 389.377 322.357 386.859C318.77 381.03 312.464 372.076 312.701 371.956C314.488 371.054 335.443 360.713 336.849 359.528C345.817 351.946 338.699 343.496 338.699 343.496L324.655 330.339L328.756 327.206C339.24 320.349 348.419 312.55 356.144 303.716C369.933 288.562 380.37 270.67 386.772 251.208L397.34 254.638C398.786 255.107 400.31 255.282 401.825 255.155C403.339 255.028 404.814 254.601 406.161 253.899C407.509 253.196 408.703 252.232 409.675 251.063C410.646 249.894 411.375 248.543 411.819 247.09L415.559 234.825L426.608 232.227C432.05 230.946 436.939 227.956 440.558 223.694C444.177 219.433 446.336 214.124 446.718 208.546C446.773 207.735 446.611 206.925 446.25 206.197C445.889 205.469 445.342 204.849 444.663 204.402C443.985 203.955 443.2 203.695 442.389 203.65C441.578 203.604 440.769 203.775 440.045 204.144Z" fill="#D7B6B4"/>
<path d="M391.231 193.052L401.231 190.226C405.271 189.086 408.969 186.972 412.002 184.071L438.448 158.774C438.836 158.4 439.145 157.953 439.356 157.458C439.568 156.962 439.677 156.43 439.678 155.891V152.428C439.678 151.215 439.253 150.041 438.476 149.11C437.699 148.179 436.619 147.55 435.426 147.334C421.812 144.876 406.531 145.865 394.344 152.404C378.412 161.145 374.451 168.57 371.395 176.723L355.396 219.381C353.442 224.596 350.546 229.406 346.852 233.573C337.801 243.787 319.18 264.802 301.732 284.478C275.703 313.833 253.93 346.7 237.05 382.116C236.765 382.713 236.479 383.312 236.191 383.913C217.083 423.993 215.176 480.793 237.113 506.367C253.439 525.405 280.4 531.04 302.838 520.896C325.276 510.753 334.21 487.954 325.259 466.815C322.323 459.882 321.357 452.273 322.468 444.826C323.58 437.38 326.725 430.384 331.558 424.611L334.534 421.057" stroke="black" stroke-width="3" stroke-miterlimit="10"/>
<path d="M401.231 190.213C397.461 195.951 395.453 202.668 395.456 209.535V224.986" stroke="black" stroke-width="3" stroke-miterlimit="10"/>
<path d="M356.044 217.631L345.022 212.133C344.603 211.922 344.233 211.626 343.935 211.263C343.637 210.9 343.418 210.479 343.292 210.027C343.167 209.575 343.137 209.102 343.204 208.637C343.272 208.173 343.436 207.728 343.686 207.33L351.428 194.916C352.357 193.426 352.982 191.767 353.265 190.034C353.548 188.302 353.485 186.53 353.078 184.822L347.383 160.841C347.211 160.099 346.829 159.423 346.282 158.893C345.735 158.363 345.047 158.001 344.3 157.852C343.553 157.703 342.779 157.773 342.071 158.052C341.363 158.332 340.75 158.809 340.306 159.428C338.018 162.619 336.499 166.295 335.868 170.17C335.236 174.045 335.509 178.014 336.665 181.766L340.152 193.052L331.034 206.328C329.585 208.442 328.892 210.982 329.067 213.538C329.241 216.094 330.273 218.517 331.996 220.413L338.816 227.922" stroke="black" stroke-width="3" stroke-miterlimit="10"/>
<path d="M406.912 171.041C409.628 171.041 411.829 168.84 411.829 166.125C411.829 163.41 409.628 161.208 406.912 161.208C404.197 161.208 401.996 163.41 401.996 166.125C401.996 168.84 404.197 171.041 406.912 171.041Z" stroke="black" stroke-width="3" stroke-miterlimit="10"/>
<path d="M406.912 171.041C409.628 171.041 411.829 168.84 411.829 166.125C411.829 163.41 409.628 161.208 406.912 161.208C404.197 161.208 401.996 163.41 401.996 166.125C401.996 168.84 404.197 171.041 406.912 171.041Z" fill="black"/>
<path d="M407.263 165.073C408.006 165.073 408.609 164.47 408.609 163.727C408.609 162.983 408.006 162.381 407.263 162.381C406.52 162.381 405.917 162.983 405.917 163.727C405.917 164.47 406.52 165.073 407.263 165.073Z" fill="white"/>
<path d="M409.547 165.307C409.839 165.307 410.075 165.07 410.075 164.779C410.075 164.487 409.839 164.251 409.547 164.251C409.256 164.251 409.02 164.487 409.02 164.779C409.02 165.07 409.256 165.307 409.547 165.307Z" fill="white"/>
<path d="M393.338 255.176C383.112 286.324 362.676 313.112 335.336 331.204" stroke="black" stroke-width="3" stroke-miterlimit="10"/>
<path d="M422.126 238.81L418.385 251.071C417.942 252.525 417.213 253.876 416.242 255.045C415.271 256.215 414.076 257.179 412.728 257.881C411.381 258.584 409.906 259.011 408.392 259.138C406.877 259.265 405.352 259.088 403.906 258.62L382.043 251.502" stroke="black" stroke-width="3" stroke-miterlimit="10"/>
<path d="M389.217 233.296L407.867 245.213C408.075 245.346 408.31 245.432 408.554 245.466C408.798 245.5 409.047 245.481 409.283 245.41C409.52 245.339 409.738 245.218 409.923 245.054C410.108 244.891 410.256 244.69 410.356 244.465L418.201 226.866C419.756 223.376 422.454 220.52 425.85 218.77L446.595 208.105C447.319 207.735 448.128 207.563 448.941 207.607C449.753 207.652 450.539 207.911 451.218 208.359C451.898 208.806 452.446 209.426 452.807 210.155C453.169 210.884 453.33 211.696 453.275 212.508C452.892 218.085 450.734 223.394 447.115 227.656C443.496 231.917 438.607 234.907 433.165 236.188" stroke="black" stroke-width="3" stroke-miterlimit="10"/>
<path d="M319.264 375.944L328.92 390.847C329.598 391.893 329.995 393.096 330.073 394.341C330.151 395.585 329.907 396.828 329.365 397.951C328.823 399.074 328.001 400.038 326.979 400.751C325.956 401.465 324.767 401.902 323.526 402.022L310.62 403.271C309.672 403.363 308.716 403.241 307.821 402.916C306.925 402.591 306.114 402.071 305.446 401.392C304.777 400.714 304.269 399.895 303.957 398.995C303.645 398.095 303.537 397.137 303.643 396.191L305.647 378.205C305.844 376.429 306.475 374.729 307.485 373.255C308.495 371.781 309.853 370.579 311.438 369.755L325.854 362.25C326.431 361.946 326.914 361.49 327.252 360.933C327.59 360.375 327.769 359.736 327.772 359.084C327.774 358.432 327.599 357.791 327.265 357.231C326.932 356.671 326.452 356.212 325.877 355.904L302.778 343.659" stroke="black" stroke-width="3" stroke-miterlimit="10"/>
<path d="M323.826 327.497L344.2 346.351C345.531 347.584 346.544 349.12 347.153 350.829C347.762 352.538 347.948 354.368 347.696 356.165C347.444 357.961 346.761 359.67 345.706 361.146C344.651 362.621 343.254 363.819 341.635 364.638" stroke="black" stroke-width="3" stroke-miterlimit="10"/>
<path d="M288.275 289.695L287.22 283.108C287.171 282.802 287.048 282.511 286.862 282.262C286.675 282.013 286.432 281.813 286.151 281.679C285.871 281.544 285.562 281.48 285.252 281.491C284.941 281.502 284.638 281.588 284.368 281.742L275.967 286.525C274.53 287.648 272.74 288.222 270.917 288.146C269.095 288.069 267.359 287.347 266.021 286.108L257.671 278.426C253.288 274.379 250.475 268.914 249.728 262.995C248.982 257.076 250.349 251.084 253.589 246.075C254.23 245.084 255.137 244.293 256.206 243.794C257.275 243.294 258.463 243.105 259.634 243.249C260.805 243.393 261.912 243.864 262.829 244.607C263.745 245.351 264.433 246.338 264.815 247.454L272.591 270.166C272.8 270.779 273.143 271.339 273.594 271.804C274.045 272.269 274.594 272.629 275.2 272.858C275.806 273.086 276.456 273.178 277.102 273.126C277.748 273.074 278.375 272.88 278.937 272.557L288.75 266.953C290.145 266.155 291.797 265.936 293.351 266.345C294.906 266.754 296.237 267.756 297.06 269.137L304.408 281.465" stroke="black" stroke-width="3" stroke-miterlimit="10"/>
</svg>
