<svg width="393" height="414" viewBox="0 0 393 414" fill="none" xmlns="http://www.w3.org/2000/svg">
<g opacity="0.6">
<path d="M126.218 274.565C130.316 274.565 133.637 271.243 133.637 267.146C133.637 263.049 130.316 259.727 126.218 259.727C122.121 259.727 118.8 263.049 118.8 267.146C118.8 271.243 122.121 274.565 126.218 274.565Z" fill="#095F3E"/>
<path d="M277.604 231.633C275.96 233.869 274.373 234.784 272.783 234.784C270.625 234.749 268.471 234.586 266.333 234.297C265.919 233.521 265.465 232.759 265.051 231.942C261.777 225.487 260.717 223.368 260.524 216.431C260.344 209.987 258.643 209.273 258.402 209.203C259.262 207.325 259.543 205.162 259.324 202.748L262.787 199.527L265.962 199.666C272.561 199.666 274.89 197.143 276.341 194.253C277.873 194.046 279.788 193.164 279.788 193.164C285.134 190.707 287.736 183.913 287.736 177.989C287.736 172.065 281.618 161.949 265.722 161.949C257.173 161.949 250.611 164.749 246.359 168.664C246.237 167.616 246.113 167.449 246.113 167.449C228.483 130.307 186.033 142.571 166.625 152.273C145.213 162.979 125.922 187.722 124.811 209.198C124.764 211.453 124.86 213.708 125.099 215.951C125.099 215.951 125.927 216.938 130.044 217.795C128.82 224.742 128.671 228.64 129.191 233.645C129.191 233.645 122.014 232.649 118.162 228.923C114.31 225.197 112.67 225.818 112.67 225.818C111.39 225.804 110.117 226.022 108.913 226.46C108.913 226.46 95.9344 230.124 100.633 242.358C104.622 252.76 117.429 256.941 131.712 258.415H131.656C131.656 262.255 133.952 264.254 136.786 264.254C139.553 264.254 141.801 261.807 141.905 259.054C143.623 259.102 145.339 259.123 147.039 259.123H238.386C238.386 260.483 238.926 261.788 239.888 262.75C240.85 263.712 242.155 264.252 243.515 264.252C244.875 264.252 246.18 263.712 247.142 262.75C248.104 261.788 248.644 260.483 248.644 259.123H260.181C267.105 259.123 282.537 256.318 288.767 243.805C294.242 232.803 282.096 227.079 277.604 231.633ZM164.708 233.809L144.043 233.709C144.563 229.296 144.815 225.464 144.683 224.229C153.329 226.64 159.297 228.201 164.725 229.197C164.72 229.414 164.605 231.445 164.708 233.809ZM217.597 230.598C216.585 231.683 215.652 232.838 214.804 234.055L176.962 233.875C176.948 233.404 176.892 232.936 176.795 232.476C176.795 232.476 176.615 231.534 176.395 230.635C180.991 230.923 186.217 230.991 193.162 230.991C202.989 230.991 220.675 225.779 220.675 225.779C220.184 227.191 219.246 228.824 217.597 230.598ZM232.519 234.14C235.624 230.621 238.619 226.388 239.568 221.72H245.32H246.293C246.5 223.072 246.897 225.467 247.535 228.532C248.023 230.907 249.412 232.701 250.847 234.241L232.519 234.14Z" fill="#095F3E"/>
<path d="M256.883 260.483C255.416 260.483 253.981 260.918 252.761 261.733C251.541 262.548 250.59 263.707 250.029 265.062C249.467 266.418 249.32 267.91 249.607 269.349C249.893 270.788 250.6 272.11 251.637 273.147C252.675 274.185 253.997 274.892 255.436 275.178C256.875 275.464 258.366 275.317 259.722 274.756C261.078 274.194 262.236 273.243 263.052 272.023C263.867 270.803 264.302 269.369 264.302 267.902C264.302 265.934 263.52 264.047 262.129 262.656C260.738 261.264 258.851 260.483 256.883 260.483Z" fill="#095F3E"/>
</g>
<path d="M129.172 212.361C129.172 212.361 134.14 218.279 180.235 213.728C201.517 211.626 219.664 205.007 231.685 195.94C241.656 188.42 245.618 181.916 245.618 181.916" stroke="black" stroke-width="2" stroke-linejoin="round"/>
<path d="M250.182 163.851C232.55 126.711 190.103 138.974 170.694 148.678C149.284 159.39 129.996 184.127 128.897 205.607" stroke="black" stroke-width="2" stroke-linejoin="round"/>
<path d="M250.183 188.852C250.183 188.852 244.836 185.095 244.836 176.569C244.836 168.043 253.892 158.353 269.787 158.353C285.683 158.353 291.806 168.475 291.806 174.402C291.806 180.328 289.204 187.118 283.857 189.575" stroke="black" stroke-width="2" stroke-miterlimit="10"/>
<path d="M280.916 189.575C279.467 192.887 277.448 196.079 270.03 196.079C262.418 196.079 261.261 194.249 258.661 190.877" stroke="black" stroke-width="2" stroke-miterlimit="10"/>
<path d="M254.445 184.59C256.614 186.246 259.756 185.853 261.743 183.433C262.588 182.398 263.368 183.288 263.838 183.723C264.159 184.017 266.718 186.401 268.322 187.896C269.157 188.674 270.257 189.106 271.398 189.105C272.062 189.105 272.718 188.959 273.319 188.676C273.92 188.394 274.452 187.983 274.875 187.472C276.206 185.861 278.059 183.624 278.187 183.468C278.382 183.228 278.703 182.974 279.237 183.433C279.961 184.054 281.156 185.01 283.033 184.903C284.03 184.849 284.998 184.548 285.849 184.027C286.7 183.505 287.408 182.78 287.908 181.916" stroke="black" stroke-width="2" stroke-miterlimit="10"/>
<path d="M266.854 195.94L263.033 199.498C262.302 200.179 261.341 200.557 260.342 200.558H257.98C256.999 200.558 256.053 200.194 255.324 199.536L253.902 198.25" stroke="black" stroke-width="2" stroke-miterlimit="10"/>
<path d="M263.391 199.161C263.722 202.808 262.917 205.893 260.684 208.269" stroke="black" stroke-width="2" stroke-miterlimit="10"/>
<path d="M224.738 222.188C224.738 222.188 207.054 227.4 197.228 227.4C175.315 227.4 170.51 226.717 148.75 220.646" stroke="black" stroke-width="2" stroke-linejoin="round"/>
<path d="M148.721 219.538C148.928 221.55 148.169 231.544 146.858 238.638C148.943 239.36 148.721 241.817 148.721 241.817C146.871 241.927 144.424 241.96 142.559 241.969C140.553 241.984 138.602 241.311 137.032 240.061C135.463 238.812 134.369 237.061 133.935 235.102C133.921 235.038 133.908 234.972 133.894 234.895C132.743 227.048 132.53 223.179 134.134 214.113" stroke="black" stroke-width="2" stroke-linejoin="round"/>
<path d="M168.802 225.603C168.802 225.603 168.289 233.653 170.119 236.833C171.949 240.012 173.648 240.493 176.73 240.493C178.935 240.493 182.816 239.83 182.816 239.83C182.816 238.553 182.115 237.843 180.67 237.7C180.239 235.344 181.487 231.697 180.862 228.884" stroke="black" stroke-width="2" stroke-linejoin="round"/>
<path d="M224.738 216.696C224.738 216.696 227.148 221.128 221.656 227.004C216.164 232.881 212.6 241.457 216.212 245.22C219.824 248.984 231.677 246.763 231.677 246.763C231.677 246.763 231.422 244.161 229.863 243.968" stroke="black" stroke-width="2" stroke-linejoin="round"/>
<path d="M229.871 207.157C229.871 207.157 244.593 203.978 243.921 215.926C243.248 227.874 228.118 237.313 228.118 240.205" stroke="black" stroke-width="2" stroke-linejoin="round"/>
<path d="M243.635 213.131C243.635 213.131 246.038 211.682 253.892 211.682C261.745 211.682 259.365 216.011 258.653 216.443C256.726 217.648 256.026 218.099 249.379 218.099H243.627" stroke="black" stroke-width="2" stroke-linejoin="round"/>
<path d="M271.957 239.53C274.196 239.385 274.534 242.428 274.534 242.428C274.534 242.428 271.185 243.399 265.115 243.302C259.046 243.204 257.409 240.983 258.661 237.129C259.913 233.274 252.834 230.975 251.594 224.934C250.594 220.076 250.182 218.126 250.182 218.126" stroke="black" stroke-width="2" stroke-linejoin="round"/>
<path d="M262.439 205.607C262.439 205.607 264.397 205.905 264.59 212.852C264.782 219.799 265.832 221.908 269.119 228.365C270.307 230.708 271.76 232.583 272.089 235.692" stroke="black" stroke-width="2" stroke-linejoin="round"/>
<path d="M199.552 227.317C194.044 223.889 192.808 219.01 194.781 211.194" stroke="black" stroke-width="2" stroke-linejoin="round"/>
<path d="M173.835 226.408C171.819 224.396 170.432 220.954 170.993 214.547" stroke="black" stroke-width="2" stroke-linejoin="round"/>
<path d="M154.789 222.221C153.524 221.44 152.779 216.708 153.102 215.448" stroke="black" stroke-width="2" stroke-linejoin="round"/>
<path d="M258.97 176.863C261.096 176.863 262.82 175.139 262.82 173.013C262.82 170.886 261.096 169.162 258.97 169.162C256.843 169.162 255.119 170.886 255.119 173.013C255.119 175.139 256.843 176.863 258.97 176.863Z" fill="black"/>
<path d="M259.245 172.187C259.827 172.187 260.299 171.715 260.299 171.133C260.299 170.551 259.827 170.08 259.245 170.08C258.663 170.08 258.191 170.551 258.191 171.133C258.191 171.715 258.663 172.187 259.245 172.187Z" fill="white"/>
<path d="M261.031 172.371C261.259 172.371 261.443 172.187 261.443 171.959C261.443 171.732 261.259 171.547 261.031 171.547C260.804 171.547 260.619 171.732 260.619 171.959C260.619 172.187 260.804 172.371 261.031 172.371Z" fill="white"/>
<path d="M281.377 176.863C283.504 176.863 285.227 175.139 285.227 173.013C285.227 170.886 283.504 169.162 281.377 169.162C279.251 169.162 277.527 170.886 277.527 173.013C277.527 175.139 279.251 176.863 281.377 176.863Z" fill="black"/>
<path d="M281.653 172.187C282.235 172.187 282.706 171.715 282.706 171.133C282.706 170.551 282.235 170.08 281.653 170.08C281.071 170.08 280.599 170.551 280.599 171.133C280.599 171.715 281.071 172.187 281.653 172.187Z" fill="white"/>
<path d="M283.441 172.371C283.669 172.371 283.853 172.187 283.853 171.959C283.853 171.732 283.669 171.547 283.441 171.547C283.214 171.547 283.029 171.732 283.029 171.959C283.029 172.187 283.214 172.371 283.441 172.371Z" fill="white"/>
<path d="M267.343 180.02L268.562 181.239" stroke="black" stroke-width="2" stroke-miterlimit="10" stroke-linecap="round"/>
<path d="M274.443 180.02L273.547 181.288" stroke="black" stroke-width="2" stroke-miterlimit="10" stroke-linecap="round"/>
<path d="M217.015 179.02L226.09 179.691C227.378 179.786 228.663 179.469 229.759 178.787C230.856 178.104 231.707 177.09 232.19 175.892L236.881 164.265C237.314 163.191 237.432 162.016 237.221 160.877C237.011 159.739 236.481 158.684 235.692 157.836L230.103 151.82C229.484 151.155 228.724 150.636 227.879 150.302C227.034 149.968 226.125 149.827 225.218 149.889L210 150.945C209.139 151.004 208.301 151.245 207.541 151.653C206.781 152.061 206.116 152.625 205.59 153.308L199.132 161.702C198.198 162.917 197.756 164.439 197.893 165.966C198.031 167.492 198.739 168.911 199.875 169.939L209.285 178.447" stroke="black" stroke-width="2" stroke-linejoin="round"/>
<path d="M194.472 140.346L203.282 145.107C204.456 145.739 205.805 145.969 207.122 145.761L223.221 143.221" stroke="black" stroke-width="2" stroke-linejoin="round"/>
<path d="M181.729 147.231L193.508 148.382C193.991 148.43 194.455 148.598 194.856 148.872C195.257 149.146 195.583 149.517 195.803 149.95C196.024 150.383 196.132 150.864 196.118 151.349C196.104 151.835 195.968 152.309 195.723 152.729L190.898 160.951C190.596 161.463 190.144 161.869 189.604 162.116C189.063 162.363 188.46 162.437 187.875 162.329L175.95 160.112C175.5 160.027 175.076 159.837 174.714 159.556C174.352 159.276 174.061 158.914 173.866 158.499C173.671 158.084 173.577 157.63 173.591 157.172C173.606 156.714 173.729 156.266 173.95 155.865L177.78 148.972" stroke="black" stroke-width="2" stroke-linejoin="round"/>
<path d="M171.999 184.418L164.174 178.49C163.692 178.125 163.31 177.643 163.065 177.09C162.819 176.538 162.718 175.932 162.771 175.329L163.075 171.704C163.146 170.867 163.509 170.082 164.101 169.485C164.693 168.889 165.476 168.52 166.312 168.442L187.083 166.523C188.268 166.414 189.46 166.653 190.51 167.213C191.561 167.773 192.425 168.629 192.995 169.674L196.222 175.592C196.708 176.482 196.838 177.524 196.586 178.507C196.334 179.49 195.718 180.34 194.864 180.887L179.947 190.44" stroke="black" stroke-width="2" stroke-linejoin="round"/>
<path d="M158.848 210.529L146.221 201.069C145.494 200.525 144.973 199.752 144.742 198.875C144.51 197.997 144.582 197.067 144.946 196.236L149.456 185.886C149.678 185.379 150.001 184.922 150.407 184.546C150.813 184.169 151.292 183.88 151.814 183.697C152.337 183.514 152.891 183.441 153.443 183.482C153.995 183.523 154.533 183.678 155.023 183.936L170.324 192.009C171.187 192.464 171.928 193.119 172.484 193.92C173.041 194.721 173.398 195.643 173.524 196.611L174.127 201.204C174.219 201.927 174.074 202.661 173.714 203.295C173.355 203.93 172.799 204.431 172.131 204.723L165.907 207.441" stroke="black" stroke-width="2" stroke-linejoin="round"/>
<path d="M208.252 201.707L196.099 205.238C195.265 205.482 194.387 205.543 193.526 205.418L183.857 204.021C183.267 203.936 182.727 203.64 182.336 203.189C181.945 202.738 181.73 202.161 181.729 201.564V197.548C181.73 196.637 181.993 195.746 182.489 194.981C182.984 194.216 183.69 193.611 184.522 193.239L200.461 186.099C201.325 185.712 202.268 185.532 203.214 185.571L219.693 186.279C220.292 186.305 220.873 186.491 221.376 186.818C221.879 187.145 222.285 187.6 222.551 188.137C222.818 188.674 222.936 189.273 222.892 189.871C222.848 190.469 222.645 191.044 222.304 191.537L217.021 199.161" stroke="black" stroke-width="2" stroke-linejoin="round"/>
<path d="M129.837 198.683L137.728 194.031C139.042 193.257 140.018 192.017 140.462 190.558L143.673 180.02" stroke="black" stroke-width="2" stroke-linejoin="round"/>
<path d="M160.313 165.279L163.806 161.139C164.468 160.355 164.921 159.416 165.122 158.409L166.633 150.903" stroke="black" stroke-width="2" stroke-linejoin="round"/>
<path d="M145.681 168.726L156.536 169.746" stroke="black" stroke-width="2" stroke-linejoin="round"/>
<path d="M133.267 230.056C133.267 230.056 126.09 229.058 122.236 225.334C118.382 221.61 116.744 222.229 116.744 222.229" stroke="black" stroke-width="2" stroke-linejoin="round"/>
<path d="M112.987 222.862C112.987 222.862 100.01 226.524 104.707 238.76C110.104 252.836 131.617 255.527 151.114 255.527H264.254C271.179 255.527 286.61 252.72 292.841 240.209C298.314 229.223 287.908 223.494 283.414 228.05" stroke="black" stroke-width="2" stroke-linejoin="round"/>
<path d="M147.682 232.051H168.746" stroke="black" stroke-width="2" stroke-linejoin="round"/>
<path d="M180.98 232.051H217.839" stroke="black" stroke-width="2" stroke-linejoin="round"/>
<path d="M235.219 232.051H256.264" stroke="black" stroke-width="2" stroke-linejoin="round"/>
<path d="M270.4 230.71C270.4 230.71 274.847 231.244 277.834 230.184" stroke="black" stroke-width="2" stroke-linejoin="round"/>
<path d="M128.887 271.002C132.984 271.002 136.306 267.681 136.306 263.583C136.306 259.486 132.984 256.165 128.887 256.165C124.789 256.165 121.468 259.486 121.468 263.583C121.468 267.681 124.789 271.002 128.887 271.002Z" stroke="black" stroke-width="2" stroke-linejoin="round"/>
<path d="M145.985 255.523C145.985 256.197 145.852 256.864 145.594 257.486C145.337 258.108 144.959 258.674 144.482 259.15C144.006 259.626 143.441 260.004 142.818 260.262C142.196 260.52 141.529 260.652 140.855 260.652C140.182 260.652 139.515 260.52 138.892 260.262C138.27 260.004 137.705 259.626 137.228 259.15C136.752 258.674 136.374 258.108 136.116 257.486C135.859 256.864 135.726 256.197 135.726 255.523" stroke="black" stroke-width="2" stroke-linejoin="round"/>
<path d="M259.553 271.758C263.651 271.758 266.972 268.436 266.972 264.339C266.972 260.242 263.651 256.92 259.553 256.92C255.456 256.92 252.135 260.242 252.135 264.339C252.135 268.436 255.456 271.758 259.553 271.758Z" stroke="black" stroke-width="2" stroke-linejoin="round"/>
<path d="M252.714 255.523C252.714 256.883 252.174 258.188 251.212 259.15C250.25 260.112 248.945 260.652 247.585 260.652C246.224 260.652 244.919 260.112 243.957 259.15C242.996 258.188 242.455 256.883 242.455 255.523" stroke="black" stroke-width="2" stroke-linejoin="round"/>
</svg>
