<svg width="365" height="365" viewBox="0 0 365 365" fill="none" xmlns="http://www.w3.org/2000/svg">
<g opacity="0.6">
<path d="M123.096 239.068C126.708 239.068 129.637 236.14 129.637 232.527C129.637 228.915 126.708 225.986 123.096 225.986C119.484 225.986 116.555 228.915 116.555 232.527C116.555 236.14 119.484 239.068 123.096 239.068Z" fill="#8CE5B4"/>
<path d="M256.564 201.217C255.115 203.188 253.715 203.995 252.313 203.995C250.411 203.964 248.512 203.821 246.627 203.566C246.262 202.882 245.862 202.21 245.497 201.489C242.61 195.799 241.675 193.93 241.506 187.815C241.347 182.133 239.847 181.504 239.635 181.442C240.392 179.786 240.641 177.879 240.447 175.751L243.5 172.912L246.3 173.034C252.118 173.034 254.171 170.809 255.451 168.262C256.801 168.079 258.489 167.302 258.489 167.302C263.203 165.135 265.497 159.146 265.497 153.923C265.497 148.699 260.102 139.781 246.088 139.781C238.551 139.781 232.766 142.25 229.017 145.701C228.91 144.778 228.8 144.63 228.8 144.63C213.257 111.884 175.831 122.697 158.72 131.251C139.842 140.69 122.835 162.504 121.855 181.438C121.814 183.426 121.899 185.414 122.109 187.391C122.109 187.391 122.839 188.262 126.469 189.017C125.39 195.142 125.259 198.579 125.717 202.991C125.717 202.991 119.389 202.114 115.993 198.829C112.597 195.544 111.151 196.091 111.151 196.091C110.022 196.078 108.9 196.27 107.839 196.657C107.839 196.657 96.3963 199.887 100.539 210.673C104.056 219.843 115.347 223.53 127.94 224.829H127.89C127.89 228.215 129.914 229.978 132.413 229.978C134.853 229.978 136.835 227.82 136.926 225.393C138.441 225.435 139.954 225.453 141.452 225.453H221.987C221.987 226.653 222.464 227.803 223.312 228.651C224.16 229.499 225.31 229.976 226.51 229.976C227.709 229.976 228.859 229.499 229.707 228.651C230.556 227.803 231.032 226.653 231.032 225.453H241.203C247.307 225.453 260.913 222.981 266.406 211.948C271.233 202.249 260.524 197.202 256.564 201.217ZM157.03 203.136L138.811 203.048C139.269 199.157 139.492 195.779 139.375 194.689C146.998 196.816 152.26 198.192 157.045 199.069C157.041 199.261 156.939 201.051 157.03 203.136ZM203.659 200.305C202.767 201.261 201.944 202.28 201.197 203.353L167.834 203.194C167.822 202.779 167.772 202.366 167.686 201.96C167.686 201.96 167.528 201.13 167.334 200.338C171.386 200.591 175.994 200.652 182.117 200.652C190.78 200.652 206.373 196.056 206.373 196.056C205.94 197.301 205.113 198.741 203.659 200.305ZM216.815 203.428C219.553 200.325 222.194 196.593 223.029 192.478H228.101H228.959C229.141 193.669 229.492 195.781 230.054 198.484C230.485 200.577 231.709 202.159 232.974 203.517L216.815 203.428Z" fill="#8CE5B4"/>
<path d="M238.295 226.652C237.002 226.652 235.737 227.036 234.662 227.755C233.586 228.474 232.748 229.495 232.253 230.69C231.757 231.885 231.628 233.201 231.88 234.469C232.133 235.738 232.756 236.904 233.67 237.818C234.585 238.733 235.751 239.356 237.019 239.608C238.288 239.861 239.603 239.731 240.798 239.236C241.994 238.741 243.015 237.903 243.734 236.827C244.453 235.752 244.836 234.487 244.836 233.193C244.836 231.459 244.147 229.795 242.92 228.568C241.694 227.342 240.03 226.652 238.295 226.652Z" fill="#8CE5B4"/>
</g>
<path d="M122.7 187.227C122.7 187.227 127.08 192.444 167.719 188.431C186.482 186.579 202.482 180.743 213.08 172.749C221.871 166.119 225.364 160.385 225.364 160.385" stroke="black" stroke-width="2" stroke-linejoin="round"/>
<path d="M229.388 144.458C213.843 111.714 176.419 122.525 159.308 131.081C140.432 140.525 123.427 162.334 122.458 181.272" stroke="black" stroke-width="2" stroke-linejoin="round"/>
<path d="M229.388 166.5C229.388 166.5 224.674 163.188 224.674 155.671C224.674 148.154 232.658 139.611 246.672 139.611C260.687 139.611 266.085 148.535 266.085 153.76C266.085 158.985 263.791 164.971 259.077 167.137" stroke="black" stroke-width="2" stroke-miterlimit="10"/>
<path d="M256.484 167.137C255.206 170.057 253.427 172.871 246.886 172.871C240.175 172.871 239.155 171.258 236.863 168.285" stroke="black" stroke-width="2" stroke-miterlimit="10"/>
<path d="M233.146 162.743C235.058 164.203 237.828 163.856 239.58 161.722C240.325 160.81 241.013 161.595 241.427 161.978C241.71 162.237 243.966 164.339 245.38 165.657C246.117 166.343 247.086 166.724 248.092 166.723C248.678 166.723 249.256 166.594 249.786 166.345C250.316 166.096 250.784 165.734 251.158 165.283C252.332 163.863 253.965 161.89 254.078 161.753C254.25 161.542 254.533 161.317 255.004 161.722C255.642 162.27 256.695 163.113 258.351 163.018C259.229 162.971 260.083 162.706 260.833 162.246C261.584 161.786 262.208 161.146 262.648 160.385" stroke="black" stroke-width="2" stroke-miterlimit="10"/>
<path d="M244.086 172.749L240.718 175.886C240.073 176.486 239.225 176.82 238.345 176.821H236.263C235.398 176.82 234.563 176.499 233.921 175.919L232.667 174.786" stroke="black" stroke-width="2" stroke-miterlimit="10"/>
<path d="M241.033 175.589C241.325 178.804 240.615 181.524 238.646 183.619" stroke="black" stroke-width="2" stroke-miterlimit="10"/>
<path d="M206.955 195.89C206.955 195.89 191.364 200.485 182.701 200.485C163.381 200.485 159.146 199.883 139.961 194.53" stroke="black" stroke-width="2" stroke-linejoin="round"/>
<path d="M139.935 193.554C140.118 195.328 139.448 204.139 138.293 210.393C140.131 211.03 139.935 213.197 139.935 213.197C138.304 213.293 136.147 213.322 134.502 213.33C132.734 213.344 131.014 212.75 129.63 211.648C128.246 210.547 127.282 209.003 126.899 207.276C126.887 207.22 126.876 207.161 126.863 207.094C125.848 200.175 125.66 196.764 127.075 188.771" stroke="black" stroke-width="2" stroke-linejoin="round"/>
<path d="M157.64 198.901C157.64 198.901 157.187 205.999 158.8 208.802C160.414 211.605 161.912 212.028 164.63 212.028C166.573 212.028 169.995 211.444 169.995 211.444C169.995 210.318 169.376 209.692 168.102 209.567C167.723 207.49 168.823 204.274 168.272 201.794" stroke="black" stroke-width="2" stroke-linejoin="round"/>
<path d="M206.955 191.048C206.955 191.048 209.079 194.956 204.238 200.137C199.396 205.318 196.253 212.879 199.438 216.197C202.623 219.515 213.072 217.556 213.072 217.556C213.072 217.556 212.848 215.262 211.474 215.093" stroke="black" stroke-width="2" stroke-linejoin="round"/>
<path d="M211.481 182.639C211.481 182.639 224.46 179.836 223.867 190.369C223.274 200.903 209.935 209.225 209.935 211.775" stroke="black" stroke-width="2" stroke-linejoin="round"/>
<path d="M223.615 187.906C223.615 187.906 225.734 186.628 232.658 186.628C239.582 186.628 237.484 190.444 236.856 190.826C235.157 191.888 234.54 192.286 228.68 192.286H223.608" stroke="black" stroke-width="2" stroke-linejoin="round"/>
<path d="M248.585 211.18C250.56 211.052 250.857 213.735 250.857 213.735C250.857 213.735 247.904 214.591 242.553 214.505C237.203 214.419 235.759 212.461 236.863 209.063C237.967 205.665 231.726 203.637 230.633 198.312C229.751 194.028 229.388 192.309 229.388 192.309" stroke="black" stroke-width="2" stroke-linejoin="round"/>
<path d="M240.194 181.272C240.194 181.272 241.92 181.535 242.09 187.659C242.26 193.784 243.185 195.644 246.083 201.336C247.131 203.402 248.412 205.055 248.702 207.796" stroke="black" stroke-width="2" stroke-linejoin="round"/>
<path d="M184.75 200.412C179.894 197.39 178.804 193.089 180.543 186.197" stroke="black" stroke-width="2" stroke-linejoin="round"/>
<path d="M162.077 199.611C160.299 197.837 159.076 194.802 159.571 189.154" stroke="black" stroke-width="2" stroke-linejoin="round"/>
<path d="M145.285 195.919C144.17 195.231 143.513 191.059 143.797 189.948" stroke="black" stroke-width="2" stroke-linejoin="round"/>
<path d="M237.135 155.93C239.01 155.93 240.529 154.41 240.529 152.535C240.529 150.661 239.01 149.141 237.135 149.141C235.26 149.141 233.74 150.661 233.74 152.535C233.74 154.41 235.26 155.93 237.135 155.93Z" fill="black"/>
<path d="M237.378 151.807C237.891 151.807 238.307 151.391 238.307 150.878C238.307 150.365 237.891 149.949 237.378 149.949C236.865 149.949 236.449 150.365 236.449 150.878C236.449 151.391 236.865 151.807 237.378 151.807Z" fill="white"/>
<path d="M238.953 151.97C239.153 151.97 239.316 151.807 239.316 151.606C239.316 151.406 239.153 151.243 238.953 151.243C238.752 151.243 238.59 151.406 238.59 151.606C238.59 151.807 238.752 151.97 238.953 151.97Z" fill="white"/>
<path d="M256.891 155.93C258.765 155.93 260.285 154.41 260.285 152.535C260.285 150.661 258.765 149.141 256.891 149.141C255.016 149.141 253.496 150.661 253.496 152.535C253.496 154.41 255.016 155.93 256.891 155.93Z" fill="black"/>
<path d="M257.133 151.807C257.646 151.807 258.062 151.391 258.062 150.878C258.062 150.365 257.646 149.949 257.133 149.949C256.62 149.949 256.204 150.365 256.204 150.878C256.204 151.391 256.62 151.807 257.133 151.807Z" fill="white"/>
<path d="M258.71 151.97C258.911 151.97 259.073 151.807 259.073 151.606C259.073 151.406 258.911 151.243 258.71 151.243C258.51 151.243 258.347 151.406 258.347 151.606C258.347 151.807 258.51 151.97 258.71 151.97Z" fill="white"/>
<path d="M244.517 158.713L245.592 159.788" stroke="black" stroke-width="2" stroke-miterlimit="10" stroke-linecap="round"/>
<path d="M250.777 158.713L249.987 159.832" stroke="black" stroke-width="2" stroke-miterlimit="10" stroke-linecap="round"/>
<path d="M200.146 157.831L208.147 158.423C209.282 158.507 210.415 158.228 211.382 157.626C212.349 157.024 213.099 156.13 213.525 155.074L217.66 144.823C218.042 143.876 218.146 142.84 217.961 141.836C217.775 140.832 217.308 139.902 216.613 139.154L211.685 133.851C211.14 133.264 210.47 132.807 209.724 132.512C208.979 132.218 208.178 132.093 207.378 132.148L193.961 133.079C193.202 133.131 192.464 133.344 191.793 133.704C191.123 134.063 190.537 134.56 190.074 135.163L184.38 142.564C183.556 143.635 183.166 144.977 183.288 146.322C183.409 147.668 184.033 148.919 185.035 149.825L193.331 157.326" stroke="black" stroke-width="2" stroke-linejoin="round"/>
<path d="M180.272 123.735L188.039 127.932C189.074 128.49 190.263 128.693 191.424 128.509L205.617 126.27" stroke="black" stroke-width="2" stroke-linejoin="round"/>
<path d="M169.037 129.805L179.421 130.82C179.847 130.862 180.256 131.011 180.61 131.252C180.963 131.494 181.251 131.821 181.445 132.202C181.639 132.584 181.735 133.008 181.722 133.436C181.71 133.864 181.59 134.282 181.374 134.652L177.12 141.901C176.854 142.352 176.456 142.711 175.979 142.928C175.502 143.146 174.97 143.211 174.455 143.116L163.941 141.162C163.545 141.087 163.171 140.919 162.852 140.672C162.532 140.424 162.276 140.105 162.104 139.74C161.932 139.374 161.849 138.973 161.862 138.569C161.875 138.166 161.983 137.771 162.179 137.417L165.555 131.34" stroke="black" stroke-width="2" stroke-linejoin="round"/>
<path d="M160.458 162.591L153.559 157.364C153.134 157.042 152.798 156.618 152.581 156.13C152.365 155.643 152.276 155.109 152.322 154.577L152.59 151.382C152.653 150.644 152.973 149.951 153.495 149.425C154.017 148.9 154.707 148.574 155.444 148.506L173.757 146.814C174.802 146.717 175.852 146.929 176.779 147.422C177.705 147.916 178.466 148.67 178.969 149.592L181.814 154.809C182.242 155.594 182.357 156.513 182.135 157.379C181.913 158.246 181.37 158.995 180.617 159.478L167.466 167.9" stroke="black" stroke-width="2" stroke-linejoin="round"/>
<path d="M148.863 185.612L137.731 177.271C137.091 176.792 136.631 176.11 136.427 175.336C136.223 174.563 136.286 173.743 136.607 173.01L140.583 163.885C140.779 163.438 141.064 163.035 141.422 162.703C141.779 162.371 142.202 162.117 142.662 161.955C143.123 161.794 143.612 161.729 144.099 161.766C144.585 161.802 145.059 161.938 145.491 162.166L158.981 169.283C159.742 169.684 160.395 170.262 160.886 170.968C161.377 171.674 161.691 172.488 161.803 173.34L162.334 177.39C162.415 178.028 162.287 178.675 161.97 179.234C161.653 179.793 161.163 180.235 160.574 180.493L155.087 182.889" stroke="black" stroke-width="2" stroke-linejoin="round"/>
<path d="M192.421 177.833L181.706 180.947C180.97 181.162 180.196 181.216 179.438 181.106L170.913 179.874C170.392 179.798 169.916 179.538 169.571 179.14C169.227 178.742 169.037 178.234 169.037 177.707V174.167C169.037 173.364 169.27 172.578 169.706 171.903C170.143 171.229 170.766 170.696 171.499 170.367L185.551 164.073C186.313 163.732 187.144 163.572 187.979 163.608L202.507 164.232C203.035 164.254 203.548 164.418 203.991 164.706C204.434 164.995 204.792 165.396 205.027 165.87C205.262 166.343 205.366 166.871 205.327 167.398C205.289 167.926 205.11 168.433 204.809 168.867L200.151 175.589" stroke="black" stroke-width="2" stroke-linejoin="round"/>
<path d="M123.286 175.167L130.243 171.066C131.402 170.383 132.262 169.291 132.654 168.004L135.484 158.713" stroke="black" stroke-width="2" stroke-linejoin="round"/>
<path d="M150.156 145.717L153.234 142.067C153.818 141.376 154.218 140.548 154.395 139.66L155.727 133.042" stroke="black" stroke-width="2" stroke-linejoin="round"/>
<path d="M137.255 148.756L146.825 149.655" stroke="black" stroke-width="2" stroke-linejoin="round"/>
<path d="M126.31 202.827C126.31 202.827 119.983 201.947 116.585 198.664C113.187 195.381 111.743 195.927 111.743 195.927" stroke="black" stroke-width="2" stroke-linejoin="round"/>
<path d="M108.43 196.485C108.43 196.485 96.9896 199.713 101.13 210.501C105.888 222.911 124.855 225.283 142.045 225.283H241.794C247.899 225.283 261.504 222.809 266.997 211.778C271.823 202.093 262.648 197.042 258.686 201.058" stroke="black" stroke-width="2" stroke-linejoin="round"/>
<path d="M139.019 204.586H157.59" stroke="black" stroke-width="2" stroke-linejoin="round"/>
<path d="M168.376 204.586H200.872" stroke="black" stroke-width="2" stroke-linejoin="round"/>
<path d="M216.195 204.586H234.75" stroke="black" stroke-width="2" stroke-linejoin="round"/>
<path d="M247.213 203.403C247.213 203.403 251.133 203.874 253.766 202.94" stroke="black" stroke-width="2" stroke-linejoin="round"/>
<path d="M122.448 238.927C126.061 238.927 128.989 235.999 128.989 232.386C128.989 228.774 126.061 225.846 122.448 225.846C118.836 225.846 115.907 228.774 115.907 232.386C115.907 235.999 118.836 238.927 122.448 238.927Z" stroke="black" stroke-width="2" stroke-linejoin="round"/>
<path d="M137.523 225.28C137.523 225.874 137.406 226.462 137.179 227.01C136.951 227.559 136.618 228.058 136.198 228.478C135.778 228.898 135.28 229.231 134.731 229.458C134.183 229.685 133.595 229.802 133.001 229.802C132.407 229.802 131.819 229.685 131.27 229.458C130.721 229.231 130.223 228.898 129.803 228.478C129.383 228.058 129.05 227.559 128.823 227.01C128.595 226.462 128.478 225.874 128.478 225.28" stroke="black" stroke-width="2" stroke-linejoin="round"/>
<path d="M237.65 239.593C241.262 239.593 244.19 236.665 244.19 233.053C244.19 229.44 241.262 226.512 237.65 226.512C234.037 226.512 231.109 229.44 231.109 233.053C231.109 236.665 234.037 239.593 237.65 239.593Z" stroke="black" stroke-width="2" stroke-linejoin="round"/>
<path d="M231.62 225.28C231.62 226.479 231.143 227.629 230.295 228.478C229.447 229.326 228.297 229.802 227.098 229.802C225.898 229.802 224.748 229.326 223.9 228.478C223.052 227.629 222.575 226.479 222.575 225.28" stroke="black" stroke-width="2" stroke-linejoin="round"/>
</svg>
