<svg width="40" height="40" viewBox="0 0 40 40" fill="none" xmlns="http://www.w3.org/2000/svg">
<path d="M33.0757 19.3306C33.0757 19.9057 32.8473 20.4573 32.4406 20.8639C32.034 21.2706 31.4824 21.499 30.9073 21.499H22.1684V30.2401C22.1438 30.7981 21.9048 31.3251 21.5012 31.7113C21.0976 32.0974 20.5606 32.313 20.002 32.313C19.4435 32.313 18.9065 32.0974 18.5029 31.7113C18.0993 31.3251 17.8603 30.7981 17.8357 30.2401V21.499H9.09047C8.80016 21.5081 8.511 21.4587 8.24014 21.3539C7.96927 21.249 7.72223 21.0908 7.51368 20.8887C7.30513 20.6865 7.13931 20.4445 7.02608 20.1771C6.91284 19.9096 6.85449 19.6221 6.85449 19.3317C6.85449 19.0412 6.91284 18.7537 7.02608 18.4863C7.13931 18.2188 7.30513 17.9768 7.51368 17.7746C7.72223 17.5725 7.96927 17.4143 8.24014 17.3095C8.511 17.2046 8.80016 17.1552 9.09047 17.1643H17.8336V8.42323C17.8582 7.86521 18.0972 7.33821 18.5008 6.95205C18.9044 6.56588 19.4414 6.35034 19.9999 6.35034C20.5585 6.35034 21.0955 6.56588 21.4991 6.95205C21.9027 7.33821 22.1417 7.86521 22.1663 8.42323V17.1643H30.9094C31.4842 17.1648 32.0352 17.3935 32.4414 17.8001C32.8476 18.2067 33.0757 18.7559 33.0757 19.3306Z" fill="#095F3E"/>
</svg>
