<svg width="35" height="34" viewBox="0 0 35 34" fill="none" xmlns="http://www.w3.org/2000/svg">
<path d="M1.19995 10.7865C1.19995 8.16685 1.19995 6.85704 1.89798 6.09309C2.1458 5.82185 2.44701 5.60475 2.78269 5.45542C3.72818 5.0348 4.97078 5.449 7.45597 6.27739C9.3533 6.90984 10.302 7.22607 11.2606 7.19332C11.6126 7.1813 11.9626 7.13444 12.3055 7.05339C13.2389 6.83275 14.0709 6.27807 15.7351 5.16868L18.1925 3.5303C20.3242 2.10923 21.39 1.39871 22.6135 1.23487C23.8369 1.07103 25.052 1.47609 27.4824 2.28623L29.5532 2.97645C31.3132 3.56313 32.1932 3.85649 32.6967 4.55485C33.2 5.25321 33.2 6.18084 33.2 8.03609V22.4866C33.2 25.1062 33.2 26.416 32.502 27.1799C32.2542 27.4512 31.9528 27.6683 31.6172 27.8176C30.6718 28.2382 29.4291 27.824 26.944 26.9956C25.0465 26.3632 24.0979 26.047 23.1393 26.0797C22.7873 26.0918 22.4373 26.1385 22.0945 26.2196C21.161 26.4402 20.329 26.9949 18.6648 28.1044L16.2074 29.7426C14.0757 31.1638 13.0099 31.8743 11.7865 32.0381C10.563 32.202 9.34784 31.7968 6.91744 30.9867L4.84674 30.2966C3.08669 29.7099 2.20665 29.4166 1.70331 28.7181C1.19995 28.0198 1.19995 27.0921 1.19995 25.2368V10.7865Z" stroke="#E8E2D5" stroke-width="2.4"/>
<path d="M11.8665 7.10522V31.7476" stroke="#E8E2D5" stroke-width="2.4"/>
<path d="M22.5334 1.25806V26.1469" stroke="#E8E2D5" stroke-width="2.4"/>
</svg>
