<svg width="16" height="16" viewBox="0 0 16 16" fill="none" xmlns="http://www.w3.org/2000/svg">
<path d="M6 7.75024L9.5 10.8614M9.5 7.75024L6 10.8614M13 3.08358L12.2992 12.4269C12.2379 13.2452 12.2072 13.6544 12.0084 13.9647C11.8333 14.2378 11.5692 14.4574 11.251 14.5945C10.8895 14.7502 10.4281 14.7502 9.50543 14.7502H5.99455C5.07186 14.7502 4.61052 14.7502 4.24903 14.5945C3.93077 14.4574 3.66672 14.2378 3.49165 13.9647C3.29281 13.6544 3.26212 13.2452 3.20075 12.4269L2.5 3.08358M0.75 3.08358H14.75M11.25 3.08358L11.0132 2.45208C10.7837 1.84011 10.6689 1.53412 10.4561 1.3079C10.2682 1.10812 10.0268 0.953493 9.75419 0.858184C9.4454 0.750244 9.08262 0.750244 8.3569 0.750244H7.1431C6.41738 0.750244 6.0546 0.750244 5.74582 0.858184C5.47318 0.953493 5.23182 1.10812 5.04388 1.3079C4.83104 1.53412 4.71631 1.84011 4.48681 2.45208L4.25 3.08358" stroke="#953630" stroke-width="1.5" stroke-linecap="round" stroke-linejoin="round"/>
</svg>
