<svg width="37" height="59" viewBox="0 0 37 59" fill="none" xmlns="http://www.w3.org/2000/svg">
<path d="M26.3645 7.5719L27.8921 7.14026C28.5092 6.96604 29.0741 6.64318 29.5375 6.19995L33.5773 2.33562C33.6366 2.2786 33.6838 2.21022 33.716 2.13457C33.7483 2.05892 33.765 1.97755 33.7651 1.89531V1.36622C33.7652 1.18097 33.7002 1.00157 33.5815 0.859361C33.4628 0.717149 33.2979 0.621157 33.1156 0.588149C31.036 0.212635 28.7018 0.363656 26.84 1.36265C24.4063 2.69787 23.8012 3.83206 23.3344 5.07748L20.8905 11.5939C20.592 12.3904 20.1496 13.1252 19.5853 13.7618C18.2027 15.322 15.3583 18.5322 12.6929 21.5379C8.71682 26.022 5.39071 31.0428 2.81219 36.4528C2.76866 36.544 2.72495 36.6355 2.68107 36.7273C-0.23784 42.8498 -0.52917 51.5265 2.82189 55.4331C5.31579 58.3413 9.43421 59.2021 12.8618 57.6525C16.2894 56.103 17.6542 52.6204 16.2868 49.3912C15.8383 48.3322 15.6907 47.1698 15.8605 46.0323C16.0303 44.8947 16.5108 43.8261 17.2491 42.9442L17.7037 42.4014" stroke="#FAF6E8" stroke-width="0.8" stroke-miterlimit="10"/>
<path d="M27.8919 7.13818C27.316 8.0148 27.0093 9.04086 27.0098 10.0897V12.45" stroke="#FAF6E8" stroke-width="0.8" stroke-miterlimit="10"/>
<path d="M20.9895 11.3267L19.3058 10.4869C19.2418 10.4546 19.1852 10.4093 19.1397 10.3539C19.0942 10.2985 19.0608 10.2342 19.0416 10.1652C19.0224 10.0961 19.0178 10.0238 19.0282 9.95284C19.0385 9.8819 19.0636 9.8139 19.1017 9.75321L20.2844 7.85676C20.4264 7.62923 20.5218 7.37578 20.565 7.11111C20.6083 6.84643 20.5986 6.5758 20.5364 6.31491L19.6665 2.6516C19.6402 2.53828 19.5818 2.43495 19.4983 2.35398C19.4147 2.27301 19.3096 2.21783 19.1956 2.19506C19.0815 2.17228 18.9633 2.18288 18.855 2.22557C18.7468 2.26827 18.6532 2.34125 18.5854 2.43578C18.236 2.9232 18.0039 3.48482 17.9075 4.07675C17.811 4.66868 17.8527 5.27491 18.0293 5.84806L18.5619 7.57206L17.1691 9.60015C16.9478 9.92295 16.8419 10.311 16.8685 10.7015C16.8952 11.0919 17.0529 11.462 17.316 11.7517L18.3578 12.8987" stroke="#FAF6E8" stroke-width="0.8" stroke-miterlimit="10"/>
<path d="M28.7598 4.20958C29.1746 4.20958 29.5108 3.87333 29.5108 3.45855C29.5108 3.04377 29.1746 2.70752 28.7598 2.70752C28.345 2.70752 28.0088 3.04377 28.0088 3.45855C28.0088 3.87333 28.345 4.20958 28.7598 4.20958Z" stroke="black" stroke-width="0.2" stroke-miterlimit="10"/>
<path d="M28.7598 4.20958C29.1746 4.20958 29.5108 3.87333 29.5108 3.45855C29.5108 3.04377 29.1746 2.70752 28.7598 2.70752C28.345 2.70752 28.0088 3.04377 28.0088 3.45855C28.0088 3.87333 28.345 4.20958 28.7598 4.20958Z" fill="black"/>
<path d="M28.8135 3.2977C28.9271 3.2977 29.0191 3.20565 29.0191 3.09209C29.0191 2.97853 28.9271 2.88647 28.8135 2.88647C28.7 2.88647 28.6079 2.97853 28.6079 3.09209C28.6079 3.20565 28.7 3.2977 28.8135 3.2977Z" fill="white"/>
<path d="M29.1624 3.33359C29.2069 3.33359 29.243 3.2975 29.243 3.25298C29.243 3.20846 29.2069 3.17236 29.1624 3.17236C29.1179 3.17236 29.0818 3.20846 29.0818 3.25298C29.0818 3.2975 29.1179 3.33359 29.1624 3.33359Z" fill="white"/>
<path d="M26.6865 17.0618C25.1243 21.8199 22.0025 25.9118 17.8262 28.6757" stroke="#FAF6E8" stroke-width="0.8" stroke-miterlimit="10"/>
<path d="M31.084 14.5618L30.5125 16.4347C30.4448 16.6568 30.3335 16.8632 30.1851 17.0418C30.0368 17.2204 29.8543 17.3677 29.6484 17.475C29.4425 17.5824 29.2173 17.6476 28.9859 17.667C28.7546 17.6864 28.5216 17.6594 28.3008 17.5878L24.9609 16.5006" stroke="#FAF6E8" stroke-width="0.8" stroke-miterlimit="10"/>
<path d="M26.0569 13.7194L28.9059 15.5398C28.9377 15.5601 28.9734 15.5733 29.0108 15.5785C29.0481 15.5837 29.0861 15.5807 29.1222 15.5699C29.1583 15.559 29.1916 15.5405 29.2199 15.5156C29.2481 15.4907 29.2707 15.4599 29.286 15.4255L30.4845 12.7372C30.7219 12.204 31.1341 11.7678 31.6529 11.5005L34.8218 9.87135C34.9324 9.81471 35.0561 9.78844 35.1802 9.79524C35.3042 9.80204 35.4243 9.84165 35.5281 9.91003C35.6318 9.97842 35.7156 10.0731 35.7708 10.1845C35.826 10.2958 35.8506 10.4198 35.8422 10.5438C35.7838 11.3959 35.454 12.2068 34.9012 12.8578C34.3484 13.5088 33.6016 13.9655 32.7702 14.1612" stroke="#FAF6E8" stroke-width="0.8" stroke-miterlimit="10"/>
<path d="M15.3709 35.5098L16.8459 37.7864C16.9495 37.9462 17.0102 38.13 17.0221 38.3201C17.034 38.5102 16.9968 38.7001 16.914 38.8716C16.8312 39.0432 16.7056 39.1905 16.5494 39.2994C16.3932 39.4083 16.2115 39.4752 16.022 39.4935L14.0505 39.6843C13.9057 39.6983 13.7596 39.6798 13.6229 39.6301C13.4861 39.5804 13.3622 39.5009 13.2601 39.3973C13.158 39.2936 13.0803 39.1685 13.0326 39.0311C12.985 38.8936 12.9686 38.7473 12.9847 38.6027L13.2908 35.8552C13.3209 35.5839 13.4173 35.3242 13.5716 35.0991C13.7259 34.874 13.9334 34.6903 14.1755 34.5644L16.3776 33.4179C16.4657 33.3715 16.5395 33.302 16.5911 33.2168C16.6427 33.1316 16.6702 33.0339 16.6706 32.9343C16.6709 32.8347 16.6442 32.7369 16.5932 32.6513C16.5422 32.5657 16.4689 32.4956 16.3811 32.4485L12.8525 30.5781" stroke="#FAF6E8" stroke-width="0.8" stroke-miterlimit="10"/>
<path d="M16.0679 28.1094L19.1802 30.9895C19.3835 31.1778 19.5382 31.4125 19.6312 31.6735C19.7242 31.9345 19.7527 32.2142 19.7142 32.4886C19.6757 32.763 19.5714 33.024 19.4102 33.2494C19.2489 33.4748 19.0356 33.6578 18.7883 33.7829" stroke="#FAF6E8" stroke-width="0.8" stroke-miterlimit="10"/>
<path d="M10.6375 22.3347L10.4763 21.3286C10.4687 21.2817 10.45 21.2374 10.4215 21.1993C10.3931 21.1613 10.3559 21.1307 10.3131 21.1102C10.2702 21.0897 10.2231 21.0799 10.1756 21.0815C10.1281 21.0832 10.0818 21.0964 10.0406 21.1199L8.75738 21.8506C8.53777 22.022 8.26432 22.1098 7.98595 22.0981C7.70757 22.0864 7.44243 21.9761 7.23797 21.7868L5.96245 20.6133C5.29293 19.9951 4.86324 19.1602 4.74917 18.2561C4.63511 17.352 4.84399 16.4366 5.33897 15.6714C5.43686 15.5201 5.57538 15.3993 5.73868 15.323C5.90197 15.2467 6.08345 15.2179 6.26236 15.2398C6.44126 15.2618 6.61037 15.3337 6.75033 15.4473C6.89029 15.5609 6.99545 15.7116 7.05379 15.8821L8.24156 19.3516C8.27357 19.4452 8.32591 19.5307 8.39482 19.6018C8.46372 19.6728 8.5475 19.7278 8.64014 19.7627C8.73278 19.7976 8.832 19.8116 8.93068 19.8037C9.02937 19.7958 9.12507 19.7661 9.21095 19.7169L10.71 18.8607C10.923 18.7388 11.1755 18.7055 11.4129 18.7679C11.6503 18.8303 11.8538 18.9835 11.9794 19.1944L13.1018 21.0776" stroke="#FAF6E8" stroke-width="0.8" stroke-miterlimit="10"/>
</svg>
