<svg width="25" height="41" viewBox="0 0 25 41" fill="none" xmlns="http://www.w3.org/2000/svg">
<path d="M24.1761 6.49792L22.0023 7.61543C21.6463 7.79848 21.3635 8.09751 21.2005 8.4631L20.3787 10.3072C20.3682 10.3308 20.3527 10.3519 20.3333 10.369C20.3139 10.3861 20.2911 10.3988 20.2663 10.4062C20.2415 10.4136 20.2154 10.4156 20.1898 10.4119C20.1642 10.4083 20.1397 10.3992 20.118 10.3852L18.8349 9.56555L18.8962 5.88579L19.4211 4.62234C19.8443 4.50261 20.2316 4.28116 20.5495 3.97731L23.321 1.32616C23.3618 1.28717 23.3942 1.24034 23.4163 1.1885C23.4384 1.13665 23.4499 1.08085 23.4498 1.02447V0.662586C23.4499 0.535553 23.4053 0.412541 23.3239 0.315046C23.2424 0.217551 23.1293 0.151773 23.0043 0.129205C21.5778 -0.128385 19.9766 -0.025138 18.6995 0.660487C17.03 1.57605 16.6149 2.35442 16.2947 3.20874L14.6813 7.51113L13.534 6.9193C13.4899 6.89729 13.451 6.8663 13.4196 6.82834C13.3882 6.79038 13.3651 6.74627 13.3517 6.69885C13.3384 6.65143 13.3351 6.60174 13.3421 6.55298C13.349 6.50421 13.3661 6.45744 13.3923 6.41567L14.2035 5.11512C14.3009 4.95904 14.3664 4.78518 14.396 4.60363C14.4257 4.42207 14.419 4.23642 14.3764 4.05746L13.7814 1.54455C13.7634 1.46682 13.7233 1.39594 13.666 1.34039C13.6087 1.28485 13.5366 1.247 13.4584 1.23138C13.3801 1.21576 13.299 1.22303 13.2248 1.25231C13.1506 1.2816 13.0863 1.33166 13.0398 1.39651C12.8001 1.73085 12.6409 2.1161 12.5747 2.52215C12.5086 2.9282 12.5372 3.34406 12.6583 3.73722L13.0227 4.91843L12.0672 6.30963C11.9153 6.53099 11.8426 6.79713 11.8607 7.06497C11.8789 7.33282 11.9869 7.5867 12.1673 7.78552L13.5753 9.33211C12.6356 10.3943 10.9291 12.3189 9.27712 14.1829L8.50714 12.8915C8.421 12.7468 8.28146 12.6417 8.11859 12.5989C7.95572 12.5561 7.78255 12.579 7.63638 12.6626L6.60812 13.2499C6.54917 13.2836 6.4835 13.3039 6.41581 13.3092C6.34811 13.3146 6.28006 13.305 6.21653 13.281C6.15299 13.257 6.09554 13.2193 6.04828 13.1705C6.00102 13.1218 5.96512 13.0632 5.94314 12.9989L5.12837 10.619C5.08832 10.502 5.01615 10.3987 4.92012 10.3208C4.82409 10.243 4.70808 10.1937 4.58536 10.1786C4.46264 10.1636 4.33817 10.1834 4.22617 10.2358C4.11418 10.2881 4.01919 10.371 3.95207 10.4748C3.61252 10.9997 3.46924 11.6276 3.54748 12.2478C3.62573 12.868 3.92048 13.4407 4.37975 13.8648L5.25472 14.6698C5.39471 14.7997 5.57633 14.8756 5.76714 14.8839C5.95794 14.8922 6.14549 14.8325 6.29628 14.7153L7.1765 14.2137C7.20482 14.1976 7.23663 14.1886 7.26921 14.1874C7.30179 14.1863 7.33416 14.193 7.36354 14.2072C7.39293 14.2213 7.41846 14.2423 7.43794 14.2684C7.45741 14.2946 7.47026 14.325 7.47538 14.3572L7.73647 15.9864L7.77637 15.9395C5.58173 18.6395 3.71592 21.5909 2.21823 24.7315C2.18848 24.7945 2.15838 24.8572 2.12828 24.9202C0.126006 29.12 -0.0738361 35.0698 2.22488 37.7514C3.93562 39.7463 6.76071 40.3368 9.11192 39.2742C11.4631 38.2116 12.3994 35.8223 11.4614 33.6072C11.1536 32.8807 11.0524 32.0834 11.1689 31.3031C11.2853 30.5227 11.615 29.7897 12.1215 29.1848L12.4333 28.8124C12.4333 28.8124 11.0757 28.9552 10.2984 30.5595C9.02968 33.1844 11.4267 34.9606 9.61766 36.8502C7.96222 38.5791 5.28412 38.0492 4.09976 36.6846C3.25349 35.7099 2.50277 32.3504 3.98951 28.425C5.5424 24.3252 8.64049 22.8903 10.8353 21.6268C10.8353 21.6268 11.5002 21.9596 11.5769 22.0174C11.6294 22.0576 11.8863 22.4104 11.5209 22.6474C11.299 22.7923 10.9508 22.9624 10.5994 23.1269C10.0369 23.3911 9.46751 23.7019 9.40346 24.3193C9.39926 24.3581 9.24737 25.4532 9.19067 26.2526C9.15182 26.7986 9.72195 26.9823 9.92564 26.9456C10.115 26.9106 11.3011 26.8539 11.4624 26.7737C12.1309 26.4419 12.0063 25.9078 11.8439 25.644C11.468 25.0332 10.8073 24.0949 10.8321 24.0823C11.0194 23.9878 13.2152 22.9043 13.3625 22.78C14.3022 21.9855 13.5564 21.1001 13.5564 21.1001L12.0847 19.7215L12.5145 19.3932C13.6131 18.6747 14.5749 17.8574 15.3844 16.9317C16.8293 15.3438 17.9229 13.469 18.5938 11.4296L19.7011 11.789C19.8526 11.8381 20.0124 11.8565 20.1711 11.8432C20.3298 11.8299 20.4843 11.7851 20.6255 11.7115C20.7667 11.6379 20.8919 11.5369 20.9937 11.4144C21.0954 11.2919 21.1718 11.1504 21.2183 10.9981L21.6103 9.7129L22.7681 9.44061C23.3383 9.3064 23.8506 8.99306 24.2298 8.54651C24.6091 8.09996 24.8353 7.54368 24.8753 6.9592C24.881 6.87425 24.8641 6.78929 24.8263 6.71301C24.7885 6.63672 24.7311 6.57183 24.66 6.52494C24.5889 6.47806 24.5067 6.45086 24.4217 6.44611C24.3367 6.44136 24.2519 6.45924 24.1761 6.49792Z" fill="#FAF6E8"/>
<path d="M18.0609 5.33552L19.1087 5.03943C19.532 4.91993 19.9196 4.69845 20.2374 4.39441L23.0086 1.74361C23.0493 1.70449 23.0816 1.65759 23.1038 1.6057C23.1259 1.5538 23.1373 1.49798 23.1374 1.44157V1.07863C23.1375 0.951558 23.0929 0.828499 23.0115 0.730945C22.93 0.633392 22.8169 0.567545 22.6919 0.544903C21.2653 0.287312 19.6641 0.390908 18.387 1.07618C16.7176 1.9921 16.3025 2.77012 15.9823 3.62444L14.3058 8.09447C14.1011 8.64085 13.7976 9.14493 13.4106 9.58157C12.4621 10.6518 10.5109 12.8539 8.6826 14.9157C5.95513 17.9917 3.67353 21.4358 1.90475 25.1469C1.87489 25.2094 1.8449 25.2722 1.81481 25.3352C-0.18747 29.535 -0.387313 35.4869 1.9114 38.1668C3.62214 40.1617 6.44723 40.7521 8.79845 39.6892C11.1497 38.6263 12.0859 36.2373 11.1479 34.0222C10.8402 33.2957 10.739 32.4984 10.8555 31.7181C10.9719 30.9378 11.3015 30.2047 11.808 29.5998L12.1198 29.2274" stroke="black" stroke-width="0.5" stroke-miterlimit="10"/>
<path d="M19.109 5.03809C18.714 5.63941 18.5036 6.34326 18.5039 7.06276V8.6818" stroke="black" stroke-width="0.5" stroke-miterlimit="10"/>
<path d="M14.3741 7.91119L13.2191 7.33512C13.1752 7.31298 13.1364 7.28191 13.1052 7.24391C13.074 7.2059 13.051 7.1618 13.0378 7.11442C13.0247 7.06704 13.0215 7.01743 13.0286 6.96877C13.0357 6.92011 13.0529 6.87347 13.0791 6.83183L13.8904 5.53093C13.9878 5.37485 14.0532 5.201 14.0829 5.01944C14.1125 4.83788 14.1059 4.65223 14.0633 4.47327L13.4665 1.96036C13.4485 1.88263 13.4084 1.81175 13.3511 1.75621C13.2938 1.70066 13.2217 1.66281 13.1435 1.64719C13.0652 1.63157 12.9841 1.63884 12.9099 1.66812C12.8356 1.69741 12.7714 1.74747 12.7249 1.81232C12.4852 2.14667 12.326 2.53192 12.2599 2.93797C12.1937 3.34402 12.2223 3.75987 12.3434 4.15303L12.7088 5.33564L11.7533 6.72684C11.6015 6.94827 11.5289 7.21446 11.5472 7.48231C11.5655 7.75016 11.6736 8.00399 11.8541 8.20273L12.5688 8.9895" stroke="black" stroke-width="0.5" stroke-miterlimit="10"/>
<path d="M19.7041 3.02914C19.9887 3.02914 20.2193 2.79849 20.2193 2.51396C20.2193 2.22943 19.9887 1.99878 19.7041 1.99878C19.4196 1.99878 19.189 2.22943 19.189 2.51396C19.189 2.79849 19.4196 3.02914 19.7041 3.02914Z" stroke="black" stroke-width="0.5" stroke-miterlimit="10"/>
<path d="M19.7041 3.02914C19.9887 3.02914 20.2193 2.79849 20.2193 2.51396C20.2193 2.22943 19.9887 1.99878 19.7041 1.99878C19.4196 1.99878 19.189 2.22943 19.189 2.51396C19.189 2.79849 19.4196 3.02914 19.7041 3.02914Z" fill="black"/>
<path d="M19.7411 2.40367C19.819 2.40367 19.8822 2.34052 19.8822 2.26263C19.8822 2.18473 19.819 2.12158 19.7411 2.12158C19.6632 2.12158 19.6001 2.18473 19.6001 2.26263C19.6001 2.34052 19.6632 2.40367 19.7411 2.40367Z" fill="white"/>
<path d="M19.9801 2.42822C20.0106 2.42822 20.0354 2.40347 20.0354 2.37293C20.0354 2.34239 20.0106 2.31763 19.9801 2.31763C19.9496 2.31763 19.9248 2.34239 19.9248 2.37293C19.9248 2.40347 19.9496 2.42822 19.9801 2.42822Z" fill="white"/>
<path d="M18.282 11.8455C17.2103 15.1094 15.0689 17.9163 12.2041 19.8122" stroke="black" stroke-width="0.5" stroke-miterlimit="10"/>
<path d="M21.2983 10.1304L20.9064 11.4152C20.8599 11.5675 20.7835 11.7091 20.6818 11.8316C20.58 11.9541 20.4548 12.0551 20.3136 12.1288C20.1724 12.2024 20.0179 12.2472 19.8592 12.2605C19.7004 12.2737 19.5407 12.2553 19.3892 12.2061L17.0981 11.4603" stroke="black" stroke-width="0.5" stroke-miterlimit="10"/>
<path d="M17.8501 9.55264L19.8044 10.8014C19.8262 10.8153 19.8507 10.8244 19.8764 10.8279C19.902 10.8315 19.928 10.8295 19.9528 10.822C19.9775 10.8146 20.0004 10.8019 20.0198 10.7848C20.0392 10.7677 20.0547 10.7466 20.0652 10.723L20.8873 8.87892C21.0502 8.51319 21.3329 8.21393 21.6888 8.03055L23.8625 6.91304C23.9384 6.87418 24.0232 6.85617 24.1084 6.86083C24.1935 6.86549 24.2758 6.89266 24.347 6.93957C24.4182 6.98648 24.4757 7.05144 24.5135 7.12783C24.5514 7.20421 24.5683 7.28927 24.5625 7.37432C24.5224 7.9588 24.2962 8.51508 23.917 8.96163C23.5378 9.40818 23.0255 9.72152 22.4552 9.85573" stroke="black" stroke-width="0.5" stroke-miterlimit="10"/>
<path d="M10.52 24.5002L11.5318 26.0618C11.6029 26.1714 11.6445 26.2975 11.6527 26.4279C11.6608 26.5583 11.6353 26.6886 11.5785 26.8063C11.5217 26.9239 11.4356 27.025 11.3284 27.0997C11.2212 27.1744 11.0966 27.2203 10.9666 27.2329L9.61425 27.3638C9.51492 27.3733 9.4147 27.3606 9.3209 27.3265C9.2271 27.2925 9.14209 27.2379 9.07205 27.1668C9.002 27.0957 8.9487 27.0099 8.91602 26.9156C8.88334 26.8214 8.8721 26.721 8.88313 26.6218L9.09312 24.7371C9.11375 24.551 9.17991 24.3729 9.28576 24.2184C9.39161 24.064 9.53388 23.938 9.7 23.8516L11.2105 23.0652C11.271 23.0334 11.3216 22.9856 11.357 22.9272C11.3924 22.8688 11.4113 22.8018 11.4115 22.7335C11.4118 22.6651 11.3934 22.598 11.3585 22.5393C11.3235 22.4806 11.2732 22.4325 11.213 22.4002L8.79248 21.1172" stroke="black" stroke-width="0.5" stroke-miterlimit="10"/>
<path d="M10.998 19.4236L13.133 21.3993C13.2724 21.5284 13.3786 21.6894 13.4424 21.8684C13.5062 22.0475 13.5257 22.2393 13.4993 22.4276C13.4729 22.6158 13.4013 22.7949 13.2907 22.9495C13.1802 23.1041 13.0338 23.2296 12.8642 23.3154" stroke="black" stroke-width="0.5" stroke-miterlimit="10"/>
<path d="M7.27247 15.4626L7.16187 14.7724C7.15671 14.7403 7.14382 14.7098 7.12432 14.6838C7.10482 14.6577 7.07929 14.6367 7.04991 14.6226C7.02053 14.6085 6.98818 14.6018 6.95562 14.603C6.92307 14.6041 6.89128 14.6132 6.86299 14.6293L5.98277 15.1305C5.83213 15.2481 5.64455 15.3083 5.45359 15.3003C5.26263 15.2923 5.08076 15.2166 4.94051 15.0867L4.06554 14.2818C3.60627 13.8577 3.31152 13.285 3.23327 12.6648C3.15502 12.0446 3.29831 11.4167 3.63785 10.8918C3.705 10.788 3.80002 10.7051 3.91204 10.6528C4.02405 10.6004 4.14854 10.5807 4.27127 10.5957C4.39399 10.6108 4.50999 10.6601 4.606 10.7381C4.70201 10.816 4.77414 10.9193 4.81416 11.0363L5.62893 13.4162C5.65089 13.4805 5.68679 13.5391 5.73406 13.5879C5.78133 13.6366 5.8388 13.6743 5.90235 13.6983C5.9659 13.7222 6.03396 13.7318 6.10165 13.7264C6.16934 13.721 6.235 13.7006 6.29391 13.6668L7.32217 13.0796C7.46834 12.9959 7.64151 12.973 7.80438 13.0159C7.96725 13.0587 8.10679 13.1637 8.19294 13.3084L8.96291 14.6002" stroke="black" stroke-width="0.5" stroke-miterlimit="10"/>
</svg>
