<svg width="26" height="41" viewBox="0 0 26 41" fill="none" xmlns="http://www.w3.org/2000/svg">
<path d="M23.6126 6.49792L21.4388 7.61543C21.0829 7.79848 20.8 8.09751 20.637 8.4631L19.8152 10.3072C19.8047 10.3308 19.7893 10.3519 19.7699 10.369C19.7505 10.3861 19.7276 10.3988 19.7028 10.4062C19.678 10.4136 19.652 10.4156 19.6264 10.4119C19.6008 10.4083 19.5762 10.3992 19.5545 10.3852L18.2714 9.56555L18.3327 5.88579L18.8577 4.62234C19.2808 4.50261 19.6682 4.28116 19.986 3.97731L22.7576 1.32616C22.7983 1.28717 22.8307 1.24034 22.8528 1.1885C22.875 1.13665 22.8864 1.08085 22.8864 1.02447V0.662586C22.8864 0.535553 22.8418 0.412541 22.7604 0.315046C22.6789 0.217551 22.5658 0.151773 22.4408 0.129205C21.0143 -0.128385 19.4131 -0.025138 18.136 0.660487C16.4666 1.57605 16.0515 2.35442 15.7312 3.20874L14.1178 7.51113L12.9705 6.9193C12.9265 6.89729 12.8875 6.8663 12.8561 6.82834C12.8247 6.79038 12.8016 6.74627 12.7882 6.69885C12.7749 6.65143 12.7716 6.60174 12.7786 6.55298C12.7856 6.50421 12.8027 6.45744 12.8288 6.41567L13.6401 5.11512C13.7374 4.95904 13.8029 4.78518 13.8326 4.60363C13.8622 4.42207 13.8556 4.23642 13.813 4.05746L13.218 1.54455C13.1999 1.46682 13.1599 1.39594 13.1026 1.34039C13.0453 1.28485 12.9732 1.247 12.8949 1.23138C12.8166 1.21576 12.7355 1.22303 12.6613 1.25231C12.5871 1.2816 12.5229 1.33166 12.4764 1.39651C12.2366 1.73085 12.0774 2.1161 12.0113 2.52215C11.9451 2.9282 11.9737 3.34406 12.0949 3.73722L12.4592 4.91843L11.5037 6.30963C11.3518 6.53099 11.2791 6.79713 11.2973 7.06497C11.3154 7.33282 11.4234 7.5867 11.6038 7.78552L13.0118 9.33211C12.0721 10.3943 10.3656 12.3189 8.71364 14.1829L7.94367 12.8915C7.85752 12.7468 7.71798 12.6417 7.55511 12.5989C7.39224 12.5561 7.21907 12.579 7.0729 12.6626L6.04464 13.2499C5.98569 13.2836 5.92002 13.3039 5.85233 13.3092C5.78464 13.3146 5.71659 13.305 5.65305 13.281C5.58952 13.257 5.53207 13.2193 5.4848 13.1705C5.43754 13.1218 5.40164 13.0632 5.37966 12.9989L4.56489 10.619C4.52484 10.502 4.45267 10.3987 4.35664 10.3208C4.26061 10.243 4.14461 10.1937 4.02189 10.1786C3.89917 10.1636 3.77469 10.1834 3.6627 10.2358C3.5507 10.2881 3.45571 10.371 3.38859 10.4748C3.04905 10.9997 2.90576 11.6276 2.98401 12.2478C3.06225 12.868 3.357 13.4407 3.81627 13.8648L4.69124 14.6698C4.83123 14.7997 5.01286 14.8756 5.20366 14.8839C5.39446 14.8922 5.58201 14.8325 5.7328 14.7153L6.61302 14.2137C6.64134 14.1976 6.67315 14.1886 6.70573 14.1874C6.73831 14.1863 6.77068 14.193 6.80006 14.2072C6.82945 14.2213 6.85498 14.2423 6.87446 14.2684C6.89394 14.2946 6.90679 14.325 6.91191 14.3572L7.173 15.9864L7.2129 15.9395C5.01825 18.6395 3.15244 21.5909 1.65475 24.7315C1.625 24.7945 1.5949 24.8572 1.56481 24.9202C-0.43747 29.12 -0.637313 35.0698 1.6614 37.7514C3.37214 39.7463 6.19723 40.3368 8.54845 39.2742C10.8997 38.2116 11.8359 35.8223 10.8979 33.6072C10.5902 32.8807 10.4889 32.0834 10.6054 31.3031C10.7219 30.5227 11.0515 29.7897 11.558 29.1848L11.8698 28.8124C11.8698 28.8124 10.5122 28.9552 9.7349 30.5595C8.4662 33.1844 10.8633 34.9606 9.05418 36.8502C7.39874 38.5791 4.72064 38.0492 3.53628 36.6846C2.69001 35.7099 1.93929 32.3504 3.42604 28.425C4.97893 24.3252 8.07701 22.8903 10.2718 21.6268C10.2718 21.6268 10.9368 21.9596 11.0134 22.0174C11.0659 22.0576 11.3228 22.4104 10.9574 22.6474C10.7355 22.7923 10.3873 22.9624 10.0359 23.1269C9.47346 23.3911 8.90403 23.7019 8.83998 24.3193C8.83578 24.3581 8.68389 25.4532 8.62719 26.2526C8.58835 26.7986 9.15847 26.9823 9.36217 26.9456C9.55151 26.9106 10.7376 26.8539 10.899 26.7737C11.5674 26.4419 11.4428 25.9078 11.2804 25.644C10.9046 25.0332 10.2438 24.0949 10.2686 24.0823C10.4559 23.9878 12.6517 22.9043 12.799 22.78C13.7388 21.9855 12.9929 21.1001 12.9929 21.1001L11.5212 19.7215L11.951 19.3932C13.0496 18.6747 14.0114 17.8574 14.8209 16.9317C16.2658 15.3438 17.3594 13.469 18.0303 11.4296L19.1377 11.789C19.2892 11.8381 19.4489 11.8565 19.6076 11.8432C19.7663 11.8299 19.9208 11.7851 20.062 11.7115C20.2032 11.6379 20.3284 11.5369 20.4302 11.4144C20.532 11.2919 20.6083 11.1504 20.6548 10.9981L21.0468 9.7129L22.2046 9.44061C22.7749 9.3064 23.2871 8.99306 23.6664 8.54651C24.0456 8.09996 24.2718 7.54368 24.3119 6.9592C24.3176 6.87425 24.3006 6.78929 24.2628 6.71301C24.225 6.63672 24.1676 6.57183 24.0965 6.52494C24.0255 6.47806 23.9432 6.45086 23.8582 6.44611C23.7732 6.44136 23.6884 6.45924 23.6126 6.49792Z" fill="#C28762"/>
<path d="M18.4974 5.33552L19.5452 5.03943C19.9685 4.91993 20.3561 4.69845 20.6739 4.39441L23.4451 1.74361C23.4858 1.70449 23.5182 1.65759 23.5403 1.6057C23.5624 1.5538 23.5739 1.49798 23.5739 1.44157V1.07863C23.574 0.951558 23.5294 0.828499 23.448 0.730945C23.3666 0.633392 23.2534 0.567545 23.1284 0.544903C21.7019 0.287312 20.1007 0.390908 18.8236 1.07618C17.1541 1.9921 16.739 2.77012 16.4188 3.62444L14.7424 8.09447C14.5376 8.64085 14.2341 9.14493 13.8471 9.58157C12.8986 10.6518 10.9475 12.8539 9.11913 14.9157C6.39166 17.9917 4.11005 21.4358 2.34128 25.1469C2.31141 25.2094 2.28143 25.2722 2.25133 25.3352C0.249053 29.535 0.0492107 35.4869 2.34793 38.1668C4.05866 40.1617 6.88376 40.7521 9.23497 39.6892C11.5862 38.6263 12.5224 36.2373 11.5844 34.0222C11.2767 33.2957 11.1755 32.4984 11.292 31.7181C11.4085 30.9378 11.7381 30.2047 12.2445 29.5998L12.5563 29.2274" stroke="black" stroke-width="0.5" stroke-miterlimit="10"/>
<path d="M19.5456 5.03809C19.1505 5.63941 18.9401 6.34326 18.9404 7.06276V8.6818" stroke="black" stroke-width="0.5" stroke-miterlimit="10"/>
<path d="M14.8106 7.91119L13.6556 7.33512C13.6117 7.31298 13.5729 7.28191 13.5417 7.24391C13.5105 7.2059 13.4875 7.1618 13.4744 7.11442C13.4612 7.06704 13.4581 7.01743 13.4652 6.96877C13.4723 6.92011 13.4894 6.87347 13.5156 6.83183L14.3269 5.53093C14.4243 5.37485 14.4897 5.201 14.5194 5.01944C14.5491 4.83788 14.5424 4.65223 14.4998 4.47327L13.9031 1.96036C13.885 1.88263 13.8449 1.81175 13.7876 1.75621C13.7303 1.70066 13.6582 1.66281 13.58 1.64719C13.5017 1.63157 13.4206 1.63884 13.3464 1.66812C13.2722 1.69741 13.2079 1.74747 13.1614 1.81232C12.9217 2.14667 12.7626 2.53192 12.6964 2.93797C12.6302 3.34402 12.6588 3.75987 12.7799 4.15303L13.1453 5.33564L12.1899 6.72684C12.0381 6.94827 11.9654 7.21446 11.9837 7.48231C12.002 7.75016 12.1102 8.00399 12.2907 8.20273L13.0053 8.9895" stroke="black" stroke-width="0.5" stroke-miterlimit="10"/>
<path d="M20.1407 3.02914C20.4252 3.02914 20.6559 2.79849 20.6559 2.51396C20.6559 2.22943 20.4252 1.99878 20.1407 1.99878C19.8561 1.99878 19.6255 2.22943 19.6255 2.51396C19.6255 2.79849 19.8561 3.02914 20.1407 3.02914Z" stroke="black" stroke-width="0.5" stroke-miterlimit="10"/>
<path d="M20.1407 3.02914C20.4252 3.02914 20.6559 2.79849 20.6559 2.51396C20.6559 2.22943 20.4252 1.99878 20.1407 1.99878C19.8561 1.99878 19.6255 2.22943 19.6255 2.51396C19.6255 2.79849 19.8561 3.02914 20.1407 3.02914Z" fill="black"/>
<path d="M20.1777 2.40367C20.2556 2.40367 20.3187 2.34052 20.3187 2.26263C20.3187 2.18473 20.2556 2.12158 20.1777 2.12158C20.0998 2.12158 20.0366 2.18473 20.0366 2.26263C20.0366 2.34052 20.0998 2.40367 20.1777 2.40367Z" fill="white"/>
<path d="M20.4166 2.42822C20.4472 2.42822 20.4719 2.40347 20.4719 2.37293C20.4719 2.34239 20.4472 2.31763 20.4166 2.31763C20.3861 2.31763 20.3613 2.34239 20.3613 2.37293C20.3613 2.40347 20.3861 2.42822 20.4166 2.42822Z" fill="white"/>
<path d="M18.7185 11.8455C17.6469 15.1094 15.5054 17.9163 12.6406 19.8122" stroke="black" stroke-width="0.5" stroke-miterlimit="10"/>
<path d="M21.7349 10.1304L21.3429 11.4152C21.2964 11.5675 21.2201 11.7091 21.1183 11.8316C21.0165 11.9541 20.8914 12.0551 20.7501 12.1288C20.6089 12.2024 20.4544 12.2472 20.2957 12.2605C20.137 12.2737 19.9772 12.2553 19.8257 12.2061L17.5347 11.4603" stroke="black" stroke-width="0.5" stroke-miterlimit="10"/>
<path d="M18.2866 9.55264L20.241 10.8014C20.2627 10.8153 20.2873 10.8244 20.3129 10.8279C20.3385 10.8315 20.3646 10.8295 20.3893 10.822C20.4141 10.8146 20.4369 10.8019 20.4563 10.7848C20.4757 10.7677 20.4912 10.7466 20.5017 10.723L21.3238 8.87892C21.4867 8.51319 21.7694 8.21393 22.1253 8.03055L24.299 6.91304C24.3749 6.87418 24.4598 6.85617 24.5449 6.86083C24.63 6.86549 24.7124 6.89266 24.7835 6.93957C24.8547 6.98648 24.9122 7.05144 24.95 7.12783C24.9879 7.20421 25.0048 7.28927 24.999 7.37432C24.959 7.9588 24.7327 8.51508 24.3535 8.96163C23.9743 9.40818 23.462 9.72152 22.8918 9.85573" stroke="black" stroke-width="0.5" stroke-miterlimit="10"/>
<path d="M10.9565 24.5002L11.9684 26.0618C12.0394 26.1714 12.081 26.2975 12.0892 26.4279C12.0973 26.5583 12.0718 26.6886 12.015 26.8063C11.9582 26.9239 11.8721 27.025 11.7649 27.0997C11.6578 27.1744 11.5332 27.2203 11.4031 27.2329L10.0508 27.3638C9.95144 27.3733 9.85122 27.3606 9.75743 27.3265C9.66363 27.2925 9.57861 27.2379 9.50857 27.1668C9.43853 27.0957 9.38522 27.0099 9.35254 26.9156C9.31986 26.8214 9.30862 26.721 9.31965 26.6218L9.52964 24.7371C9.55027 24.551 9.61644 24.3729 9.72229 24.2184C9.82813 24.064 9.97041 23.938 10.1365 23.8516L11.6471 23.0652C11.7075 23.0334 11.7581 22.9856 11.7936 22.9272C11.829 22.8688 11.8478 22.8018 11.848 22.7335C11.8483 22.6651 11.83 22.598 11.795 22.5393C11.76 22.4806 11.7097 22.4325 11.6495 22.4002L9.229 21.1172" stroke="black" stroke-width="0.5" stroke-miterlimit="10"/>
<path d="M11.4346 19.4236L13.5695 21.3993C13.709 21.5284 13.8151 21.6894 13.8789 21.8684C13.9427 22.0475 13.9622 22.2393 13.9358 22.4276C13.9094 22.6158 13.8379 22.7949 13.7273 22.9495C13.6167 23.1041 13.4703 23.2296 13.3007 23.3154" stroke="black" stroke-width="0.5" stroke-miterlimit="10"/>
<path d="M7.70899 15.4626L7.5984 14.7724C7.59323 14.7403 7.58035 14.7098 7.56085 14.6838C7.54135 14.6577 7.51581 14.6367 7.48643 14.6226C7.45705 14.6085 7.4247 14.6018 7.39215 14.603C7.35959 14.6041 7.32781 14.6132 7.29951 14.6293L6.41929 15.1305C6.26865 15.2481 6.08107 15.3083 5.89012 15.3003C5.69916 15.2923 5.51728 15.2166 5.37703 15.0867L4.50206 14.2818C4.04279 13.8577 3.74804 13.285 3.6698 12.6648C3.59155 12.0446 3.73483 11.4167 4.07438 10.8918C4.14153 10.788 4.23655 10.7051 4.34856 10.6528C4.46058 10.6004 4.58507 10.5807 4.70779 10.5957C4.83051 10.6108 4.94651 10.6601 5.04252 10.7381C5.13853 10.816 5.21067 10.9193 5.25068 11.0363L6.06545 13.4162C6.08742 13.4805 6.12332 13.5391 6.17059 13.5879C6.21785 13.6366 6.27532 13.6743 6.33887 13.6983C6.40242 13.7222 6.47048 13.7318 6.53817 13.7264C6.60587 13.721 6.67152 13.7006 6.73043 13.6668L7.75869 13.0796C7.90486 12.9959 8.07803 12.973 8.2409 13.0159C8.40377 13.0587 8.54331 13.1637 8.62946 13.3084L9.39943 14.6002" stroke="black" stroke-width="0.5" stroke-miterlimit="10"/>
</svg>
