<svg width="200" height="200" viewBox="0 0 200 200" fill="none" xmlns="http://www.w3.org/2000/svg">
<g opacity="0.6">
<path d="M66.8059 130.64C68.7853 130.64 70.3899 129.035 70.3899 127.056C70.3899 125.077 68.7853 123.472 66.8059 123.472C64.8265 123.472 63.2219 125.077 63.2219 127.056C63.2219 129.035 64.8265 130.64 66.8059 130.64Z" fill="#8CE5B4"/>
<path d="M140.939 109.9C140.145 110.98 139.378 111.422 138.61 111.422C137.568 111.405 136.527 111.327 135.494 111.187C135.294 110.812 135.075 110.444 134.875 110.049C133.293 106.931 132.781 105.907 132.688 102.556C132.601 99.443 131.779 99.098 131.663 99.064C132.078 98.157 132.214 97.112 132.108 95.946L133.781 94.39L135.315 94.457C138.503 94.457 139.628 93.238 140.329 91.842C141.069 91.742 141.994 91.316 141.994 91.316C144.577 90.129 145.834 86.847 145.834 83.985C145.834 81.123 142.878 76.236 135.199 76.236C131.069 76.236 127.899 77.589 125.845 79.48C125.786 78.974 125.726 78.893 125.726 78.893C117.209 60.95 96.7019 66.875 87.3259 71.562C76.9819 76.734 67.6629 88.687 67.1259 99.062C67.1033 100.151 67.1498 101.241 67.2649 102.324C67.2649 102.324 67.6649 102.801 69.6539 103.215C69.0629 106.571 68.9909 108.454 69.2419 110.872C69.2419 110.872 65.7749 110.391 63.9139 108.591C62.0529 106.791 61.2609 107.091 61.2609 107.091C60.6422 107.084 60.0273 107.189 59.4459 107.401C59.4459 107.401 53.1759 109.171 55.4459 115.081C57.3729 120.106 63.5599 122.126 70.4599 122.838H70.4329C70.4329 124.693 71.5419 125.659 72.9109 125.659C74.2479 125.659 75.3339 124.477 75.3839 123.147C76.2139 123.17 77.0429 123.18 77.8639 123.18H121.993C121.993 123.837 122.254 124.468 122.719 124.932C123.183 125.397 123.814 125.658 124.471 125.658C125.128 125.658 125.758 125.397 126.223 124.932C126.688 124.468 126.949 123.837 126.949 123.18H132.522C135.867 123.18 143.322 121.825 146.332 115.78C148.977 110.465 143.109 107.7 140.939 109.9ZM86.3999 110.951L76.4169 110.903C76.6679 108.771 76.7899 106.92 76.7259 106.323C80.9029 107.488 83.7859 108.242 86.4079 108.723C86.4059 108.828 86.3499 109.809 86.3999 110.951ZM111.95 109.4C111.461 109.924 111.011 110.482 110.601 111.07L92.3199 110.983C92.3131 110.756 92.286 110.529 92.2389 110.307C92.2389 110.307 92.1519 109.852 92.0459 109.418C94.2659 109.557 96.7909 109.59 100.146 109.59C104.893 109.59 113.437 107.072 113.437 107.072C113.2 107.754 112.747 108.543 111.95 109.4ZM119.159 111.111C120.659 109.411 122.106 107.366 122.564 105.111H125.343H125.813C125.913 105.764 126.105 106.921 126.413 108.402C126.649 109.549 127.32 110.416 128.013 111.16L119.159 111.111Z" fill="#8CE5B4"/>
<path d="M129.929 123.837C129.22 123.837 128.527 124.047 127.938 124.441C127.348 124.835 126.889 125.395 126.618 126.049C126.347 126.704 126.276 127.425 126.414 128.12C126.552 128.815 126.893 129.454 127.395 129.955C127.896 130.457 128.535 130.798 129.23 130.936C129.925 131.074 130.646 131.003 131.301 130.732C131.955 130.461 132.515 130.002 132.909 129.412C133.303 128.823 133.513 128.13 133.513 127.421C133.513 126.47 133.135 125.559 132.463 124.887C131.791 124.215 130.88 123.837 129.929 123.837Z" fill="#8CE5B4"/>
</g>
<path d="M67.2329 102.59C67.2329 102.59 69.6329 105.449 91.9009 103.25C102.182 102.235 110.949 99.037 116.756 94.657C121.573 91.024 123.487 87.882 123.487 87.882" stroke="black" stroke-linejoin="round"/>
<path d="M125.692 79.155C117.174 61.213 96.6681 67.137 87.2921 71.825C76.9491 77 67.6311 88.95 67.1001 99.327" stroke="black" stroke-linejoin="round"/>
<path d="M125.692 91.233C125.692 91.233 123.109 89.418 123.109 85.299C123.109 81.18 127.484 76.499 135.163 76.499C142.842 76.499 145.8 81.389 145.8 84.252C145.8 87.115 144.543 90.395 141.96 91.582" stroke="black" stroke-miterlimit="10"/>
<path d="M140.539 91.582C139.839 93.182 138.864 94.724 135.28 94.724C131.603 94.724 131.044 93.84 129.788 92.211" stroke="black" stroke-miterlimit="10"/>
<path d="M127.751 89.174C128.799 89.974 130.317 89.784 131.277 88.615C131.685 88.115 132.062 88.545 132.289 88.755C132.444 88.897 133.68 90.049 134.455 90.771C134.859 91.1467 135.39 91.3554 135.941 91.355C136.262 91.3551 136.579 91.2844 136.869 91.1481C137.159 91.0117 137.416 90.8129 137.621 90.566C138.264 89.788 139.159 88.707 139.221 88.632C139.315 88.516 139.47 88.393 139.728 88.615C140.078 88.915 140.655 89.377 141.562 89.325C142.044 89.2993 142.511 89.1538 142.922 88.9019C143.333 88.6499 143.675 88.2994 143.917 87.882" stroke="black" stroke-miterlimit="10"/>
<path d="M133.746 94.657L131.9 96.376C131.547 96.7046 131.082 96.8875 130.6 96.888H129.459C128.985 96.8879 128.528 96.7119 128.176 96.394L127.489 95.773" stroke="black" stroke-miterlimit="10"/>
<path d="M132.073 96.213C132.233 97.975 131.844 99.465 130.765 100.613" stroke="black" stroke-miterlimit="10"/>
<path d="M113.4 107.337C113.4 107.337 104.857 109.855 100.11 109.855C89.5239 109.855 87.2029 109.525 76.6909 106.592" stroke="black" stroke-linejoin="round"/>
<path d="M76.6769 106.057C76.7769 107.029 76.4099 111.857 75.7769 115.284C76.7839 115.633 76.6769 116.82 76.6769 116.82C75.7829 116.873 74.6009 116.889 73.6999 116.893C72.7307 116.901 71.7882 116.575 71.03 115.972C70.2717 115.368 69.7436 114.522 69.5339 113.576C69.5269 113.545 69.5209 113.513 69.5139 113.476C68.9579 109.685 68.8549 107.816 69.6299 103.436" stroke="black" stroke-linejoin="round"/>
<path d="M86.378 108.987C86.378 108.987 86.13 112.876 87.014 114.412C87.898 115.948 88.719 116.18 90.208 116.18C91.273 116.18 93.148 115.86 93.148 115.86C93.148 115.243 92.809 114.9 92.111 114.831C91.903 113.693 92.506 111.931 92.204 110.572" stroke="black" stroke-linejoin="round"/>
<path d="M113.4 104.684C113.4 104.684 114.564 106.825 111.911 109.664C109.258 112.503 107.536 116.646 109.281 118.464C111.026 120.282 116.752 119.209 116.752 119.209C116.752 119.209 116.629 117.952 115.876 117.859" stroke="black" stroke-linejoin="round"/>
<path d="M115.88 100.076C115.88 100.076 122.992 98.54 122.667 104.312C122.342 110.084 115.033 114.644 115.033 116.041" stroke="black" stroke-linejoin="round"/>
<path d="M122.529 102.962C122.529 102.962 123.69 102.262 127.484 102.262C131.278 102.262 130.128 104.353 129.784 104.562C128.853 105.144 128.515 105.362 125.304 105.362H122.525" stroke="black" stroke-linejoin="round"/>
<path d="M136.211 115.715C137.293 115.645 137.456 117.115 137.456 117.115C137.456 117.115 135.838 117.584 132.906 117.537C129.974 117.49 129.183 116.417 129.788 114.555C130.393 112.693 126.973 111.582 126.374 108.664C125.891 106.317 125.692 105.375 125.692 105.375" stroke="black" stroke-linejoin="round"/>
<path d="M131.613 99.327C131.613 99.327 132.559 99.471 132.652 102.827C132.745 106.183 133.252 107.202 134.84 110.321C135.414 111.453 136.116 112.359 136.275 113.861" stroke="black" stroke-linejoin="round"/>
<path d="M101.233 109.815C98.572 108.159 97.975 105.802 98.928 102.026" stroke="black" stroke-linejoin="round"/>
<path d="M88.8091 109.376C87.8351 108.404 87.1651 106.741 87.4361 103.646" stroke="black" stroke-linejoin="round"/>
<path d="M79.6079 107.353C78.9969 106.976 78.6369 104.69 78.7929 104.081" stroke="black" stroke-linejoin="round"/>
<path d="M129.937 85.441C130.964 85.441 131.797 84.6083 131.797 83.581C131.797 82.5538 130.964 81.721 129.937 81.721C128.91 81.721 128.077 82.5538 128.077 83.581C128.077 84.6083 128.91 85.441 129.937 85.441Z" fill="black"/>
<path d="M130.07 83.182C130.351 83.182 130.579 82.9541 130.579 82.673C130.579 82.3919 130.351 82.164 130.07 82.164C129.789 82.164 129.561 82.3919 129.561 82.673C129.561 82.9541 129.789 83.182 130.07 83.182Z" fill="white"/>
<path d="M130.933 83.271C131.043 83.271 131.132 83.1819 131.132 83.072C131.132 82.9621 131.043 82.873 130.933 82.873C130.823 82.873 130.734 82.9621 130.734 83.072C130.734 83.1819 130.823 83.271 130.933 83.271Z" fill="white"/>
<path d="M140.762 85.441C141.789 85.441 142.622 84.6083 142.622 83.581C142.622 82.5538 141.789 81.721 140.762 81.721C139.735 81.721 138.902 82.5538 138.902 83.581C138.902 84.6083 139.735 85.441 140.762 85.441Z" fill="black"/>
<path d="M140.895 83.182C141.176 83.182 141.404 82.9541 141.404 82.673C141.404 82.3919 141.176 82.164 140.895 82.164C140.614 82.164 140.386 82.3919 140.386 82.673C140.386 82.9541 140.614 83.182 140.895 83.182Z" fill="white"/>
<path d="M141.759 83.271C141.869 83.271 141.958 83.1819 141.958 83.072C141.958 82.9621 141.869 82.873 141.759 82.873C141.649 82.873 141.56 82.9621 141.56 83.072C141.56 83.1819 141.649 83.271 141.759 83.271Z" fill="white"/>
<path d="M133.982 86.966L134.571 87.555" stroke="black" stroke-miterlimit="10" stroke-linecap="round"/>
<path d="M137.412 86.966L136.979 87.579" stroke="black" stroke-miterlimit="10" stroke-linecap="round"/>
<path d="M109.669 86.483L114.053 86.807C114.675 86.8531 115.296 86.7001 115.826 86.3703C116.356 86.0405 116.767 85.5508 117 84.972L119.266 79.355C119.475 78.8362 119.532 78.2686 119.431 77.7185C119.329 77.1685 119.073 76.6587 118.692 76.249L115.992 73.343C115.693 73.0215 115.326 72.771 114.918 72.6095C114.509 72.4481 114.07 72.3799 113.632 72.41L106.28 72.92C105.864 72.9487 105.46 73.0654 105.092 73.2623C104.725 73.4591 104.404 73.7317 104.15 74.062L101.03 78.117C100.579 78.7039 100.365 79.4393 100.432 80.1767C100.498 80.914 100.84 81.5993 101.389 82.096L105.935 86.206" stroke="black" stroke-linejoin="round"/>
<path d="M98.7791 67.8L103.035 70.1C103.602 70.4055 104.254 70.5165 104.89 70.416L112.667 69.189" stroke="black" stroke-linejoin="round"/>
<path d="M92.6231 71.126L98.3131 71.682C98.5466 71.7052 98.7706 71.7867 98.9644 71.9191C99.1581 72.0515 99.3155 72.2304 99.4221 72.4395C99.5286 72.6486 99.5809 72.8812 99.5741 73.1157C99.5673 73.3503 99.5016 73.5794 99.3831 73.782L97.0521 77.754C96.9064 78.0013 96.6882 78.1978 96.427 78.3169C96.1659 78.436 95.8744 78.472 95.5921 78.42L89.8311 77.349C89.6136 77.3079 89.409 77.2158 89.234 77.0804C89.0589 76.9449 88.9185 76.7698 88.8243 76.5696C88.73 76.3693 88.6845 76.1496 88.6916 75.9284C88.6987 75.7072 88.7582 75.4908 88.8651 75.297L90.7151 71.967" stroke="black" stroke-linejoin="round"/>
<path d="M87.922 89.091L84.142 86.227C83.9091 86.0506 83.7248 85.8179 83.6062 85.5509C83.4876 85.2838 83.4387 84.9911 83.464 84.7L83.611 82.949C83.6454 82.5446 83.8209 82.1651 84.1068 81.877C84.3927 81.5889 84.7709 81.4105 85.175 81.373L95.209 80.446C95.7817 80.393 96.3574 80.5089 96.8649 80.7794C97.3725 81.0499 97.7897 81.4631 98.065 81.968L99.624 84.827C99.8588 85.2572 99.9216 85.7605 99.7998 86.2352C99.6781 86.7099 99.3808 87.1208 98.968 87.385L91.762 92" stroke="black" stroke-linejoin="round"/>
<path d="M81.569 101.705L75.469 97.135C75.1181 96.8723 74.8663 96.4986 74.7545 96.0748C74.6427 95.6509 74.6774 95.2017 74.853 94.8L77.032 89.8C77.139 89.5549 77.2953 89.3345 77.4913 89.1526C77.6873 88.9706 77.9188 88.8311 78.1711 88.7427C78.4235 88.6543 78.6914 88.6189 78.9581 88.6387C79.2248 88.6586 79.4845 88.7332 79.721 88.858L87.113 92.758C87.5298 92.9778 87.8878 93.2944 88.1568 93.6812C88.4258 94.0681 88.598 94.5138 88.659 94.981L88.95 97.2C88.9945 97.5495 88.9246 97.9039 88.7508 98.2104C88.5771 98.5168 88.3088 98.7588 87.986 98.9L84.979 100.213" stroke="black" stroke-linejoin="round"/>
<path d="M105.436 97.443L99.5651 99.149C99.1617 99.2667 98.7378 99.2963 98.322 99.236L93.651 98.561C93.3657 98.5197 93.1047 98.3769 92.9159 98.159C92.7272 97.941 92.6232 97.6623 92.623 97.374V95.434C92.6232 94.9938 92.7506 94.5631 92.9899 94.1937C93.2293 93.8243 93.5703 93.532 93.972 93.352L101.672 89.903C102.09 89.7161 102.545 89.6288 103.002 89.648L110.963 89.99C111.252 90.0024 111.533 90.0923 111.776 90.2501C112.019 90.408 112.215 90.6281 112.344 90.8876C112.473 91.147 112.529 91.4362 112.508 91.7251C112.487 92.014 112.389 92.292 112.224 92.53L109.672 96.213" stroke="black" stroke-linejoin="round"/>
<path d="M67.554 95.982L71.366 93.735C72.0009 93.3608 72.4723 92.762 72.687 92.057L74.238 86.966" stroke="black" stroke-linejoin="round"/>
<path d="M82.2771 79.845L83.9641 77.845C84.2842 77.4662 84.503 77.0124 84.6001 76.526L85.3301 72.9" stroke="black" stroke-linejoin="round"/>
<path d="M75.208 81.51L80.452 82.003" stroke="black" stroke-linejoin="round"/>
<path d="M69.211 111.138C69.211 111.138 65.744 110.656 63.882 108.857C62.02 107.058 61.229 107.357 61.229 107.357" stroke="black" stroke-linejoin="round"/>
<path d="M59.4141 107.663C59.4141 107.663 53.1451 109.432 55.4141 115.343C58.0211 122.143 68.4141 123.443 77.8331 123.443H132.49C135.835 123.443 143.29 122.087 146.3 116.043C148.944 110.736 143.917 107.968 141.746 110.169" stroke="black" stroke-linejoin="round"/>
<path d="M76.175 112.102H86.351" stroke="black" stroke-linejoin="round"/>
<path d="M92.261 112.102H110.067" stroke="black" stroke-linejoin="round"/>
<path d="M118.463 112.102H128.63" stroke="black" stroke-linejoin="round"/>
<path d="M135.459 111.454C135.459 111.454 137.607 111.712 139.05 111.2" stroke="black" stroke-linejoin="round"/>
<path d="M67.095 130.919C69.0744 130.919 70.679 129.314 70.679 127.335C70.679 125.356 69.0744 123.751 67.095 123.751C65.1156 123.751 63.511 125.356 63.511 127.335C63.511 129.314 65.1156 130.919 67.095 130.919Z" stroke="black" stroke-linejoin="round"/>
<path d="M75.3549 123.441C75.3549 123.766 75.2908 124.089 75.1663 124.389C75.0418 124.69 74.8592 124.963 74.6291 125.193C74.399 125.423 74.1259 125.606 73.8252 125.73C73.5246 125.855 73.2023 125.919 72.8769 125.919C72.5515 125.919 72.2293 125.855 71.9286 125.73C71.628 125.606 71.3548 125.423 71.1247 125.193C70.8946 124.963 70.7121 124.69 70.5876 124.389C70.463 124.089 70.3989 123.766 70.3989 123.441" stroke="black" stroke-linejoin="round"/>
<path d="M130.219 131.284C132.198 131.284 133.803 129.679 133.803 127.7C133.803 125.721 132.198 124.116 130.219 124.116C128.24 124.116 126.635 125.721 126.635 127.7C126.635 129.679 128.24 131.284 130.219 131.284Z" stroke="black" stroke-linejoin="round"/>
<path d="M126.915 123.441C126.915 124.098 126.654 124.728 126.189 125.193C125.724 125.658 125.094 125.919 124.437 125.919C123.78 125.919 123.149 125.658 122.685 125.193C122.22 124.728 121.959 124.098 121.959 123.441" stroke="black" stroke-linejoin="round"/>
</svg>
