<svg width="200" height="200" viewBox="0 0 200 200" fill="none" xmlns="http://www.w3.org/2000/svg">
<g opacity="0.6">
<path d="M65.8059 132.64C67.7853 132.64 69.3899 131.035 69.3899 129.056C69.3899 127.077 67.7853 125.472 65.8059 125.472C63.8265 125.472 62.2219 127.077 62.2219 129.056C62.2219 131.035 63.8265 132.64 65.8059 132.64Z" fill="#095F3E"/>
<path d="M138.939 111.9C138.145 112.98 137.378 113.422 136.61 113.422C135.568 113.405 134.527 113.327 133.494 113.187C133.294 112.812 133.075 112.444 132.875 112.049C131.293 108.931 130.781 107.907 130.688 104.556C130.601 101.443 129.779 101.098 129.663 101.064C130.078 100.157 130.214 99.1119 130.108 97.9459L131.781 96.3899L133.315 96.4569C136.503 96.4569 137.628 95.2379 138.329 93.8419C139.069 93.7419 139.994 93.3159 139.994 93.3159C142.577 92.1289 143.834 88.8469 143.834 85.9849C143.834 83.1229 140.878 78.2359 133.199 78.2359C129.069 78.2359 125.899 79.5889 123.845 81.4799C123.786 80.9739 123.726 80.8929 123.726 80.8929C115.209 62.9499 94.7019 68.8749 85.3259 73.5619C74.9819 78.7339 65.6629 90.6869 65.1259 101.062C65.1033 102.151 65.1498 103.241 65.2649 104.324C65.2649 104.324 65.6649 104.801 67.6539 105.215C67.0629 108.571 66.9909 110.454 67.2419 112.872C67.2419 112.872 63.7749 112.391 61.9139 110.591C60.0529 108.791 59.2609 109.091 59.2609 109.091C58.6422 109.084 58.0273 109.189 57.4459 109.401C57.4459 109.401 51.1759 111.171 53.4459 117.081C55.3729 122.106 61.5599 124.126 68.4599 124.838H68.4329C68.4329 126.693 69.5419 127.659 70.9109 127.659C72.2479 127.659 73.3339 126.477 73.3839 125.147C74.2139 125.17 75.0429 125.18 75.8639 125.18H119.993C119.993 125.837 120.254 126.467 120.719 126.932C121.183 127.397 121.814 127.658 122.471 127.658C123.128 127.658 123.758 127.397 124.223 126.932C124.688 126.467 124.949 125.837 124.949 125.18H130.522C133.867 125.18 141.322 123.825 144.332 117.78C146.977 112.465 141.109 109.7 138.939 111.9ZM84.3999 112.951L74.4169 112.903C74.6679 110.771 74.7899 108.92 74.7259 108.323C78.9029 109.488 81.7859 110.242 84.4079 110.723C84.4059 110.828 84.3499 111.809 84.3999 112.951ZM109.95 111.4C109.461 111.924 109.011 112.482 108.601 113.07L90.3199 112.983C90.3131 112.756 90.286 112.529 90.2389 112.307C90.2389 112.307 90.1519 111.852 90.0459 111.418C92.2659 111.557 94.7909 111.59 98.1459 111.59C102.893 111.59 111.437 109.072 111.437 109.072C111.2 109.754 110.747 110.543 109.95 111.4ZM117.159 113.111C118.659 111.411 120.106 109.366 120.564 107.111H123.343H123.813C123.913 107.764 124.105 108.921 124.413 110.402C124.649 111.549 125.32 112.416 126.013 113.16L117.159 113.111Z" fill="#095F3E"/>
<path d="M128.929 125.837C128.22 125.837 127.527 126.047 126.938 126.441C126.348 126.835 125.889 127.394 125.618 128.049C125.347 128.704 125.276 129.425 125.414 130.12C125.552 130.815 125.893 131.454 126.395 131.955C126.896 132.456 127.535 132.798 128.23 132.936C128.925 133.074 129.646 133.003 130.301 132.732C130.955 132.461 131.515 132.001 131.909 131.412C132.303 130.823 132.513 130.13 132.513 129.421C132.513 128.47 132.135 127.559 131.463 126.887C130.791 126.215 129.88 125.837 128.929 125.837Z" fill="#095F3E"/>
</g>
<path d="M67.2329 102.59C67.2329 102.59 69.6329 105.449 91.9009 103.25C102.182 102.235 110.949 99.037 116.756 94.657C121.573 91.024 123.487 87.882 123.487 87.882" stroke="black" stroke-linejoin="round"/>
<path d="M125.692 79.155C117.174 61.213 96.6681 67.137 87.2921 71.825C76.9491 77 67.6311 88.95 67.1001 99.327" stroke="black" stroke-linejoin="round"/>
<path d="M125.692 91.233C125.692 91.233 123.109 89.418 123.109 85.299C123.109 81.18 127.484 76.499 135.163 76.499C142.842 76.499 145.8 81.389 145.8 84.252C145.8 87.115 144.543 90.395 141.96 91.582" stroke="black" stroke-miterlimit="10"/>
<path d="M140.539 91.582C139.839 93.182 138.864 94.724 135.28 94.724C131.603 94.724 131.044 93.84 129.788 92.211" stroke="black" stroke-miterlimit="10"/>
<path d="M127.751 89.174C128.799 89.974 130.317 89.784 131.277 88.615C131.685 88.115 132.062 88.545 132.289 88.755C132.444 88.897 133.68 90.049 134.455 90.771C134.859 91.1466 135.39 91.3553 135.941 91.355C136.262 91.355 136.579 91.2844 136.869 91.148C137.159 91.0116 137.416 90.8129 137.621 90.566C138.264 89.788 139.159 88.707 139.221 88.632C139.315 88.516 139.47 88.393 139.728 88.615C140.078 88.915 140.655 89.377 141.562 89.325C142.044 89.2992 142.511 89.1538 142.922 88.9018C143.333 88.6499 143.675 88.2993 143.917 87.882" stroke="black" stroke-miterlimit="10"/>
<path d="M133.746 94.657L131.9 96.376C131.547 96.7046 131.082 96.8875 130.6 96.888H129.459C128.985 96.8879 128.528 96.7119 128.176 96.394L127.489 95.773" stroke="black" stroke-miterlimit="10"/>
<path d="M132.073 96.213C132.233 97.975 131.844 99.465 130.765 100.613" stroke="black" stroke-miterlimit="10"/>
<path d="M113.4 107.337C113.4 107.337 104.857 109.855 100.11 109.855C89.5239 109.855 87.2029 109.525 76.6909 106.592" stroke="black" stroke-linejoin="round"/>
<path d="M76.6769 106.057C76.7769 107.029 76.4099 111.857 75.7769 115.284C76.7839 115.633 76.6769 116.82 76.6769 116.82C75.7829 116.873 74.6009 116.889 73.6999 116.893C72.7307 116.901 71.7882 116.575 71.03 115.972C70.2717 115.368 69.7436 114.522 69.5339 113.576C69.5269 113.545 69.5209 113.513 69.5139 113.476C68.9579 109.685 68.8549 107.816 69.6299 103.436" stroke="black" stroke-linejoin="round"/>
<path d="M86.378 108.987C86.378 108.987 86.13 112.876 87.014 114.412C87.898 115.948 88.719 116.18 90.208 116.18C91.273 116.18 93.148 115.86 93.148 115.86C93.148 115.243 92.809 114.9 92.111 114.831C91.903 113.693 92.506 111.931 92.204 110.572" stroke="black" stroke-linejoin="round"/>
<path d="M113.4 104.684C113.4 104.684 114.564 106.825 111.911 109.664C109.258 112.503 107.536 116.646 109.281 118.464C111.026 120.282 116.752 119.209 116.752 119.209C116.752 119.209 116.629 117.952 115.876 117.859" stroke="black" stroke-linejoin="round"/>
<path d="M115.88 100.076C115.88 100.076 122.992 98.5399 122.667 104.312C122.342 110.084 115.033 114.644 115.033 116.041" stroke="black" stroke-linejoin="round"/>
<path d="M122.529 102.962C122.529 102.962 123.69 102.262 127.484 102.262C131.278 102.262 130.128 104.353 129.784 104.562C128.853 105.144 128.515 105.362 125.304 105.362H122.525" stroke="black" stroke-linejoin="round"/>
<path d="M136.211 115.715C137.293 115.645 137.456 117.115 137.456 117.115C137.456 117.115 135.838 117.584 132.906 117.537C129.974 117.49 129.183 116.417 129.788 114.555C130.393 112.693 126.973 111.582 126.374 108.664C125.891 106.317 125.692 105.375 125.692 105.375" stroke="black" stroke-linejoin="round"/>
<path d="M131.613 99.327C131.613 99.327 132.559 99.471 132.652 102.827C132.745 106.183 133.252 107.202 134.84 110.321C135.414 111.453 136.116 112.359 136.275 113.861" stroke="black" stroke-linejoin="round"/>
<path d="M101.233 109.815C98.572 108.159 97.975 105.802 98.928 102.026" stroke="black" stroke-linejoin="round"/>
<path d="M88.8091 109.376C87.8351 108.404 87.1651 106.741 87.4361 103.646" stroke="black" stroke-linejoin="round"/>
<path d="M79.6079 107.353C78.9969 106.976 78.6369 104.69 78.7929 104.081" stroke="black" stroke-linejoin="round"/>
<path d="M129.937 85.4409C130.964 85.4409 131.797 84.6082 131.797 83.5809C131.797 82.5537 130.964 81.7209 129.937 81.7209C128.91 81.7209 128.077 82.5537 128.077 83.5809C128.077 84.6082 128.91 85.4409 129.937 85.4409Z" fill="black"/>
<path d="M130.07 83.1819C130.351 83.1819 130.579 82.954 130.579 82.6729C130.579 82.3918 130.351 82.1639 130.07 82.1639C129.789 82.1639 129.561 82.3918 129.561 82.6729C129.561 82.954 129.789 83.1819 130.07 83.1819Z" fill="white"/>
<path d="M130.933 83.2711C131.043 83.2711 131.132 83.182 131.132 83.072C131.132 82.9621 131.043 82.873 130.933 82.873C130.823 82.873 130.734 82.9621 130.734 83.072C130.734 83.182 130.823 83.2711 130.933 83.2711Z" fill="white"/>
<path d="M140.762 85.4409C141.789 85.4409 142.622 84.6082 142.622 83.5809C142.622 82.5537 141.789 81.7209 140.762 81.7209C139.735 81.7209 138.902 82.5537 138.902 83.5809C138.902 84.6082 139.735 85.4409 140.762 85.4409Z" fill="black"/>
<path d="M140.895 83.1819C141.176 83.1819 141.404 82.954 141.404 82.6729C141.404 82.3918 141.176 82.1639 140.895 82.1639C140.614 82.1639 140.386 82.3918 140.386 82.6729C140.386 82.954 140.614 83.1819 140.895 83.1819Z" fill="white"/>
<path d="M141.759 83.2711C141.869 83.2711 141.958 83.182 141.958 83.072C141.958 82.9621 141.869 82.873 141.759 82.873C141.649 82.873 141.56 82.9621 141.56 83.072C141.56 83.182 141.649 83.2711 141.759 83.2711Z" fill="white"/>
<path d="M133.982 86.9661L134.571 87.5551" stroke="black" stroke-miterlimit="10" stroke-linecap="round"/>
<path d="M137.412 86.9661L136.979 87.5791" stroke="black" stroke-miterlimit="10" stroke-linecap="round"/>
<path d="M109.669 86.483L114.053 86.807C114.675 86.8531 115.296 86.7001 115.826 86.3703C116.356 86.0405 116.767 85.5508 117 84.972L119.266 79.355C119.475 78.8362 119.532 78.2686 119.431 77.7185C119.329 77.1685 119.073 76.6587 118.692 76.249L115.992 73.343C115.693 73.0215 115.326 72.771 114.918 72.6095C114.509 72.4481 114.07 72.3799 113.632 72.41L106.28 72.92C105.864 72.9487 105.46 73.0654 105.092 73.2623C104.725 73.4591 104.404 73.7317 104.15 74.062L101.03 78.117C100.579 78.7039 100.365 79.4393 100.432 80.1767C100.498 80.914 100.84 81.5993 101.389 82.096L105.935 86.206" stroke="black" stroke-linejoin="round"/>
<path d="M98.7791 67.8L103.035 70.1C103.602 70.4055 104.254 70.5166 104.89 70.416L112.667 69.1891" stroke="black" stroke-linejoin="round"/>
<path d="M92.6231 71.126L98.3131 71.682C98.5466 71.7052 98.7706 71.7867 98.9644 71.9191C99.1581 72.0515 99.3155 72.2304 99.4221 72.4395C99.5286 72.6486 99.5809 72.8812 99.5741 73.1157C99.5673 73.3503 99.5016 73.5794 99.3831 73.782L97.0521 77.754C96.9064 78.0013 96.6882 78.1978 96.427 78.3169C96.1659 78.436 95.8744 78.472 95.5921 78.42L89.8311 77.349C89.6136 77.3079 89.409 77.2158 89.234 77.0804C89.0589 76.9449 88.9185 76.7698 88.8243 76.5696C88.73 76.3693 88.6845 76.1496 88.6916 75.9284C88.6987 75.7072 88.7582 75.4908 88.8651 75.297L90.7151 71.967" stroke="black" stroke-linejoin="round"/>
<path d="M87.922 89.091L84.142 86.227C83.9091 86.0506 83.7248 85.8179 83.6062 85.5509C83.4876 85.2838 83.4387 84.9911 83.464 84.7L83.611 82.949C83.6454 82.5446 83.8209 82.1651 84.1068 81.877C84.3927 81.5889 84.7709 81.4105 85.175 81.373L95.209 80.446C95.7817 80.393 96.3574 80.5089 96.8649 80.7794C97.3725 81.0499 97.7897 81.4631 98.065 81.968L99.624 84.827C99.8588 85.2572 99.9216 85.7605 99.7998 86.2352C99.6781 86.7099 99.3808 87.1208 98.968 87.385L91.762 92" stroke="black" stroke-linejoin="round"/>
<path d="M81.569 101.705L75.469 97.135C75.1181 96.8722 74.8663 96.4986 74.7545 96.0747C74.6427 95.6508 74.6774 95.2016 74.853 94.8L77.032 89.8C77.139 89.5548 77.2953 89.3344 77.4913 89.1525C77.6873 88.9706 77.9188 88.831 78.1711 88.7426C78.4235 88.6542 78.6914 88.6188 78.9581 88.6387C79.2248 88.6585 79.4845 88.7332 79.721 88.858L87.113 92.758C87.5298 92.9777 87.8878 93.2943 88.1568 93.6812C88.4258 94.068 88.598 94.5137 88.659 94.981L88.95 97.2C88.9945 97.5494 88.9246 97.9039 88.7508 98.2103C88.5771 98.5168 88.3088 98.7587 87.986 98.9L84.979 100.213" stroke="black" stroke-linejoin="round"/>
<path d="M105.436 97.443L99.5651 99.149C99.1617 99.2667 98.7378 99.2963 98.322 99.236L93.651 98.561C93.3657 98.5197 93.1047 98.3769 92.9159 98.159C92.7272 97.941 92.6232 97.6623 92.623 97.374V95.434C92.6232 94.9938 92.7506 94.5631 92.9899 94.1937C93.2293 93.8243 93.5703 93.532 93.972 93.352L101.672 89.903C102.09 89.7161 102.545 89.6288 103.002 89.648L110.963 89.99C111.252 90.0024 111.533 90.0923 111.776 90.2501C112.019 90.408 112.215 90.6281 112.344 90.8876C112.473 91.147 112.529 91.4362 112.508 91.7251C112.487 92.014 112.389 92.292 112.224 92.53L109.672 96.213" stroke="black" stroke-linejoin="round"/>
<path d="M67.554 95.9821L71.366 93.7351C72.0009 93.3609 72.4723 92.7621 72.687 92.0571L74.238 86.9661" stroke="black" stroke-linejoin="round"/>
<path d="M82.2771 79.845L83.9641 77.845C84.2842 77.4662 84.503 77.0124 84.6001 76.526L85.3301 72.9" stroke="black" stroke-linejoin="round"/>
<path d="M75.208 81.51L80.452 82.003" stroke="black" stroke-linejoin="round"/>
<path d="M69.211 111.138C69.211 111.138 65.744 110.656 63.882 108.857C62.02 107.058 61.229 107.357 61.229 107.357" stroke="black" stroke-linejoin="round"/>
<path d="M59.4141 107.663C59.4141 107.663 53.1451 109.432 55.4141 115.343C58.0211 122.143 68.4141 123.443 77.8331 123.443H132.49C135.835 123.443 143.29 122.087 146.3 116.043C148.944 110.736 143.917 107.968 141.746 110.169" stroke="black" stroke-linejoin="round"/>
<path d="M76.175 112.102H86.351" stroke="black" stroke-linejoin="round"/>
<path d="M92.261 112.102H110.067" stroke="black" stroke-linejoin="round"/>
<path d="M118.463 112.102H128.63" stroke="black" stroke-linejoin="round"/>
<path d="M135.459 111.454C135.459 111.454 137.607 111.712 139.05 111.2" stroke="black" stroke-linejoin="round"/>
<path d="M67.095 130.919C69.0744 130.919 70.679 129.314 70.679 127.335C70.679 125.356 69.0744 123.751 67.095 123.751C65.1156 123.751 63.511 125.356 63.511 127.335C63.511 129.314 65.1156 130.919 67.095 130.919Z" stroke="black" stroke-linejoin="round"/>
<path d="M75.3549 123.441C75.3549 123.766 75.2908 124.089 75.1663 124.389C75.0418 124.69 74.8592 124.963 74.6291 125.193C74.399 125.423 74.1259 125.606 73.8252 125.73C73.5246 125.855 73.2023 125.919 72.8769 125.919C72.5515 125.919 72.2293 125.855 71.9286 125.73C71.628 125.606 71.3548 125.423 71.1247 125.193C70.8946 124.963 70.7121 124.69 70.5876 124.389C70.463 124.089 70.3989 123.766 70.3989 123.441" stroke="black" stroke-linejoin="round"/>
<path d="M130.219 131.284C132.198 131.284 133.803 129.679 133.803 127.7C133.803 125.721 132.198 124.116 130.219 124.116C128.24 124.116 126.635 125.721 126.635 127.7C126.635 129.679 128.24 131.284 130.219 131.284Z" stroke="black" stroke-linejoin="round"/>
<path d="M126.915 123.441C126.915 124.098 126.654 124.729 126.189 125.193C125.724 125.658 125.094 125.919 124.437 125.919C123.78 125.919 123.149 125.658 122.685 125.193C122.22 124.729 121.959 124.098 121.959 123.441" stroke="black" stroke-linejoin="round"/>
</svg>
