<svg width="29" height="34" viewBox="0 0 29 34" fill="none" xmlns="http://www.w3.org/2000/svg">
<path d="M14.5001 16.9167C16.173 16.9167 17.8083 16.4206 19.1993 15.4912C20.5902 14.5618 21.6744 13.2408 22.3146 11.6952C22.9548 10.1496 23.1223 8.44895 22.7959 6.8082C22.4695 5.16744 21.6639 3.66031 20.481 2.47739C19.2981 1.29447 17.791 0.488895 16.1502 0.162528C14.5095 -0.163838 12.8088 0.00366485 11.2632 0.643856C9.71766 1.28405 8.39665 2.36817 7.46723 3.75914C6.53782 5.1501 6.04175 6.78544 6.04175 8.45834C6.04175 10.7016 6.93289 12.853 8.51914 14.4393C10.1054 16.0255 12.2568 16.9167 14.5001 16.9167ZM14.5001 2.41667C15.695 2.41667 16.8631 2.77101 17.8567 3.43487C18.8502 4.09874 19.6246 5.04232 20.0819 6.14629C20.5391 7.25026 20.6588 8.46504 20.4257 9.63701C20.1925 10.809 19.6171 11.8855 18.7722 12.7304C17.9272 13.5754 16.8507 14.1508 15.6788 14.3839C14.5068 14.617 13.292 14.4974 12.188 14.0401C11.0841 13.5828 10.1405 12.8085 9.47662 11.8149C8.81275 10.8214 8.45841 9.65327 8.45841 8.45834C8.45841 6.85599 9.09495 5.31927 10.228 4.18623C11.361 3.0532 12.8977 2.41667 14.5001 2.41667Z" fill="#E8E2D5"/>
<path d="M15.7083 19.3333H13.2917C9.7665 19.3333 6.38571 20.7336 3.89304 23.2263C1.40037 25.719 0 29.0997 0 32.6249C0 32.9454 0.127306 33.2527 0.353913 33.4793C0.580519 33.7059 0.887863 33.8333 1.20833 33.8333H27.7917C28.1121 33.8333 28.4195 33.7059 28.6461 33.4793C28.8727 33.2527 29 32.9454 29 32.6249C29 29.0997 27.5996 25.719 25.107 23.2263C22.6143 20.7336 19.2335 19.3333 15.7083 19.3333ZM2.48917 31.4166C2.78629 28.759 4.05216 26.3041 6.0449 24.5209C8.03765 22.7377 10.6176 21.7512 13.2917 21.7499H15.7083C18.3824 21.7512 20.9624 22.7377 22.9551 24.5209C24.9478 26.3041 26.2137 28.759 26.5108 31.4166H2.48917Z" fill="#E8E2D5"/>
</svg>
