<svg width="505" height="529" viewBox="0 0 505 529" fill="none" xmlns="http://www.w3.org/2000/svg">
<path d="M255 4.45972C247.667 6.59305 221.5 9.49902 211.5 10.499C196 15.499 207.786 12.1931 200.853 13.7931C164.186 22.5931 125.653 42.0597 95.5192 67.1264C23.1192 127.393 -11.9474 221.66 3.65256 314.193C21.6526 420.86 103.253 504.06 210.853 525.26C224.986 528.06 230.453 528.46 257.519 528.326C285.519 528.326 289.653 527.926 305.119 524.726C356.319 513.926 396.719 492.326 432.719 456.86C481.119 408.726 506.853 344.593 504.453 277.793C502.453 224.326 484.586 176.993 451.253 136.193C442.186 124.993 439.386 122.993 435.519 125.126C431.519 127.26 432.186 129.926 440.186 141.926C459.786 171.393 472.053 204.86 476.186 239.793C480.186 272.993 477.386 300.46 466.586 333.793C456.186 366.06 432.053 402.46 406.319 424.726C366.853 458.593 321.253 475.793 270.853 475.793C135.519 475.793 40.7192 347.793 81.7859 220.46C96.4525 174.726 131.119 133.926 174.053 111.926C187.386 105.126 203.653 98.4597 207.253 98.4597C208.319 98.4597 215.386 102.46 223.119 107.26C239.919 118.06 249.519 122.06 260.986 123.26C273.253 124.46 281.519 122.46 314.186 109.66C351.519 94.9931 354.986 93.3931 359.519 88.1931C364.986 82.0598 366.186 76.1931 366.186 55.1264C366.186 38.3264 365.919 35.7931 363.253 30.4597C361.519 27.1264 358.319 23.2597 356.053 21.7931C349.786 17.5264 298.667 1.96569 292 0.499023C284.133 -1.36764 262.333 2.45972 255 4.45972Z" fill="#FAF6E8"/>
<path d="M289 87.999C297.837 87.999 305 80.8356 305 71.999C305 63.1625 297.837 55.999 289 55.999C280.164 55.999 273 63.1625 273 71.999C273 80.8356 280.164 87.999 289 87.999Z" fill="#7FB966"/>
<path d="M297.32 71.9992C297.32 76.5942 293.595 85.499 289 85.499C284.405 85.499 280.68 76.5942 280.68 71.9992C280.68 67.4042 284.405 59.499 289 59.499C293.595 59.499 297.32 67.4042 297.32 71.9992Z" fill="#1B1B1A"/>
<circle cx="295" cy="64.999" r="4" fill="#FAF6E8"/>
</svg>
