<svg width="12" height="12" viewBox="0 0 12 12" fill="none" xmlns="http://www.w3.org/2000/svg">
<path d="M7.55643 8.70703L6.40961 7.56984C5.85624 7.02101 5.57953 6.74662 5.26204 6.64632C4.98278 6.55811 4.68261 6.56134 4.40533 6.6556C4.09004 6.76278 3.81935 7.04307 3.27797 7.60366L0.530312 10.3176M7.55643 8.70703L7.79114 8.47431C8.3452 7.92486 8.62219 7.65014 8.94009 7.54983C9.21963 7.46163 9.52 7.46513 9.79747 7.55973C10.1129 7.66726 10.3836 7.94831 10.9248 8.51034L11.5 9.08921M7.55643 8.70703L10.3141 11.4701M0.530312 10.3176C0.551645 10.4908 0.587972 10.6278 0.649868 10.7493C0.781689 11.008 0.992037 11.2183 1.25076 11.3501C1.54489 11.5 1.92992 11.5 2.7 11.5H9.3C9.74983 11.5 10.0683 11.5 10.3141 11.4701M0.530312 10.3176C0.5 10.0714 0.5 9.75203 0.5 9.3V2.7C0.5 1.92993 0.5 1.54489 0.649868 1.25076C0.781689 0.992037 0.992037 0.781689 1.25076 0.649868C1.54489 0.5 1.92992 0.5 2.7 0.5H9.3C10.0701 0.5 10.4551 0.5 10.7493 0.649868C11.008 0.781689 11.2183 0.992037 11.3501 1.25076C11.5 1.54489 11.5 1.92993 11.5 2.7V9.08921M11.5 9.08921V9.3C11.5 10.0701 11.5 10.4551 11.3501 10.7493C11.2183 11.008 11.008 11.2183 10.7493 11.3501C10.6269 11.4125 10.4889 11.4488 10.3141 11.4701M9.4375 3.93742C9.4375 4.69684 8.82191 5.31243 8.0625 5.31243C7.30309 5.31243 6.6875 4.69684 6.6875 3.93742C6.6875 3.17803 7.30309 2.56242 8.0625 2.56242C8.82191 2.56242 9.4375 3.17803 9.4375 3.93742Z" stroke="#FAF6E8" stroke-linecap="round" stroke-linejoin="round"/>
</svg>
