<svg width="179" height="286" viewBox="0 0 179 286" fill="none" xmlns="http://www.w3.org/2000/svg">
<path opacity="0.6" d="M167.318 46.0441L151.915 53.9628C149.393 55.2599 147.388 57.3788 146.233 59.9693L140.41 73.0364C140.336 73.2039 140.226 73.3533 140.089 73.4744C139.951 73.5955 139.789 73.6854 139.614 73.738C139.438 73.7905 139.253 73.8045 139.072 73.7788C138.89 73.7532 138.717 73.6886 138.563 73.5895L129.471 67.7813L129.905 41.7066L133.625 32.7538C136.623 31.9054 139.368 30.3362 141.621 28.1832L161.26 9.39715C161.548 9.12089 161.778 8.78906 161.935 8.42165C162.092 8.05424 162.172 7.65888 162.172 7.25939V4.69507C162.173 3.79492 161.857 2.92326 161.28 2.23241C160.703 1.54156 159.901 1.07546 159.015 0.915547C148.907 -0.909733 137.561 -0.178127 128.511 4.68019C116.682 11.1679 113.74 16.6834 111.471 22.7371L100.038 53.2237L91.9089 49.03C91.5966 48.874 91.3204 48.6545 91.098 48.3855C90.8755 48.1164 90.7118 47.8039 90.6172 47.4679C90.5226 47.1319 90.4993 46.7798 90.5488 46.4342C90.5983 46.0887 90.7194 45.7573 90.9045 45.4613L96.6532 36.2456C97.3432 35.1397 97.8069 33.9077 98.0172 32.6212C98.2275 31.3347 98.1803 30.0192 97.8783 28.7511L93.6623 10.9447C93.5344 10.3939 93.2504 9.89158 92.8444 9.49801C92.4384 9.10443 91.9275 8.83623 91.373 8.72553C90.8185 8.61484 90.2438 8.66634 89.7178 8.87386C89.1918 9.08138 88.7367 9.43614 88.4071 9.89563C86.7084 12.2648 85.5805 14.9946 85.1115 17.8719C84.6426 20.7492 84.8454 23.6959 85.7039 26.4819L88.2856 34.8519L81.5152 44.7099C80.4389 46.2784 79.9234 48.1643 80.0521 50.0622C80.1808 51.9602 80.9462 53.7592 82.2245 55.168L92.2015 66.1272C85.5427 73.654 73.4503 87.2915 61.7447 100.5L56.2887 91.3488C55.6782 90.3234 54.6894 89.5789 53.5353 89.2755C52.3813 88.9721 51.1542 89.1342 50.1184 89.7268L42.8322 93.8883C42.4145 94.1272 41.9492 94.2708 41.4695 94.309C40.9898 94.3471 40.5076 94.2788 40.0574 94.1089C39.6072 93.939 39.2001 93.6718 38.8652 93.3262C38.5303 92.9807 38.2759 92.5654 38.1202 92.1101L32.3467 75.2461C32.0629 74.4173 31.5515 73.685 30.8711 73.1332C30.1906 72.5813 29.3686 72.2321 28.499 72.1255C27.6294 72.0189 26.7474 72.1593 25.9538 72.5304C25.1602 72.9016 24.4871 73.4886 24.0115 74.2244C21.6055 77.9436 20.5901 82.393 21.1446 86.7878C21.6991 91.1827 23.7877 95.2405 27.042 98.2456L33.242 103.95C34.234 104.87 35.521 105.408 36.873 105.467C38.225 105.526 39.554 105.103 40.6225 104.272L46.8597 100.718C47.0604 100.604 47.2858 100.54 47.5167 100.532C47.7475 100.524 47.9769 100.572 48.1851 100.672C48.3933 100.772 48.5742 100.921 48.7123 101.106C48.8503 101.291 48.9413 101.507 48.9776 101.735L50.8277 113.279L51.1104 112.947C35.5592 132.079 22.3381 152.993 11.7255 175.247C11.5147 175.694 11.3015 176.137 11.0882 176.584C-3.09991 206.344 -4.51598 248.504 11.7727 267.506C23.8949 281.642 43.9135 285.825 60.5741 278.296C77.2347 270.767 83.8688 253.836 77.2224 238.14C75.0416 232.992 74.3244 227.342 75.1496 221.813C75.9749 216.284 78.3107 211.089 81.8996 206.803L84.1093 204.164C84.1093 204.164 74.4894 205.176 68.9813 216.544C59.9913 235.144 76.9768 247.73 64.1577 261.12C52.4273 273.371 33.4503 269.616 25.058 259.947C19.0614 253.04 13.7418 229.234 24.2768 201.419C35.2806 172.368 57.2335 162.2 72.7856 153.247C72.7856 153.247 77.4976 155.606 78.0407 156.015C78.4127 156.3 80.2331 158.8 77.6439 160.479C76.0716 161.505 73.604 162.711 71.1141 163.876C67.1287 165.749 63.0938 167.951 62.6399 172.326C62.6102 172.601 61.5339 180.361 61.1321 186.025C60.8568 189.894 64.8967 191.196 66.3401 190.936C67.6818 190.688 76.0865 190.286 77.2298 189.718C81.9666 187.367 81.0837 183.582 79.933 181.713C77.2695 177.385 72.5872 170.736 72.7633 170.647C74.0901 169.977 89.6496 162.299 90.6937 161.419C97.3525 155.789 92.0676 149.515 92.0676 149.515L81.6392 139.746L84.6847 137.42C92.4694 132.328 99.2844 126.537 105.021 119.978C115.259 108.726 123.008 95.4407 127.762 80.9898L135.609 83.5368C136.683 83.8845 137.815 84.0151 138.939 83.9208C140.064 83.8265 141.158 83.5093 142.159 82.9876C143.16 82.4659 144.047 81.7502 144.768 80.8822C145.489 80.0142 146.03 79.0113 146.36 77.9319L149.137 68.8254L157.341 66.8959C161.382 65.9449 165.012 63.7246 167.699 60.5604C170.386 57.3961 171.989 53.4543 172.273 49.3128C172.314 48.7108 172.194 48.1088 171.926 47.5682C171.658 47.0277 171.251 46.5678 170.748 46.2356C170.244 45.9034 169.661 45.7106 169.059 45.677C168.456 45.6433 167.856 45.77 167.318 46.0441Z" fill="#095F3E"/>
<path d="M131.073 37.808L138.498 35.71C141.498 34.8631 144.244 33.2938 146.496 31.1393L166.133 12.3558C166.421 12.0786 166.65 11.7463 166.807 11.3786C166.964 11.0108 167.045 10.6153 167.045 10.2156V7.6438C167.046 6.74335 166.73 5.87135 166.153 5.18009C165.576 4.48883 164.774 4.02224 163.888 3.8618C153.78 2.03652 142.434 2.7706 133.384 7.62644C121.555 14.1166 118.614 19.6296 116.344 25.6833L104.465 57.3579C103.014 61.2295 100.864 64.8014 98.1213 67.8954C91.4005 75.4792 77.5745 91.0834 64.6189 105.693C45.2922 127.49 29.1248 151.894 16.5913 178.191C16.3796 178.634 16.1672 179.079 15.9539 179.525C1.76582 209.285 0.349739 251.46 16.6384 270.449C28.7606 284.585 48.7792 288.769 65.4398 281.237C82.1005 273.706 88.7345 256.777 82.0881 241.081C79.9076 235.933 79.1905 230.284 80.0158 224.754C80.8411 219.225 83.1767 214.031 86.7653 209.744L88.975 207.105" stroke="black" stroke-width="2" stroke-miterlimit="10"/>
<path d="M138.498 35.7C135.698 39.9609 134.208 44.9484 134.21 50.0467V61.5192" stroke="black" stroke-width="2" stroke-miterlimit="10"/>
<path d="M104.946 56.0584L96.7621 51.9763C96.451 51.8194 96.176 51.5993 95.9548 51.33C95.7337 51.0607 95.5712 50.7482 95.4778 50.4124C95.3844 50.0767 95.3622 49.7252 95.4125 49.3804C95.4628 49.0356 95.5847 48.7051 95.7701 48.41L101.519 39.1919C102.209 38.0859 102.672 36.854 102.883 35.5674C103.093 34.2809 103.046 32.9654 102.744 31.6973L98.5155 13.8909C98.3876 13.3401 98.1036 12.8378 97.6976 12.4442C97.2916 12.0507 96.7807 11.7825 96.2262 11.6718C95.6717 11.5611 95.097 11.6126 94.571 11.8201C94.045 12.0276 93.5899 12.3824 93.2604 12.8419C91.5618 15.2111 90.434 17.941 89.965 20.8182C89.4961 23.6954 89.6988 26.6422 90.5572 29.4281L93.1463 37.808L86.3759 47.666C85.3002 49.2351 84.7855 51.1213 84.9152 53.0193C85.0448 54.9172 85.8111 56.7159 87.0901 58.1242L92.1543 63.6992" stroke="black" stroke-width="2" stroke-miterlimit="10"/>
<path d="M142.717 21.4648C144.733 21.4648 146.367 19.8304 146.367 17.8143C146.367 15.7981 144.733 14.1637 142.717 14.1637C140.7 14.1637 139.066 15.7981 139.066 17.8143C139.066 19.8304 140.7 21.4648 142.717 21.4648Z" stroke="black" stroke-width="2" stroke-miterlimit="10"/>
<path d="M142.717 21.4648C144.733 21.4648 146.367 19.8304 146.367 17.8143C146.367 15.7981 144.733 14.1637 142.717 14.1637C140.7 14.1637 139.066 15.7981 139.066 17.8143C139.066 19.8304 140.7 21.4648 142.717 21.4648Z" fill="black"/>
<path d="M142.977 17.0331C143.529 17.0331 143.976 16.5856 143.976 16.0336C143.976 15.4816 143.529 15.0342 142.977 15.0342C142.425 15.0342 141.978 15.4816 141.978 16.0336C141.978 16.5856 142.425 17.0331 142.977 17.0331Z" fill="white"/>
<path d="M144.673 17.2067C144.889 17.2067 145.065 17.0312 145.065 16.8148C145.065 16.5984 144.889 16.423 144.673 16.423C144.457 16.423 144.281 16.5984 144.281 16.8148C144.281 17.0312 144.457 17.2067 144.673 17.2067Z" fill="white"/>
<path d="M132.638 83.936C125.044 107.064 109.87 126.954 89.5703 140.388" stroke="black" stroke-width="2" stroke-miterlimit="10"/>
<path d="M154.013 71.7841L151.235 80.8881C150.906 81.9677 150.365 82.9708 149.644 83.8389C148.923 84.7071 148.036 85.423 147.035 85.9447C146.034 86.4665 144.94 86.7836 143.815 86.8778C142.69 86.9719 141.558 86.8411 140.485 86.4929L124.25 81.2081" stroke="black" stroke-width="2" stroke-miterlimit="10"/>
<path d="M129.578 67.6895L143.426 76.5381C143.58 76.6367 143.754 76.7009 143.936 76.7261C144.117 76.7513 144.302 76.7371 144.477 76.6844C144.653 76.6316 144.815 76.5416 144.952 76.4205C145.09 76.2994 145.199 76.15 145.274 75.9826L151.099 62.9155C152.253 60.3239 154.257 58.2034 156.778 56.9039L172.182 48.9853C172.719 48.71 173.32 48.5823 173.924 48.6153C174.527 48.6484 175.11 48.8409 175.615 49.1733C176.119 49.5057 176.526 49.966 176.794 50.5073C177.063 51.0485 177.182 51.6513 177.142 52.2539C176.858 56.3955 175.255 60.3373 172.568 63.5016C169.88 66.6658 166.25 68.8861 162.209 69.8372" stroke="black" stroke-width="2" stroke-miterlimit="10"/>
<path d="M77.6363 173.608L84.806 184.674C85.3093 185.451 85.6042 186.344 85.6621 187.268C85.72 188.192 85.5391 189.115 85.1367 189.949C84.7343 190.783 84.124 191.499 83.3646 192.028C82.6052 192.558 81.7222 192.883 80.8008 192.972L71.2181 193.899C70.5142 193.967 69.8041 193.877 69.1394 193.636C68.4748 193.394 67.8723 193.008 67.376 192.504C66.8797 192 66.502 191.392 66.2704 190.724C66.0388 190.056 65.9592 189.344 66.0373 188.642L67.5253 175.287C67.6715 173.968 68.1404 172.706 68.8904 171.612C69.6404 170.517 70.6486 169.625 71.8257 169.012L82.5293 163.44C82.9576 163.214 83.3165 162.876 83.5673 162.462C83.8182 162.048 83.9517 161.573 83.9535 161.089C83.9553 160.605 83.8253 160.129 83.5775 159.713C83.3297 159.297 82.9733 158.957 82.5467 158.728L65.395 149.636" stroke="black" stroke-width="2" stroke-miterlimit="10"/>
<path d="M81.0239 137.635L96.1519 151.635C97.1402 152.55 97.8924 153.691 98.3444 154.96C98.7964 156.228 98.9348 157.588 98.7477 158.922C98.5606 160.256 98.0536 161.524 97.2699 162.62C96.4863 163.715 95.4492 164.605 94.2473 165.213" stroke="black" stroke-width="2" stroke-miterlimit="10"/>
<path d="M54.627 109.567L53.8433 104.676C53.8067 104.448 53.7154 104.233 53.5772 104.048C53.439 103.863 53.2581 103.714 53.0499 103.615C52.8417 103.515 52.6125 103.467 52.3818 103.475C52.1511 103.484 51.9259 103.548 51.7254 103.662L45.4882 107.213C44.4207 108.047 43.0916 108.473 41.7384 108.417C40.3853 108.36 39.0965 107.823 38.1027 106.903L31.9027 101.199C28.6484 98.1942 26.5598 94.1363 26.0053 89.7415C25.4508 85.3467 26.4662 80.8973 28.8722 77.178C29.348 76.4423 30.0213 75.8554 30.815 75.4845C31.6088 75.1135 32.4909 74.9734 33.3605 75.0803C34.2301 75.1871 35.0521 75.5366 35.7324 76.0887C36.4127 76.6408 36.9239 77.3733 37.2074 78.2023L42.9809 95.0663C43.1365 95.5216 43.3909 95.9369 43.7258 96.2825C44.0608 96.628 44.468 96.8952 44.9183 97.0649C45.3686 97.2346 45.8509 97.3026 46.3306 97.264C46.8102 97.2255 47.2754 97.0814 47.6929 96.842L54.9791 92.6805C56.0149 92.0879 57.242 91.9258 58.396 92.2292C59.5501 92.5326 60.5389 93.2771 61.1494 94.3024L66.6054 103.456" stroke="black" stroke-width="2" stroke-miterlimit="10"/>
</svg>
