<svg width="175" height="284" viewBox="0 0 175 284" fill="none" xmlns="http://www.w3.org/2000/svg">
<path opacity="0.6" d="M168.453 47.0971L153.049 55.0157C150.527 56.3129 148.523 58.4318 147.368 61.0223L141.545 74.0894C141.47 74.2569 141.361 74.4063 141.223 74.5274C141.086 74.6485 140.923 74.7384 140.748 74.791C140.572 74.8435 140.388 74.8574 140.206 74.8318C140.025 74.8062 139.851 74.7416 139.697 74.6424L130.605 68.8343L131.039 42.7596L134.759 33.8068C137.757 32.9583 140.502 31.3892 142.755 29.2361L162.394 10.4501C162.682 10.1739 162.912 9.84203 163.069 9.47463C163.226 9.10722 163.307 8.71186 163.307 8.31237V5.74805C163.307 4.8479 162.991 3.97624 162.414 3.28539C161.837 2.59454 161.035 2.12844 160.149 1.96853C150.041 0.143246 138.695 0.874852 129.645 5.73317C117.816 12.2209 114.875 17.7364 112.605 23.79L101.173 54.2767L93.0432 50.083C92.7309 49.927 92.4547 49.7075 92.2322 49.4384C92.0098 49.1694 91.846 48.8569 91.7514 48.5209C91.6569 48.1848 91.6336 47.8328 91.6831 47.4872C91.7325 47.1417 91.8537 46.8103 92.0388 46.5143L97.7874 37.2986C98.4775 36.1926 98.9411 34.9607 99.1514 33.6742C99.3617 32.3877 99.3145 31.0722 99.0125 29.804L94.7965 11.9976C94.6686 11.4468 94.3847 10.9446 93.9787 10.551C93.5727 10.1574 93.0618 9.88921 92.5073 9.77851C91.9527 9.66782 91.3781 9.71931 90.852 9.92684C90.326 10.1344 89.871 10.4891 89.5414 10.9486C87.8427 13.3178 86.7148 16.0476 86.2458 18.9249C85.7769 21.8022 85.9796 24.7489 86.8382 27.5348L89.4199 35.9049L82.6495 45.7629C81.5732 47.3314 81.0577 49.2173 81.1864 51.1152C81.3151 53.0132 82.0805 54.8122 83.3588 56.221L93.3358 67.1801C86.677 74.7069 74.5845 88.3444 62.8789 101.553L57.4229 92.4017C56.8125 91.3764 55.8237 90.6318 54.6696 90.3285C53.5155 90.0251 52.2884 90.1872 51.2527 90.7798L43.9664 94.9412C43.5487 95.1802 43.0834 95.3238 42.6037 95.362C42.1241 95.4001 41.6419 95.3318 41.1917 95.1619C40.7415 94.992 40.3344 94.7247 39.9995 94.3792C39.6646 94.0336 39.4102 93.6184 39.2544 93.1631L33.481 76.2991C33.1972 75.4702 32.6858 74.738 32.0053 74.1862C31.3249 73.6343 30.5029 73.2851 29.6333 73.1785C28.7637 73.0719 27.8816 73.2122 27.0881 73.5834C26.2945 73.9545 25.6214 74.5416 25.1457 75.2773C22.7397 78.9966 21.7244 83.446 22.2789 87.8408C22.8333 92.2356 24.9219 96.2935 28.1763 99.2986L34.3763 105.003C35.3683 105.923 36.6553 106.461 38.0073 106.52C39.3593 106.579 40.6883 106.156 41.7568 105.325L47.994 101.771C48.1947 101.657 48.4201 101.593 48.6509 101.585C48.8818 101.577 49.1112 101.625 49.3194 101.725C49.5276 101.825 49.7085 101.974 49.8465 102.159C49.9846 102.344 50.0756 102.56 50.1119 102.788L51.962 114.332L52.2447 114C36.6935 133.132 23.4724 154.046 12.8598 176.3C12.649 176.747 12.4357 177.19 12.2225 177.637C-1.96563 207.397 -3.38171 249.557 12.9069 268.559C25.0292 282.695 45.0477 286.878 61.7084 279.349C78.369 271.82 85.003 254.889 78.3566 239.193C76.1759 234.045 75.4586 228.395 76.2839 222.866C77.1092 217.336 79.445 212.142 83.0339 207.856L85.2436 205.217C85.2436 205.217 75.6236 206.229 70.1156 217.597C61.1256 236.197 78.1111 248.783 65.292 262.173C53.5616 274.424 34.5846 270.669 26.1923 261C20.1957 254.093 14.876 230.287 25.4111 202.472C36.4148 173.421 58.3678 163.253 73.9199 154.3C73.9199 154.3 78.6319 156.659 79.175 157.068C79.547 157.353 81.3673 159.853 78.7782 161.532C77.2059 162.558 74.7383 163.764 72.2484 164.929C68.263 166.802 64.228 169.004 63.7742 173.379C63.7444 173.654 62.6681 181.414 62.2664 187.078C61.9911 190.947 66.031 192.249 67.4744 191.989C68.8161 191.741 77.2208 191.339 78.3641 190.771C83.1009 188.42 82.218 184.635 81.0673 182.765C78.4037 178.438 73.7215 171.789 73.8976 171.7C75.2244 171.03 90.7839 163.352 91.828 162.472C98.4868 156.842 93.2019 150.568 93.2019 150.568L82.7735 140.799L85.8189 138.473C93.6037 133.381 100.419 127.59 106.155 121.031C116.393 109.779 124.143 96.4937 128.897 82.0428L136.743 84.5897C137.817 84.9375 138.949 85.0681 140.074 84.9738C141.198 84.8795 142.293 84.5623 143.293 84.0406C144.294 83.5189 145.181 82.8031 145.902 81.9351C146.623 81.0671 147.164 80.0642 147.494 78.9849L150.272 69.8784L158.475 67.9489C162.516 66.9979 166.146 64.7776 168.834 61.6133C171.521 58.4491 173.124 54.5073 173.408 50.3657C173.448 49.7637 173.328 49.1618 173.06 48.6212C172.792 48.0807 172.385 47.6208 171.882 47.2886C171.378 46.9563 170.795 46.7636 170.193 46.7299C169.591 46.6963 168.99 46.823 168.453 47.0971Z" fill="#FEDB5E"/>
<path d="M127.207 35.861L134.632 33.7629C137.632 32.9161 140.378 31.3467 142.63 29.1923L162.267 10.4088C162.555 10.1316 162.784 9.79926 162.941 9.43154C163.098 9.06383 163.179 8.66829 163.18 8.26853V5.69678C163.18 4.79633 162.864 3.92433 162.287 3.23307C161.71 2.54181 160.909 2.07522 160.023 1.91478C149.914 0.0894955 138.568 0.823574 129.519 5.67941C117.689 12.1696 114.748 17.6826 112.479 23.7363L100.599 55.4109C99.1485 59.2825 96.9982 62.8544 94.2555 65.9484C87.5347 73.5322 73.7087 89.1364 60.7532 103.746C41.4264 125.542 25.2591 149.947 12.7255 176.244C12.5139 176.687 12.3015 177.132 12.0882 177.578C-2.09991 207.338 -3.51598 249.513 12.7727 268.502C24.8949 282.638 44.9135 286.822 61.5741 279.29C78.2347 271.759 84.8688 254.83 78.2224 239.134C76.0419 233.986 75.3248 228.337 76.1501 222.807C76.9754 217.278 79.311 212.084 82.8996 207.797L85.1093 205.158" stroke="black" stroke-width="2" stroke-miterlimit="10"/>
<path d="M134.632 33.7529C131.833 38.0139 130.342 43.0014 130.344 48.0997V59.5722" stroke="black" stroke-width="2" stroke-miterlimit="10"/>
<path d="M101.08 54.1112L92.8964 50.0291C92.5852 49.8723 92.3103 49.6521 92.0891 49.3828C91.8679 49.1135 91.7055 48.801 91.6121 48.4653C91.5187 48.1296 91.4964 47.778 91.5468 47.4332C91.5971 47.0884 91.7189 46.7579 91.9044 46.4629L97.653 37.2447C98.3431 36.1388 98.8067 34.9068 99.017 33.6203C99.2274 32.3338 99.1801 31.0183 98.8782 29.7502L94.6497 11.9438C94.5218 11.393 94.2379 10.8907 93.8319 10.4971C93.4259 10.1035 92.915 9.83533 92.3605 9.72463C91.8059 9.61394 91.2313 9.66544 90.7053 9.87296C90.1793 10.0805 89.7242 10.4352 89.3946 10.8947C87.6961 13.264 86.5683 15.9938 86.0993 18.8711C85.6304 21.7483 85.833 24.695 86.6914 27.481L89.2805 35.8609L82.5102 45.7189C81.4345 47.288 80.9198 49.1742 81.0494 51.0721C81.1791 52.9701 81.9454 54.7688 83.2244 56.177L88.2885 61.7521" stroke="black" stroke-width="2" stroke-miterlimit="10"/>
<path d="M138.851 19.5177C140.867 19.5177 142.501 17.8833 142.501 15.8671C142.501 13.851 140.867 12.2166 138.851 12.2166C136.835 12.2166 135.2 13.851 135.2 15.8671C135.2 17.8833 136.835 19.5177 138.851 19.5177Z" stroke="black" stroke-width="2" stroke-miterlimit="10"/>
<path d="M138.851 19.5177C140.867 19.5177 142.501 17.8833 142.501 15.8671C142.501 13.851 140.867 12.2166 138.851 12.2166C136.835 12.2166 135.2 13.851 135.2 15.8671C135.2 17.8833 136.835 19.5177 138.851 19.5177Z" fill="black"/>
<path d="M139.111 15.086C139.663 15.086 140.111 14.6386 140.111 14.0866C140.111 13.5346 139.663 13.0872 139.111 13.0872C138.559 13.0872 138.112 13.5346 138.112 14.0866C138.112 14.6386 138.559 15.086 139.111 15.086Z" fill="white"/>
<path d="M140.807 15.2595C141.024 15.2595 141.199 15.0841 141.199 14.8677C141.199 14.6513 141.024 14.4758 140.807 14.4758C140.591 14.4758 140.416 14.6513 140.416 14.8677C140.416 15.0841 140.591 15.2595 140.807 15.2595Z" fill="white"/>
<path d="M128.772 81.989C121.179 105.117 106.005 125.007 85.7046 138.441" stroke="black" stroke-width="2" stroke-miterlimit="10"/>
<path d="M150.147 69.8372L147.37 78.9412C147.04 80.0208 146.499 81.0239 145.778 81.892C145.057 82.7602 144.17 83.4761 143.169 83.9978C142.169 84.5196 141.074 84.8367 139.949 84.9309C138.825 85.025 137.692 84.8942 136.619 84.546L120.385 79.2612" stroke="black" stroke-width="2" stroke-miterlimit="10"/>
<path d="M125.712 65.7426L139.56 74.5912C139.715 74.6898 139.888 74.754 140.07 74.7792C140.251 74.8044 140.436 74.7902 140.612 74.7375C140.787 74.6847 140.949 74.5947 141.086 74.4736C141.224 74.3525 141.333 74.2031 141.408 74.0357L147.233 60.9686C148.387 58.377 150.391 56.2565 152.913 54.957L168.316 47.0384C168.854 46.7631 169.455 46.6354 170.058 46.6684C170.661 46.7015 171.245 46.894 171.749 47.2264C172.253 47.5588 172.66 48.0191 172.929 48.5604C173.197 49.1016 173.317 49.7044 173.276 50.307C172.992 54.4486 171.389 58.3904 168.702 61.5547C166.015 64.7189 162.385 66.9392 158.344 67.8903" stroke="black" stroke-width="2" stroke-miterlimit="10"/>
<path d="M73.7706 171.661L80.9402 182.727C81.4436 183.504 81.7385 184.397 81.7964 185.321C81.8543 186.245 81.6734 187.168 81.271 188.002C80.8686 188.836 80.2583 189.552 79.4989 190.081C78.7394 190.611 77.8565 190.936 76.9351 191.025L67.3523 191.952C66.6485 192.02 65.9383 191.93 65.2737 191.689C64.609 191.447 64.0066 191.061 63.5103 190.557C63.014 190.053 62.6363 189.445 62.4047 188.777C62.1731 188.109 62.0935 187.397 62.1716 186.695L63.6596 173.34C63.8058 172.021 64.2746 170.759 65.0247 169.665C65.7747 168.57 66.7829 167.678 67.9599 167.065L78.6636 161.493C79.0919 161.267 79.4507 160.929 79.7016 160.515C79.9525 160.101 80.086 159.626 80.0878 159.142C80.0896 158.658 79.9596 158.182 79.7118 157.766C79.4639 157.35 79.1076 157.01 78.681 156.781L61.5293 147.689" stroke="black" stroke-width="2" stroke-miterlimit="10"/>
<path d="M77.1582 135.688L92.2862 149.688C93.2745 150.603 94.0267 151.744 94.4787 153.012C94.9307 154.281 95.0691 155.641 94.882 156.975C94.6948 158.308 94.1878 159.577 93.4042 160.673C92.6205 161.768 91.5835 162.658 90.3816 163.266" stroke="black" stroke-width="2" stroke-miterlimit="10"/>
<path d="M50.7612 107.62L49.9776 102.729C49.9409 102.501 49.8496 102.286 49.7115 102.101C49.5733 101.916 49.3924 101.767 49.1842 101.668C48.976 101.568 48.7468 101.52 48.5161 101.528C48.2854 101.537 48.0602 101.601 47.8596 101.715L41.6224 105.266C40.555 106.1 39.2258 106.526 37.8727 106.47C36.5196 106.413 35.2308 105.876 34.237 104.956L28.037 99.2523C24.7826 96.2472 22.694 92.1893 22.1396 87.7945C21.5851 83.3997 22.6004 78.9503 25.0064 75.231C25.4823 74.4953 26.1556 73.9084 26.9493 73.5374C27.743 73.1664 28.6252 73.0264 29.4948 73.1332C30.3644 73.2401 31.1864 73.5896 31.8667 74.1417C32.547 74.6938 33.0582 75.4263 33.3417 76.2553L39.1152 93.1193C39.2708 93.5746 39.5252 93.9899 39.8601 94.3354C40.1951 94.681 40.6023 94.9482 41.0526 95.1178C41.5029 95.2875 41.9852 95.3556 42.4648 95.317C42.9445 95.2785 43.4097 95.1343 43.8272 94.8949L51.1134 90.7335C52.1492 90.1409 53.3762 89.9788 54.5303 90.2822C55.6844 90.5855 56.6732 91.3301 57.2836 92.3554L62.7396 101.509" stroke="black" stroke-width="2" stroke-miterlimit="10"/>
</svg>
