<svg width="393" height="697" viewBox="0 0 393 697" fill="none" xmlns="http://www.w3.org/2000/svg">
<path opacity="0.6" d="M262.58 330.32L262.059 330.731C262.325 314.892 260.996 297.762 259.755 285.784C258.768 276.155 256.801 266.653 253.885 257.424L265.151 264.992C271.703 269.4 279.579 271.404 287.442 270.664L301.948 269.292C303.508 269.146 305.002 268.595 306.284 267.694C307.566 266.793 308.591 265.574 309.257 264.156C311.491 259.838 315.638 252.663 313.157 246.81C308.935 236.592 302.578 227.395 294.512 219.834C286.445 212.273 276.857 206.523 266.388 202.969C255.02 199.099 242.616 199.627 231.618 204.447C224.312 207.67 218.215 211.612 214.485 222.697C210.809 233.633 211.086 235.356 213.067 266.818C214.003 281.778 215.698 293.051 214.365 315.945H209.682L205.428 315.533C194.116 295.384 175.182 283.504 151.7 283.504C128.172 283.504 95.2352 297.642 99.4147 335.669C100.602 346.485 106.253 354.659 114.683 360.484L114.222 360.367H90.3573C80.9096 360.366 71.7486 363.612 64.4079 369.559C59.7008 373.372 55.905 378.188 53.2978 383.656C50.6905 389.124 49.3377 395.105 49.3381 401.163L51.185 398.281C55.4137 391.683 61.4579 386.448 68.591 383.204C75.9271 379.928 84.1844 379.348 91.9064 381.566L102.187 384.441L102.995 384.324C80.1937 399.833 75.4789 425.092 86.5925 448.978C94.154 465.232 114.8 478.66 145.227 478.66C169.304 478.66 204.896 465.189 225.734 445.312L225.787 445.209C237.634 450.566 250.832 454.285 266.622 454.285C296.846 454.285 324.292 429.47 324.292 385.82C324.274 340.685 262.58 330.32 262.58 330.32ZM145.755 414.418C140.696 414.542 137.477 413.29 136.683 412.319C135.889 411.348 136.683 410.979 136.683 410.979C142.575 407.604 154.866 407.561 161.761 409.976C159.212 411.468 150.796 414.293 145.755 414.418ZM155.298 313.346C153.306 312.57 151.594 311.769 151.753 310.592C151.991 308.681 155.724 306.561 160.378 307.756C166.731 309.372 168.096 314.112 168.096 315.955C163.714 315.806 159.388 314.924 155.298 313.346Z" fill="#C65E32"/>
<path d="M261.276 263.347L272.538 270.916C279.091 275.324 286.967 277.328 294.829 276.588L306.379 275.492C308.836 275.261 311.19 274.393 313.209 272.976C315.229 271.558 316.844 269.638 317.897 267.406L320.275 262.358C321.509 259.746 321.615 255.424 320.513 252.751C316.296 242.536 309.945 233.34 301.885 225.778C293.825 218.216 284.243 212.464 273.779 208.907C262.306 205.007 249.783 205.582 238.716 210.516C231.54 213.707 225.553 217.702 221.877 228.638C218.201 239.575 218.477 241.294 220.459 272.759C221.969 296.926 228.286 343.411 202.709 384.072" stroke="black" stroke-width="3" stroke-miterlimit="10"/>
<path d="M253.991 404.442C253.991 404.442 266.558 378.209 268.93 348.112C271.301 318.015 265.299 276.052 265.299 276.052" stroke="black" stroke-width="3" stroke-miterlimit="10"/>
<path d="M268.49 384.058C278.005 389.73 278.728 398.238 271.096 402.769C257.05 411.11 248.716 400.322 217.049 388.971C185.381 377.62 162.14 371.434 132.362 380.166C91.1549 392.251 79.896 424.677 93.9626 454.905C101.524 471.159 122.167 484.591 152.597 484.591C176.671 484.591 212.266 471.12 233.104 451.243" stroke="black" stroke-width="3" stroke-miterlimit="10"/>
<path d="M169.152 415.899C151.576 424.34 141.547 418.434 144.075 416.902C148.754 414.066 160.456 413.003 169.152 415.899ZM169.152 415.899C202.691 427.112 226.833 460.212 273.992 460.212C304.22 460.212 331.662 435.397 331.662 391.747C331.662 346.605 269.979 336.24 269.979 336.24" stroke="black" stroke-width="3" stroke-miterlimit="10"/>
<path d="M217.052 321.868H175.469C172.077 321.868 159.13 319.525 159.13 316.515C159.13 313.505 168.649 310.843 174.019 317.703" stroke="black" stroke-width="3" stroke-miterlimit="10"/>
<path d="M149.931 376.603C127.186 373.026 109.032 362.019 106.788 341.592C102.609 303.562 135.552 289.428 159.077 289.428C182.719 289.428 201.755 301.481 213.039 321.868" stroke="black" stroke-width="3" stroke-miterlimit="10"/>
<path d="M109.561 390.358L98.8511 387.355C91.2959 385.237 83.2366 385.846 76.0851 389.074C68.906 392.311 62.8228 397.565 58.5764 404.197L56.7259 407.079C56.7255 401.022 58.0783 395.041 60.6856 389.573C63.2928 384.105 67.0887 379.289 71.7957 375.476C79.1364 369.528 88.2974 366.283 97.7451 366.283H121.599" stroke="black" stroke-width="3" stroke-miterlimit="10"/>
<path d="M287.523 254.07C291.402 254.07 294.546 250.926 294.546 247.047C294.546 243.169 291.402 240.025 287.523 240.025C283.645 240.025 280.5 243.169 280.5 247.047C280.5 250.926 283.645 254.07 287.523 254.07Z" fill="black"/>
<path d="M310.427 264.854C311.351 264.854 312.101 264.105 312.101 263.181C312.101 262.256 311.351 261.507 310.427 261.507C309.503 261.507 308.754 262.256 308.754 263.181C308.754 264.105 309.503 264.854 310.427 264.854Z" fill="black"/>
<path d="M288.026 245.541C289.088 245.541 289.948 244.681 289.948 243.619C289.948 242.558 289.088 241.698 288.026 241.698C286.965 241.698 286.105 242.558 286.105 243.619C286.105 244.681 286.965 245.541 288.026 245.541Z" fill="white"/>
<path d="M291.284 245.874C291.699 245.874 292.036 245.537 292.036 245.122C292.036 244.707 291.699 244.371 291.284 244.371C290.869 244.371 290.533 244.707 290.533 245.122C290.533 245.537 290.869 245.874 291.284 245.874Z" fill="white"/>
</svg>
