<svg width="393" height="697" viewBox="0 0 393 697" fill="none" xmlns="http://www.w3.org/2000/svg">
<path opacity="0.6" d="M270.242 336.913L269.721 337.325C269.987 321.486 268.658 304.356 267.417 292.378C266.43 282.749 264.463 273.247 261.547 264.018L272.812 271.586C279.365 275.994 287.241 277.998 295.103 277.258L309.61 275.886C311.17 275.74 312.664 275.189 313.946 274.288C315.228 273.387 316.253 272.168 316.919 270.75C319.153 266.432 323.3 259.257 320.819 253.404C316.597 243.186 310.239 233.989 302.173 226.428C294.107 218.867 284.519 213.117 274.05 209.563C262.682 205.693 250.278 206.221 239.28 211.041C231.974 214.264 225.877 218.206 222.147 229.291C218.471 240.227 218.748 241.95 220.729 273.412C221.665 288.372 223.36 299.645 222.027 322.539H217.344L213.09 322.127C201.778 301.978 182.844 290.098 159.362 290.098C135.834 290.098 102.897 304.236 107.077 342.263C108.264 353.079 113.915 361.253 122.345 367.078L121.884 366.961H98.0192C88.5715 366.96 79.4105 370.206 72.0698 376.153C67.3628 379.966 63.567 384.782 60.9597 390.25C58.3525 395.718 56.9996 401.699 57 407.757L58.847 404.875C63.0757 398.277 69.1199 393.042 76.2529 389.798C83.589 386.522 91.8463 385.942 99.5684 388.16L109.849 391.035L110.657 390.918C87.8557 406.427 83.1408 431.686 94.2544 455.572C101.816 471.826 122.462 485.254 152.889 485.254C176.966 485.254 212.558 471.783 233.396 451.906L233.449 451.803C245.296 457.16 258.494 460.879 274.284 460.879C304.508 460.879 331.954 436.064 331.954 392.414C331.936 347.279 270.242 336.913 270.242 336.913ZM153.417 421.012C148.358 421.136 145.139 419.884 144.345 418.913C143.551 417.942 144.345 417.573 144.345 417.573C150.237 414.198 162.528 414.155 169.423 416.57C166.874 418.062 158.458 420.887 153.417 421.012ZM162.96 319.94C160.968 319.164 159.256 318.363 159.415 317.186C159.653 315.275 163.385 313.155 168.04 314.35C174.393 315.966 175.757 320.706 175.757 322.549C171.376 322.4 167.05 321.518 162.96 319.94Z" fill="#B2FBD9"/>
<path d="M261.276 263.347L272.538 270.916C279.091 275.324 286.967 277.328 294.829 276.588L306.379 275.492C308.836 275.261 311.19 274.393 313.209 272.976C315.229 271.558 316.844 269.638 317.897 267.406L320.275 262.358C321.509 259.746 321.615 255.424 320.513 252.751C316.296 242.536 309.945 233.34 301.885 225.778C293.825 218.216 284.243 212.464 273.779 208.907C262.306 205.007 249.783 205.582 238.716 210.516C231.54 213.707 225.553 217.702 221.877 228.638C218.201 239.575 218.477 241.294 220.459 272.759C221.969 296.926 228.286 343.411 202.709 384.072" stroke="black" stroke-width="3" stroke-miterlimit="10"/>
<path d="M253.991 404.442C253.991 404.442 266.558 378.209 268.93 348.112C271.301 318.015 265.299 276.052 265.299 276.052" stroke="black" stroke-width="3" stroke-miterlimit="10"/>
<path d="M268.49 384.058C278.005 389.73 278.728 398.238 271.096 402.769C257.05 411.11 248.716 400.322 217.049 388.971C185.381 377.62 162.14 371.434 132.362 380.166C91.1549 392.251 79.896 424.677 93.9626 454.905C101.524 471.159 122.167 484.591 152.597 484.591C176.671 484.591 212.266 471.12 233.104 451.243" stroke="black" stroke-width="3" stroke-miterlimit="10"/>
<path d="M169.152 415.899C151.576 424.34 141.547 418.434 144.075 416.902C148.754 414.066 160.456 413.003 169.152 415.899ZM169.152 415.899C202.691 427.112 226.833 460.212 273.992 460.212C304.22 460.212 331.662 435.397 331.662 391.747C331.662 346.605 269.979 336.24 269.979 336.24" stroke="black" stroke-width="3" stroke-miterlimit="10"/>
<path d="M217.052 321.868H175.469C172.077 321.868 159.13 319.525 159.13 316.515C159.13 313.505 168.649 310.843 174.019 317.703" stroke="black" stroke-width="3" stroke-miterlimit="10"/>
<path d="M149.931 376.603C127.186 373.026 109.032 362.019 106.788 341.592C102.609 303.562 135.552 289.428 159.077 289.428C182.719 289.428 201.755 301.481 213.039 321.868" stroke="black" stroke-width="3" stroke-miterlimit="10"/>
<path d="M109.561 390.358L98.8511 387.355C91.2959 385.237 83.2366 385.846 76.0851 389.074C68.906 392.311 62.8228 397.565 58.5764 404.197L56.7259 407.079C56.7255 401.022 58.0783 395.041 60.6856 389.573C63.2928 384.105 67.0887 379.289 71.7957 375.476C79.1364 369.528 88.2974 366.283 97.7451 366.283H121.599" stroke="black" stroke-width="3" stroke-miterlimit="10"/>
<path d="M287.523 254.07C291.402 254.07 294.546 250.926 294.546 247.047C294.546 243.169 291.402 240.025 287.523 240.025C283.645 240.025 280.5 243.169 280.5 247.047C280.5 250.926 283.645 254.07 287.523 254.07Z" fill="black"/>
<path d="M310.427 264.854C311.351 264.854 312.101 264.105 312.101 263.181C312.101 262.256 311.351 261.507 310.427 261.507C309.503 261.507 308.754 262.256 308.754 263.181C308.754 264.105 309.503 264.854 310.427 264.854Z" fill="black"/>
<path d="M288.026 245.541C289.088 245.541 289.948 244.681 289.948 243.619C289.948 242.558 289.088 241.698 288.026 241.698C286.965 241.698 286.105 242.558 286.105 243.619C286.105 244.681 286.965 245.541 288.026 245.541Z" fill="white"/>
<path d="M291.284 245.874C291.699 245.874 292.036 245.537 292.036 245.122C292.036 244.707 291.699 244.371 291.284 244.371C290.869 244.371 290.533 244.707 290.533 245.122C290.533 245.537 290.869 245.874 291.284 245.874Z" fill="white"/>
</svg>
