<svg width="365" height="365" viewBox="0 0 365 365" fill="none" xmlns="http://www.w3.org/2000/svg">
<g opacity="0.6">
<path d="M120.096 242.068C123.708 242.068 126.637 239.14 126.637 235.527C126.637 231.915 123.708 228.987 120.096 228.987C116.484 228.987 113.555 231.915 113.555 235.527C113.555 239.14 116.484 242.068 120.096 242.068Z" fill="#095F3E"/>
<path d="M253.564 204.218C252.115 206.189 250.715 206.995 249.313 206.995C247.411 206.964 245.512 206.821 243.627 206.566C243.262 205.882 242.862 205.21 242.497 204.49C239.61 198.799 238.675 196.93 238.506 190.815C238.347 185.134 236.847 184.504 236.635 184.442C237.392 182.787 237.641 180.879 237.447 178.752L240.5 175.912L243.3 176.034C249.118 176.034 251.171 173.809 252.451 171.262C253.801 171.079 255.489 170.302 255.489 170.302C260.203 168.136 262.497 162.146 262.497 156.923C262.497 151.7 257.102 142.781 243.088 142.781C235.551 142.781 229.766 145.25 226.017 148.701C225.91 147.778 225.8 147.63 225.8 147.63C210.257 114.884 172.831 125.697 155.72 134.251C136.842 143.69 119.835 165.504 118.855 184.438C118.814 186.426 118.899 188.414 119.109 190.391C119.109 190.391 119.839 191.262 123.469 192.017C122.39 198.142 122.259 201.579 122.717 205.991C122.717 205.991 116.389 205.114 112.993 201.829C109.597 198.544 108.151 199.091 108.151 199.091C107.022 199.079 105.9 199.27 104.839 199.657C104.839 199.657 93.3963 202.887 97.5391 213.673C101.056 222.844 112.347 226.53 124.94 227.829H124.89C124.89 231.215 126.914 232.978 129.413 232.978C131.853 232.978 133.835 230.821 133.926 228.393C135.441 228.435 136.954 228.454 138.452 228.454H218.987C218.987 229.653 219.464 230.803 220.312 231.651C221.16 232.499 222.31 232.976 223.51 232.976C224.709 232.976 225.859 232.499 226.707 231.651C227.556 230.803 228.032 229.653 228.032 228.454H238.203C244.307 228.454 257.913 225.981 263.406 214.949C268.233 205.249 257.524 200.203 253.564 204.218ZM154.03 206.136L135.811 206.048C136.269 202.157 136.492 198.779 136.375 197.69C143.998 199.816 149.26 201.192 154.045 202.07C154.041 202.261 153.939 204.052 154.03 206.136ZM200.659 203.305C199.767 204.262 198.944 205.28 198.197 206.353L164.834 206.194C164.822 205.779 164.772 205.366 164.686 204.96C164.686 204.96 164.528 204.13 164.334 203.338C168.386 203.592 172.994 203.652 179.117 203.652C187.78 203.652 203.373 199.056 203.373 199.056C202.94 200.301 202.113 201.741 200.659 203.305ZM213.815 206.428C216.553 203.325 219.194 199.593 220.029 195.478H225.101H225.959C226.141 196.669 226.492 198.781 227.054 201.484C227.485 203.577 228.709 205.159 229.974 206.517L213.815 206.428Z" fill="#095F3E"/>
<path d="M235.296 229.653C234.002 229.653 232.737 230.036 231.662 230.755C230.586 231.474 229.748 232.495 229.253 233.69C228.758 234.886 228.628 236.201 228.881 237.469C229.133 238.738 229.756 239.904 230.671 240.818C231.585 241.733 232.751 242.356 234.02 242.609C235.288 242.861 236.604 242.731 237.799 242.236C238.994 241.741 240.015 240.903 240.734 239.827C241.453 238.752 241.836 237.487 241.836 236.193C241.836 234.459 241.147 232.795 239.921 231.568C238.694 230.342 237.03 229.653 235.296 229.653Z" fill="#095F3E"/>
</g>
<path d="M122.7 187.227C122.7 187.227 127.08 192.445 167.719 188.431C186.482 186.579 202.482 180.743 213.08 172.749C221.871 166.119 225.364 160.385 225.364 160.385" stroke="black" stroke-width="2" stroke-linejoin="round"/>
<path d="M229.388 144.458C213.843 111.714 176.419 122.525 159.308 131.081C140.432 140.525 123.427 162.334 122.458 181.272" stroke="black" stroke-width="2" stroke-linejoin="round"/>
<path d="M229.388 166.5C229.388 166.5 224.674 163.188 224.674 155.671C224.674 148.153 232.658 139.611 246.672 139.611C260.687 139.611 266.085 148.535 266.085 153.76C266.085 158.985 263.791 164.971 259.077 167.137" stroke="black" stroke-width="2" stroke-miterlimit="10"/>
<path d="M256.484 167.137C255.206 170.057 253.427 172.871 246.886 172.871C240.176 172.871 239.155 171.258 236.863 168.285" stroke="black" stroke-width="2" stroke-miterlimit="10"/>
<path d="M233.146 162.743C235.058 164.203 237.828 163.856 239.58 161.722C240.325 160.81 241.013 161.595 241.427 161.978C241.71 162.237 243.966 164.34 245.38 165.657C246.117 166.343 247.086 166.724 248.092 166.723C248.678 166.723 249.256 166.594 249.786 166.345C250.316 166.096 250.784 165.734 251.158 165.283C252.332 163.863 253.965 161.89 254.078 161.754C254.25 161.542 254.533 161.317 255.004 161.722C255.642 162.27 256.695 163.113 258.351 163.018C259.229 162.971 260.083 162.706 260.833 162.246C261.584 161.786 262.208 161.146 262.648 160.385" stroke="black" stroke-width="2" stroke-miterlimit="10"/>
<path d="M244.086 172.749L240.718 175.886C240.073 176.486 239.225 176.82 238.345 176.821H236.263C235.398 176.82 234.563 176.499 233.921 175.919L232.667 174.786" stroke="black" stroke-width="2" stroke-miterlimit="10"/>
<path d="M241.033 175.589C241.325 178.804 240.615 181.524 238.646 183.619" stroke="black" stroke-width="2" stroke-miterlimit="10"/>
<path d="M206.955 195.89C206.955 195.89 191.364 200.485 182.701 200.485C163.381 200.485 159.146 199.883 139.961 194.531" stroke="black" stroke-width="2" stroke-linejoin="round"/>
<path d="M139.935 193.554C140.118 195.328 139.448 204.139 138.293 210.393C140.131 211.03 139.935 213.197 139.935 213.197C138.304 213.293 136.147 213.322 134.502 213.33C132.734 213.344 131.014 212.75 129.63 211.648C128.246 210.547 127.282 209.003 126.899 207.276C126.887 207.22 126.876 207.161 126.863 207.094C125.848 200.175 125.66 196.764 127.075 188.771" stroke="black" stroke-width="2" stroke-linejoin="round"/>
<path d="M157.64 198.901C157.64 198.901 157.187 205.999 158.8 208.802C160.414 211.605 161.912 212.029 164.63 212.029C166.573 212.029 169.995 211.445 169.995 211.445C169.995 210.319 169.376 209.693 168.102 209.567C167.723 207.49 168.823 204.274 168.272 201.794" stroke="black" stroke-width="2" stroke-linejoin="round"/>
<path d="M206.955 191.048C206.955 191.048 209.079 194.956 204.238 200.137C199.396 205.318 196.253 212.879 199.438 216.197C202.623 219.515 213.072 217.556 213.072 217.556C213.072 217.556 212.848 215.262 211.474 215.093" stroke="black" stroke-width="2" stroke-linejoin="round"/>
<path d="M211.481 182.639C211.481 182.639 224.46 179.836 223.867 190.369C223.274 200.903 209.935 209.225 209.935 211.775" stroke="black" stroke-width="2" stroke-linejoin="round"/>
<path d="M223.615 187.906C223.615 187.906 225.734 186.628 232.658 186.628C239.582 186.628 237.483 190.444 236.856 190.826C235.157 191.888 234.54 192.286 228.68 192.286H223.608" stroke="black" stroke-width="2" stroke-linejoin="round"/>
<path d="M248.585 211.18C250.56 211.052 250.857 213.735 250.857 213.735C250.857 213.735 247.904 214.591 242.553 214.505C237.202 214.419 235.759 212.461 236.863 209.063C237.967 205.665 231.726 203.637 230.632 198.312C229.751 194.028 229.388 192.309 229.388 192.309" stroke="black" stroke-width="2" stroke-linejoin="round"/>
<path d="M240.194 181.272C240.194 181.272 241.92 181.535 242.09 187.659C242.26 193.784 243.185 195.644 246.083 201.336C247.131 203.402 248.412 205.055 248.702 207.796" stroke="black" stroke-width="2" stroke-linejoin="round"/>
<path d="M184.75 200.412C179.894 197.39 178.805 193.089 180.544 186.198" stroke="black" stroke-width="2" stroke-linejoin="round"/>
<path d="M162.077 199.611C160.299 197.837 159.076 194.802 159.571 189.154" stroke="black" stroke-width="2" stroke-linejoin="round"/>
<path d="M145.285 195.919C144.17 195.231 143.513 191.059 143.797 189.948" stroke="black" stroke-width="2" stroke-linejoin="round"/>
<path d="M244.517 158.713L245.592 159.788" stroke="black" stroke-width="2" stroke-miterlimit="10" stroke-linecap="round"/>
<path d="M250.777 158.713L249.987 159.832" stroke="black" stroke-width="2" stroke-miterlimit="10" stroke-linecap="round"/>
<path d="M236 152L242 154" stroke="black" stroke-width="2" stroke-miterlimit="10" stroke-linecap="round"/>
<path d="M257 152L252 154" stroke="black" stroke-width="2" stroke-miterlimit="10" stroke-linecap="round"/>
<path d="M200.146 157.832L208.147 158.423C209.283 158.507 210.416 158.228 211.382 157.626C212.349 157.024 213.1 156.13 213.525 155.074L217.661 144.823C218.042 143.876 218.147 142.84 217.961 141.836C217.776 140.833 217.308 139.902 216.613 139.155L211.686 133.851C211.14 133.264 210.47 132.807 209.725 132.513C208.98 132.218 208.178 132.094 207.379 132.148L193.961 133.079C193.203 133.132 192.464 133.344 191.794 133.704C191.124 134.063 190.537 134.56 190.074 135.163L184.38 142.564C183.556 143.635 183.166 144.977 183.288 146.323C183.409 147.668 184.033 148.919 185.035 149.825L193.332 157.326" stroke="black" stroke-width="2" stroke-linejoin="round"/>
<path d="M180.271 123.735L188.039 127.933C189.074 128.49 190.263 128.693 191.424 128.509L205.617 126.27" stroke="black" stroke-width="2" stroke-linejoin="round"/>
<path d="M169.037 129.805L179.421 130.82C179.847 130.862 180.256 131.011 180.61 131.252C180.963 131.494 181.251 131.821 181.445 132.202C181.639 132.584 181.735 133.008 181.722 133.436C181.71 133.864 181.59 134.282 181.374 134.652L177.12 141.901C176.854 142.352 176.456 142.711 175.979 142.928C175.502 143.146 174.97 143.211 174.455 143.116L163.941 141.162C163.545 141.087 163.171 140.919 162.852 140.672C162.532 140.424 162.276 140.105 162.104 139.74C161.932 139.374 161.849 138.973 161.862 138.569C161.875 138.166 161.983 137.771 162.179 137.417L165.555 131.34" stroke="black" stroke-width="2" stroke-linejoin="round"/>
<path d="M160.458 162.591L153.559 157.364C153.134 157.042 152.798 156.618 152.581 156.13C152.365 155.643 152.276 155.109 152.322 154.577L152.59 151.382C152.653 150.644 152.973 149.951 153.495 149.425C154.017 148.9 154.707 148.574 155.444 148.506L173.757 146.814C174.802 146.717 175.852 146.929 176.779 147.422C177.705 147.916 178.466 148.67 178.969 149.592L181.814 154.809C182.242 155.594 182.357 156.513 182.135 157.379C181.913 158.246 181.37 158.995 180.617 159.478L167.466 167.9" stroke="black" stroke-width="2" stroke-linejoin="round"/>
<path d="M148.863 185.612L137.731 177.271C137.091 176.792 136.631 176.11 136.427 175.336C136.223 174.563 136.286 173.743 136.607 173.01L140.583 163.885C140.779 163.438 141.064 163.035 141.422 162.703C141.779 162.371 142.202 162.117 142.662 161.955C143.123 161.794 143.612 161.729 144.099 161.766C144.585 161.802 145.059 161.938 145.491 162.166L158.981 169.283C159.742 169.684 160.395 170.262 160.886 170.968C161.377 171.674 161.691 172.488 161.803 173.34L162.334 177.39C162.415 178.028 162.287 178.675 161.97 179.234C161.653 179.793 161.163 180.235 160.574 180.493L155.087 182.889" stroke="black" stroke-width="2" stroke-linejoin="round"/>
<path d="M192.421 177.833L181.706 180.947C180.97 181.162 180.196 181.216 179.438 181.106L170.913 179.874C170.392 179.798 169.916 179.538 169.571 179.14C169.227 178.742 169.037 178.234 169.037 177.707V174.167C169.037 173.364 169.27 172.578 169.706 171.903C170.143 171.229 170.766 170.696 171.499 170.367L185.551 164.073C186.313 163.732 187.144 163.572 187.979 163.608L202.507 164.232C203.035 164.254 203.548 164.418 203.991 164.706C204.434 164.995 204.792 165.396 205.027 165.87C205.262 166.343 205.366 166.871 205.327 167.398C205.289 167.926 205.11 168.433 204.809 168.867L200.151 175.589" stroke="black" stroke-width="2" stroke-linejoin="round"/>
<path d="M123.286 175.167L130.243 171.066C131.402 170.383 132.262 169.291 132.654 168.004L135.484 158.713" stroke="black" stroke-width="2" stroke-linejoin="round"/>
<path d="M150.156 145.717L153.234 142.067C153.818 141.376 154.218 140.548 154.395 139.66L155.727 133.042" stroke="black" stroke-width="2" stroke-linejoin="round"/>
<path d="M137.255 148.756L146.825 149.656" stroke="black" stroke-width="2" stroke-linejoin="round"/>
<path d="M126.31 202.827C126.31 202.827 119.983 201.947 116.585 198.664C113.187 195.381 111.743 195.927 111.743 195.927" stroke="black" stroke-width="2" stroke-linejoin="round"/>
<path d="M108.43 196.485C108.43 196.485 96.9896 199.713 101.13 210.501C105.888 222.911 124.855 225.283 142.045 225.283H241.794C247.899 225.283 261.504 222.809 266.997 211.778C271.823 202.093 262.648 197.041 258.686 201.058" stroke="black" stroke-width="2" stroke-linejoin="round"/>
<path d="M139.019 204.586H157.59" stroke="black" stroke-width="2" stroke-linejoin="round"/>
<path d="M168.376 204.586H200.872" stroke="black" stroke-width="2" stroke-linejoin="round"/>
<path d="M216.195 204.586H234.75" stroke="black" stroke-width="2" stroke-linejoin="round"/>
<path d="M247.213 203.403C247.213 203.403 251.133 203.874 253.766 202.94" stroke="black" stroke-width="2" stroke-linejoin="round"/>
<path d="M122.448 238.927C126.061 238.927 128.989 235.999 128.989 232.386C128.989 228.774 126.061 225.846 122.448 225.846C118.836 225.846 115.907 228.774 115.907 232.386C115.907 235.999 118.836 238.927 122.448 238.927Z" stroke="black" stroke-width="2" stroke-linejoin="round"/>
<path d="M137.523 225.28C137.523 225.874 137.406 226.462 137.179 227.01C136.951 227.559 136.618 228.058 136.198 228.478C135.778 228.898 135.28 229.231 134.731 229.458C134.183 229.685 133.595 229.802 133.001 229.802C132.407 229.802 131.819 229.685 131.27 229.458C130.721 229.231 130.223 228.898 129.803 228.478C129.383 228.058 129.05 227.559 128.823 227.01C128.595 226.462 128.478 225.874 128.478 225.28" stroke="black" stroke-width="2" stroke-linejoin="round"/>
<path d="M237.65 239.593C241.262 239.593 244.19 236.665 244.19 233.053C244.19 229.44 241.262 226.512 237.65 226.512C234.037 226.512 231.109 229.44 231.109 233.053C231.109 236.665 234.037 239.593 237.65 239.593Z" stroke="black" stroke-width="2" stroke-linejoin="round"/>
<path d="M231.62 225.28C231.62 226.479 231.143 227.629 230.295 228.478C229.447 229.326 228.297 229.802 227.098 229.802C225.898 229.802 224.748 229.326 223.9 228.478C223.052 227.629 222.575 226.479 222.575 225.28" stroke="black" stroke-width="2" stroke-linejoin="round"/>
</svg>
