<svg width="25" height="23" viewBox="0 0 25 23" fill="none" xmlns="http://www.w3.org/2000/svg">
<path d="M11.8955 11.3532H3.57243ZM3.33652 12.424L1.96144 16.4558C1.20832 18.6639 0.83176 19.7679 1.102 20.4478C1.33666 21.0383 1.84069 21.4859 2.46264 21.6563C3.17882 21.8524 4.26053 21.3746 6.42396 20.4192L20.2935 14.2931C22.4052 13.3603 23.4611 12.8941 23.7873 12.2462C24.0709 11.6834 24.0709 11.0229 23.7873 10.46C23.4611 9.81229 22.4052 9.3459 20.2935 8.41319L6.40004 2.27662C4.24312 1.32394 3.16468 0.847601 2.44921 1.04301C1.82786 1.21271 1.32388 1.65915 1.08839 2.24849C0.817226 2.92711 1.18976 4.02878 1.93485 6.23212L3.33919 10.3851C3.46715 10.7635 3.53114 10.9527 3.55639 11.1462C3.57881 11.318 3.57858 11.4918 3.55572 11.6635C3.52995 11.8569 3.46548 12.0459 3.33652 12.424Z" fill="#FAF6E8"/>
<path d="M11.8955 11.3532H3.57243M3.33652 12.424L1.96144 16.4558C1.20832 18.6639 0.83176 19.7679 1.102 20.4478C1.33666 21.0383 1.84069 21.4859 2.46264 21.6563C3.17882 21.8524 4.26053 21.3746 6.42396 20.4192L20.2935 14.2931C22.4052 13.3603 23.4611 12.8941 23.7873 12.2462C24.0709 11.6834 24.0709 11.0229 23.7873 10.46C23.4611 9.81229 22.4052 9.3459 20.2935 8.41319L6.40004 2.27662C4.24312 1.32394 3.16468 0.847601 2.44921 1.04301C1.82786 1.21271 1.32388 1.65915 1.08839 2.24849C0.817226 2.92711 1.18976 4.02878 1.93485 6.23212L3.33919 10.3851C3.46715 10.7635 3.53114 10.9527 3.55639 11.1462C3.57881 11.318 3.57858 11.4918 3.55572 11.6635C3.52995 11.8569 3.46548 12.0459 3.33652 12.424Z" stroke="#433E2D" stroke-width="2" stroke-linecap="round" stroke-linejoin="round"/>
</svg>
