<svg width="57" height="57" viewBox="0 0 57 57" fill="none" xmlns="http://www.w3.org/2000/svg">
<path d="M37.0571 18.5648C37.4637 18.9715 37.6922 19.523 37.6922 20.0981C37.6922 20.6732 37.4637 21.2247 37.0571 21.6314L30.8777 27.8108L37.0585 33.9916C37.4357 34.4036 37.6394 34.9452 37.6271 35.5037C37.6148 36.0621 37.3874 36.5942 36.9925 36.9892C36.5975 37.3842 36.0654 37.6115 35.5069 37.6238C34.9485 37.6361 34.4069 37.4324 33.9949 37.0553L27.814 30.8744L21.6302 37.0582C21.4313 37.2699 21.192 37.4395 20.9263 37.5569C20.6606 37.6743 20.3741 37.7371 20.0837 37.7416C19.7933 37.7461 19.5049 37.6923 19.2357 37.5832C18.9665 37.4742 18.722 37.3121 18.5166 37.1068C18.3112 36.9014 18.1492 36.6568 18.0401 36.3876C17.9311 36.1184 17.8772 35.8301 17.8817 35.5397C17.8862 35.2493 17.9491 34.9627 18.0665 34.697C18.1839 34.4314 18.3534 34.192 18.5651 33.9931L24.7474 27.8108L18.5666 21.6299C18.1894 21.2179 17.9857 20.6763 17.9981 20.1179C18.0104 19.5594 18.2377 19.0273 18.6326 18.6323C19.0276 18.2374 19.5597 18.0101 20.1182 17.9978C20.6766 17.9854 21.2182 18.1891 21.6302 18.5663L27.8111 24.7471L33.9934 18.5648C34.4002 18.1588 34.9516 17.9309 35.5263 17.9312C36.101 17.9314 36.6507 18.1584 37.0571 18.5648Z" fill="#FAF6E8"/>
</svg>
