<svg width="33" height="34" viewBox="0 0 33 34" fill="none" xmlns="http://www.w3.org/2000/svg">
<path d="M31.25 26.2672V15.8647C31.25 14.8628 31.2491 14.3617 31.1274 13.8953C31.0194 13.4823 30.8422 13.0913 30.6024 12.738C30.3316 12.3393 29.9555 12.0087 29.2014 11.349L20.2014 3.47396C18.8015 2.24904 18.1016 1.63689 17.3139 1.40394C16.6197 1.19869 15.8799 1.19869 15.1857 1.40394C14.3986 1.63672 13.6996 2.24829 12.3019 3.47135L3.29894 11.349C2.54495 12.0087 2.16882 12.3393 1.89819 12.738C1.65836 13.0913 1.47978 13.4823 1.37182 13.8953C1.25 14.3617 1.25 14.8628 1.25 15.8647V26.2672C1.25 28.0143 1.25 28.8877 1.53545 29.5769C1.91606 30.4957 2.6456 31.2265 3.56446 31.6072C4.2536 31.8927 5.12724 31.8927 6.87451 31.8927C8.62181 31.8927 9.4964 31.8927 10.1855 31.6072C11.1044 31.2265 11.8338 30.4958 12.2144 29.5769C12.4998 28.8878 12.5 28.0143 12.5 26.267V24.392C12.5 22.3208 14.1789 20.642 16.25 20.642C18.3211 20.642 20 22.3208 20 24.392V26.267C20 28.0143 20 28.8878 20.2854 29.5769C20.666 30.4958 21.3956 31.2265 22.3145 31.6072C23.0036 31.8927 23.8773 31.8927 25.6244 31.8927C27.3718 31.8927 28.2464 31.8927 28.9355 31.6072C29.8544 31.2265 30.5838 30.4957 30.9644 29.5769C31.2498 28.8877 31.25 28.0143 31.25 26.2672Z" stroke="#E8E2D5" stroke-width="2.5" stroke-linecap="round" stroke-linejoin="round"/>
</svg>
