<svg width="33" height="34" viewBox="0 0 33 34" fill="none" xmlns="http://www.w3.org/2000/svg">
<path d="M31.2501 26.2672V15.8647C31.2501 14.8628 31.2492 14.3617 31.1275 13.8953C31.0195 13.4823 30.8423 13.0913 30.6025 12.738C30.3317 12.3393 29.9556 12.0087 29.2015 11.349L20.2015 3.47396C18.8016 2.24904 18.1017 1.63689 17.314 1.40394C16.6199 1.19869 15.88 1.19869 15.1859 1.40394C14.3987 1.63672 13.6997 2.24829 12.302 3.47135L3.29907 11.349C2.54507 12.0087 2.16895 12.3393 1.89831 12.738C1.65848 13.0913 1.4799 13.4823 1.37194 13.8953C1.25012 14.3617 1.25012 14.8628 1.25012 15.8647V26.2672C1.25012 28.0143 1.25012 28.8877 1.53557 29.5769C1.91618 30.4957 2.64572 31.2265 3.56458 31.6072C4.25372 31.8927 5.12736 31.8927 6.87463 31.8927C8.62193 31.8927 9.49652 31.8927 10.1857 31.6072C11.1045 31.2265 11.8339 30.4958 12.2145 29.5769C12.4999 28.8878 12.5001 28.0143 12.5001 26.267V24.392C12.5001 22.3208 14.179 20.642 16.2501 20.642C18.3212 20.642 20.0001 22.3208 20.0001 24.392V26.267C20.0001 28.0143 20.0001 28.8878 20.2855 29.5769C20.6661 30.4958 21.3957 31.2265 22.3146 31.6072C23.0037 31.8927 23.8774 31.8927 25.6246 31.8927C27.3719 31.8927 28.2466 31.8927 28.9356 31.6072C29.8546 31.2265 30.5839 30.4957 30.9646 29.5769C31.2499 28.8877 31.2501 28.0143 31.2501 26.2672Z" stroke="#095F3E" stroke-width="2.5" stroke-linecap="round" stroke-linejoin="round"/>
</svg>
