<svg width="393" height="622" viewBox="0 0 393 622" fill="none" xmlns="http://www.w3.org/2000/svg">
<g opacity="0.6">
<path d="M95.9797 406.751C102.136 406.751 107.126 401.761 107.126 395.605C107.126 389.449 102.136 384.458 95.9797 384.458C89.8238 384.458 84.8335 389.449 84.8335 395.605C84.8335 401.761 89.8238 406.751 95.9797 406.751Z" fill="#FFEF9F"/>
<path d="M325.423 342.249C322.954 345.608 320.569 346.983 318.18 346.983C314.938 346.931 311.702 346.686 308.489 346.252C307.867 345.086 307.186 343.941 306.564 342.713C301.644 333.016 300.052 329.831 299.763 319.41C299.492 309.728 296.936 308.655 296.575 308.55C297.866 305.729 298.289 302.479 297.959 298.853L303.162 294.013L307.933 294.222C317.847 294.222 321.346 290.431 323.526 286.089C325.828 285.778 328.704 284.453 328.704 284.453C336.738 280.762 340.647 270.555 340.647 261.654C340.647 252.753 331.454 237.554 307.572 237.554C294.728 237.554 284.869 241.762 278.481 247.643C278.298 246.07 278.111 245.818 278.111 245.818C251.623 190.015 187.846 208.442 158.687 223.018C126.517 239.103 97.535 276.277 95.865 308.543C95.7947 311.931 95.9391 315.319 96.2973 318.688C96.2973 318.688 97.5413 320.172 103.727 321.459C101.889 331.896 101.665 337.752 102.446 345.272C102.446 345.272 91.6634 343.776 85.8757 338.178C80.088 332.58 77.6248 333.513 77.6248 333.513C75.7005 333.492 73.7882 333.819 71.9802 334.478C71.9802 334.478 52.4805 339.982 59.5402 358.362C65.5332 373.99 84.7747 380.272 106.234 382.487H106.15C106.15 388.256 109.599 391.26 113.856 391.26C118.014 391.26 121.392 387.584 121.547 383.448C124.129 383.519 126.707 383.55 129.26 383.55H266.501C266.501 385.594 267.313 387.554 268.759 389C270.204 390.445 272.164 391.257 274.208 391.257C276.252 391.257 278.212 390.445 279.657 389C281.103 387.554 281.914 385.594 281.914 383.55H299.247C309.649 383.55 332.835 379.336 342.196 360.536C350.422 344.007 332.172 335.407 325.423 342.249ZM155.807 345.518L124.76 345.369C125.541 338.738 125.92 332.982 125.721 331.125C138.711 334.748 147.678 337.093 155.832 338.589C155.826 338.916 155.652 341.966 155.807 345.518ZM235.268 340.694C233.748 342.324 232.346 344.06 231.072 345.888L174.218 345.618C174.197 344.911 174.113 344.207 173.966 343.515C173.966 343.515 173.696 342.1 173.366 340.75C180.27 341.183 188.123 341.285 198.557 341.285C213.32 341.285 239.892 333.454 239.892 333.454C239.155 335.575 237.746 338.029 235.268 340.694ZM257.688 346.016C262.353 340.729 266.853 334.369 268.277 327.356H276.92H278.382C278.693 329.387 279.29 332.985 280.248 337.591C280.981 341.158 283.068 343.854 285.224 346.168L257.688 346.016Z" fill="#FFEF9F"/>
<path d="M292.292 385.594C290.088 385.594 287.933 386.247 286.1 387.472C284.267 388.697 282.838 390.438 281.994 392.474C281.151 394.511 280.93 396.752 281.36 398.914C281.79 401.076 282.852 403.063 284.411 404.621C285.969 406.18 287.956 407.242 290.118 407.672C292.28 408.102 294.521 407.881 296.558 407.038C298.594 406.194 300.335 404.765 301.56 402.932C302.785 401.099 303.438 398.944 303.438 396.74C303.438 393.784 302.264 390.948 300.174 388.858C298.083 386.768 295.248 385.594 292.292 385.594Z" fill="#FFEF9F"/>
</g>
<path d="M95.0946 319.055C95.0946 319.055 102.559 327.946 171.812 321.107C203.786 317.951 231.051 308.005 249.111 294.383C264.092 283.085 270.045 273.313 270.045 273.313" stroke="black" stroke-width="3" stroke-linejoin="round"/>
<path d="M276.902 246.172C250.411 190.372 186.638 208.796 157.478 223.376C125.311 239.47 96.3324 276.635 94.681 308.907" stroke="black" stroke-width="3" stroke-linejoin="round"/>
<path d="M276.902 283.735C276.902 283.735 268.869 278.09 268.869 265.28C268.869 252.47 282.475 237.912 306.357 237.912C330.239 237.912 339.438 253.12 339.438 262.024C339.438 270.928 335.529 281.128 327.496 284.82" stroke="black" stroke-width="3" stroke-miterlimit="10"/>
<path d="M323.076 284.82C320.899 289.796 317.867 294.592 306.721 294.592C295.285 294.592 293.547 291.842 289.641 286.776" stroke="black" stroke-width="3" stroke-miterlimit="10"/>
<path d="M283.306 277.331C286.565 279.819 291.286 279.228 294.272 275.593C295.54 274.038 296.713 275.375 297.419 276.028C297.901 276.47 301.745 280.052 304.155 282.298C305.41 283.466 307.062 284.115 308.777 284.114C309.774 284.114 310.76 283.894 311.663 283.47C312.566 283.046 313.364 282.428 314.001 281.66C316.001 279.241 318.785 275.879 318.977 275.645C319.27 275.285 319.752 274.902 320.554 275.593C321.643 276.526 323.437 277.962 326.258 277.801C327.756 277.721 329.21 277.268 330.488 276.485C331.767 275.701 332.831 274.611 333.582 273.313" stroke="black" stroke-width="3" stroke-miterlimit="10"/>
<path d="M301.95 294.383L296.209 299.729C295.111 300.751 293.666 301.32 292.166 301.322H288.617C287.143 301.321 285.721 300.774 284.627 299.785L282.491 297.854" stroke="black" stroke-width="3" stroke-miterlimit="10"/>
<path d="M296.747 299.222C297.245 304.702 296.035 309.336 292.679 312.906" stroke="black" stroke-width="3" stroke-miterlimit="10"/>
<path d="M238.674 333.818C238.674 333.818 212.105 341.649 197.342 341.649C164.42 341.649 157.201 340.623 124.509 331.501" stroke="black" stroke-width="3" stroke-linejoin="round"/>
<path d="M124.466 329.837C124.777 332.86 123.635 347.875 121.667 358.533C124.798 359.619 124.466 363.31 124.466 363.31C121.685 363.475 118.009 363.525 115.207 363.537C112.193 363.561 109.262 362.549 106.904 360.672C104.545 358.794 102.903 356.164 102.251 353.221C102.229 353.125 102.21 353.025 102.189 352.91C100.459 341.12 100.139 335.308 102.549 321.686" stroke="black" stroke-width="3" stroke-linejoin="round"/>
<path d="M154.636 338.95C154.636 338.95 153.864 351.044 156.613 355.821C159.363 360.598 161.916 361.32 166.547 361.32C169.859 361.32 175.69 360.325 175.69 360.325C175.69 358.406 174.636 357.339 172.465 357.124C171.818 353.585 173.694 348.105 172.754 343.879" stroke="black" stroke-width="3" stroke-linejoin="round"/>
<path d="M238.674 325.567C238.674 325.567 242.294 332.226 234.043 341.055C225.792 349.884 220.437 362.769 225.864 368.423C231.291 374.077 249.099 370.74 249.099 370.74C249.099 370.74 248.716 366.831 246.374 366.542" stroke="black" stroke-width="3" stroke-linejoin="round"/>
<path d="M246.387 311.236C246.387 311.236 268.505 306.459 267.494 324.41C266.484 342.361 243.753 356.543 243.753 360.888" stroke="black" stroke-width="3" stroke-linejoin="round"/>
<path d="M267.065 320.212C267.065 320.212 270.676 318.035 282.475 318.035C294.275 318.035 290.698 324.538 289.628 325.188C286.733 326.998 285.682 327.676 275.695 327.676H267.053" stroke="black" stroke-width="3" stroke-linejoin="round"/>
<path d="M309.616 359.874C312.981 359.656 313.488 364.228 313.488 364.228C313.488 364.228 308.456 365.686 299.338 365.54C290.219 365.394 287.759 362.057 289.641 356.266C291.522 350.475 280.886 347.02 279.023 337.945C277.521 330.646 276.902 327.716 276.902 327.716" stroke="black" stroke-width="3" stroke-linejoin="round"/>
<path d="M295.316 308.907C295.316 308.907 298.258 309.355 298.548 319.792C298.837 330.229 300.414 333.398 305.352 343.098C307.138 346.619 309.321 349.436 309.815 354.108" stroke="black" stroke-width="3" stroke-linejoin="round"/>
<path d="M200.835 341.525C192.559 336.374 190.702 329.044 193.666 317.301" stroke="black" stroke-width="3" stroke-linejoin="round"/>
<path d="M162.196 340.159C159.167 337.137 157.083 331.965 157.926 322.339" stroke="black" stroke-width="3" stroke-linejoin="round"/>
<path d="M133.581 333.868C131.681 332.695 130.561 325.586 131.046 323.692" stroke="black" stroke-width="3" stroke-linejoin="round"/>
<path d="M290.104 265.722C293.299 265.722 295.889 263.132 295.889 259.937C295.889 256.742 293.299 254.152 290.104 254.152C286.909 254.152 284.319 256.742 284.319 259.937C284.319 263.132 286.909 265.722 290.104 265.722Z" fill="black"/>
<path d="M290.518 258.696C291.392 258.696 292.101 257.987 292.101 257.113C292.101 256.239 291.392 255.53 290.518 255.53C289.643 255.53 288.935 256.239 288.935 257.113C288.935 257.987 289.643 258.696 290.518 258.696Z" fill="white"/>
<path d="M293.202 258.973C293.543 258.973 293.821 258.696 293.821 258.354C293.821 258.012 293.543 257.735 293.202 257.735C292.86 257.735 292.583 258.012 292.583 258.354C292.583 258.696 292.86 258.973 293.202 258.973Z" fill="white"/>
<path d="M323.77 265.722C326.965 265.722 329.554 263.132 329.554 259.937C329.554 256.742 326.965 254.152 323.77 254.152C320.575 254.152 317.985 256.742 317.985 259.937C317.985 263.132 320.575 265.722 323.77 265.722Z" fill="black"/>
<path d="M324.183 258.696C325.058 258.696 325.766 257.987 325.766 257.113C325.766 256.239 325.058 255.53 324.183 255.53C323.309 255.53 322.6 256.239 322.6 257.113C322.6 257.987 323.309 258.696 324.183 258.696Z" fill="white"/>
<path d="M326.87 258.973C327.212 258.973 327.489 258.696 327.489 258.354C327.489 258.012 327.212 257.735 326.87 257.735C326.529 257.735 326.252 258.012 326.252 258.354C326.252 258.696 326.529 258.973 326.87 258.973Z" fill="white"/>
<path d="M302.684 270.464L304.516 272.296" stroke="black" stroke-width="3" stroke-miterlimit="10" stroke-linecap="round"/>
<path d="M313.351 270.464L312.005 272.371" stroke="black" stroke-width="3" stroke-miterlimit="10" stroke-linecap="round"/>
<path d="M227.071 268.962L240.705 269.97C242.64 270.113 244.571 269.637 246.218 268.612C247.866 267.586 249.145 266.063 249.87 264.263L256.917 246.794C257.568 245.181 257.745 243.415 257.429 241.705C257.113 239.994 256.316 238.409 255.132 237.134L246.735 228.097C245.805 227.097 244.663 226.318 243.393 225.816C242.124 225.314 240.758 225.102 239.395 225.195L216.531 226.781C215.238 226.871 213.979 227.233 212.837 227.846C211.695 228.458 210.696 229.306 209.906 230.333L200.203 242.944C198.8 244.769 198.135 247.056 198.342 249.349C198.549 251.643 199.612 253.774 201.32 255.319L215.458 268.101" stroke="black" stroke-width="3" stroke-linejoin="round"/>
<path d="M193.203 210.858L206.439 218.011C208.202 218.961 210.229 219.306 212.208 218.994L236.394 215.178" stroke="black" stroke-width="3" stroke-linejoin="round"/>
<path d="M174.058 221.202L191.753 222.931C192.48 223.003 193.176 223.257 193.779 223.669C194.381 224.08 194.871 224.637 195.202 225.287C195.534 225.937 195.696 226.66 195.675 227.39C195.654 228.12 195.45 228.832 195.081 229.462L187.832 241.815C187.378 242.584 186.7 243.195 185.888 243.566C185.075 243.936 184.169 244.048 183.291 243.886L165.374 240.555C164.698 240.428 164.062 240.141 163.517 239.72C162.973 239.299 162.536 238.754 162.243 238.132C161.95 237.509 161.809 236.825 161.831 236.137C161.853 235.449 162.038 234.776 162.37 234.174L168.124 223.817" stroke="black" stroke-width="3" stroke-linejoin="round"/>
<path d="M159.437 277.073L147.682 268.166C146.957 267.617 146.384 266.894 146.015 266.063C145.646 265.233 145.494 264.322 145.573 263.417L146.03 257.971C146.137 256.714 146.683 255.533 147.572 254.637C148.461 253.741 149.637 253.187 150.894 253.07L182.1 250.187C183.881 250.022 185.671 250.383 187.25 251.224C188.828 252.065 190.126 253.35 190.982 254.92L195.831 263.812C196.561 265.15 196.756 266.715 196.377 268.191C195.999 269.668 195.074 270.946 193.79 271.767L171.38 286.12" stroke="black" stroke-width="3" stroke-linejoin="round"/>
<path d="M139.68 316.302L120.709 302.09C119.617 301.273 118.834 300.111 118.486 298.792C118.139 297.474 118.247 296.077 118.793 294.828L125.57 279.278C125.902 278.516 126.388 277.83 126.998 277.264C127.607 276.699 128.327 276.265 129.112 275.99C129.897 275.715 130.73 275.605 131.56 275.666C132.389 275.728 133.197 275.96 133.932 276.348L156.921 288.477C158.218 289.161 159.331 290.145 160.167 291.349C161.004 292.552 161.54 293.938 161.73 295.391L162.635 302.292C162.773 303.379 162.555 304.481 162.015 305.434C161.475 306.387 160.64 307.14 159.636 307.579L150.285 311.662" stroke="black" stroke-width="3" stroke-linejoin="round"/>
<path d="M213.906 303.048L195.647 308.353C194.393 308.719 193.074 308.812 191.781 308.624L177.255 306.525C176.367 306.396 175.555 305.952 174.968 305.274C174.381 304.596 174.058 303.73 174.057 302.833V296.8C174.058 295.431 174.454 294.091 175.198 292.942C175.943 291.793 177.004 290.884 178.253 290.325L202.2 279.598C203.499 279.017 204.915 278.745 206.336 278.805L231.095 279.869C231.995 279.908 232.868 280.187 233.623 280.678C234.378 281.169 234.988 281.853 235.389 282.66C235.789 283.467 235.966 284.367 235.901 285.265C235.835 286.164 235.53 287.028 235.017 287.768L227.08 299.222" stroke="black" stroke-width="3" stroke-linejoin="round"/>
<path d="M96.0929 298.504L107.948 291.516C109.923 290.352 111.389 288.49 112.057 286.297L116.88 270.464" stroke="black" stroke-width="3" stroke-linejoin="round"/>
<path d="M141.881 248.318L147.128 242.098C148.124 240.92 148.804 239.508 149.106 237.996L151.376 226.719" stroke="black" stroke-width="3" stroke-linejoin="round"/>
<path d="M119.897 253.496L136.206 255.029" stroke="black" stroke-width="3" stroke-linejoin="round"/>
<path d="M101.246 345.639C101.246 345.639 90.4638 344.14 84.673 338.545C78.8821 332.95 76.4221 333.88 76.4221 333.88" stroke="black" stroke-width="3" stroke-linejoin="round"/>
<path d="M70.7775 334.832C70.7775 334.832 51.2809 340.334 58.3375 358.717C66.4453 379.865 98.7675 383.908 128.061 383.908H298.044C308.447 383.908 331.632 379.691 340.993 360.894C349.216 344.389 333.582 335.78 326.83 342.626" stroke="black" stroke-width="3" stroke-linejoin="round"/>
<path d="M122.904 348.637H154.552" stroke="black" stroke-width="3" stroke-linejoin="round"/>
<path d="M172.932 348.637H228.308" stroke="black" stroke-width="3" stroke-linejoin="round"/>
<path d="M254.42 348.637H286.039" stroke="black" stroke-width="3" stroke-linejoin="round"/>
<path d="M307.277 346.622C307.277 346.622 313.958 347.424 318.445 345.832" stroke="black" stroke-width="3" stroke-linejoin="round"/>
<path d="M94.6654 407.158C100.821 407.158 105.812 402.168 105.812 396.012C105.812 389.856 100.821 384.866 94.6654 384.866C88.5095 384.866 83.5192 389.856 83.5192 396.012C83.5192 402.168 88.5095 407.158 94.6654 407.158Z" stroke="black" stroke-width="3" stroke-linejoin="round"/>
<path d="M120.354 383.901C120.354 384.913 120.155 385.916 119.767 386.851C119.38 387.786 118.813 388.635 118.097 389.351C117.381 390.066 116.532 390.634 115.597 391.021C114.662 391.409 113.66 391.608 112.648 391.608C111.635 391.608 110.633 391.409 109.698 391.021C108.763 390.634 107.914 390.066 107.198 389.351C106.482 388.635 105.915 387.786 105.528 386.851C105.14 385.916 104.941 384.913 104.941 383.901" stroke="black" stroke-width="3" stroke-linejoin="round"/>
<path d="M290.981 408.293C297.137 408.293 302.127 403.303 302.127 397.147C302.127 390.991 297.137 386.001 290.981 386.001C284.825 386.001 279.835 390.991 279.835 397.147C279.835 403.303 284.825 408.293 290.981 408.293Z" stroke="black" stroke-width="3" stroke-linejoin="round"/>
<path d="M280.706 383.901C280.706 385.945 279.894 387.905 278.448 389.351C277.003 390.796 275.043 391.608 272.999 391.608C270.955 391.608 268.995 390.796 267.55 389.351C266.104 387.905 265.292 385.945 265.292 383.901" stroke="black" stroke-width="3" stroke-linejoin="round"/>
</svg>
