<svg width="324" height="306" viewBox="0 0 324 306" fill="none" xmlns="http://www.w3.org/2000/svg">
<path opacity="0.6" d="M198.448 141.368L198.21 141.556C198.331 134.318 197.724 126.49 197.157 121.016C196.706 116.616 195.807 112.274 194.474 108.056L199.622 111.515C202.617 113.529 206.216 114.445 209.809 114.107L216.438 113.48C217.151 113.413 217.834 113.161 218.42 112.749C219.006 112.338 219.474 111.78 219.778 111.132C220.799 109.159 222.694 105.88 221.56 103.206C219.631 98.5364 216.726 94.3334 213.04 90.8781C209.354 87.4229 204.972 84.7952 200.188 83.1712C194.993 81.4029 189.325 81.6439 184.299 83.8467C180.96 85.3193 178.174 87.1208 176.469 92.1865C174.789 97.1842 174.916 97.9715 175.821 112.349C176.249 119.185 177.023 124.337 176.414 134.799H174.274L172.33 134.611C167.161 125.403 158.508 119.974 147.777 119.974C137.026 119.974 121.974 126.435 123.884 143.813C124.427 148.755 127.009 152.491 130.861 155.153L130.651 155.099H119.745C115.428 155.099 111.241 156.582 107.887 159.3C105.736 161.042 104.001 163.243 102.81 165.742C101.618 168.241 101 170.974 101 173.742L101.844 172.425C103.776 169.41 106.539 167.018 109.798 165.535C113.151 164.038 116.924 163.773 120.453 164.787L125.151 166.101L125.52 166.047C115.1 173.135 112.946 184.677 118.025 195.593C121.48 203.02 130.915 209.157 144.819 209.157C155.822 209.157 172.087 203.001 181.61 193.918L181.634 193.871C187.048 196.318 193.079 198.018 200.295 198.018C214.107 198.018 226.649 186.678 226.649 166.731C226.641 146.105 198.448 141.368 198.448 141.368ZM145.061 179.799C142.749 179.856 141.278 179.284 140.915 178.84C140.552 178.396 140.915 178.228 140.915 178.228C143.608 176.686 149.224 176.666 152.375 177.769C151.21 178.451 147.364 179.743 145.061 179.799ZM149.422 133.612C148.511 133.257 147.729 132.891 147.802 132.353C147.91 131.48 149.616 130.511 151.743 131.057C154.646 131.796 155.27 133.961 155.27 134.804C153.268 134.736 151.291 134.332 149.422 133.612Z" fill="#FAF6E8"/>
<path d="M194.343 107.829L199.49 111.287C202.484 113.302 206.084 114.218 209.677 113.879L214.955 113.379C216.077 113.273 217.153 112.877 218.076 112.229C218.999 111.581 219.737 110.704 220.218 109.684L221.305 107.377C221.869 106.183 221.917 104.208 221.413 102.987C219.486 98.3183 216.584 94.1157 212.901 90.6602C209.218 87.2047 204.839 84.5761 200.057 82.9504C194.814 81.1683 189.091 81.431 184.034 83.6858C180.755 85.1438 178.019 86.9696 176.339 91.9673C174.659 96.965 174.785 97.7507 175.691 112.13C176.381 123.173 179.268 144.416 167.579 162.998" stroke="black" stroke-width="2" stroke-miterlimit="10"/>
<path d="M191.014 172.306C191.014 172.306 196.757 160.318 197.841 146.565C198.925 132.811 196.182 113.635 196.182 113.635" stroke="black" stroke-width="2" stroke-miterlimit="10"/>
<path d="M197.64 162.991C201.988 165.583 202.319 169.471 198.831 171.542C192.412 175.354 188.604 170.424 174.132 165.237C159.661 160.049 149.04 157.222 135.432 161.213C116.601 166.735 111.456 181.553 117.884 195.367C121.34 202.795 130.773 208.933 144.679 208.933C155.68 208.933 171.947 202.777 181.469 193.694" stroke="black" stroke-width="2" stroke-miterlimit="10"/>
<path d="M152.244 177.542C144.212 181.399 139.629 178.7 140.784 178.001C142.923 176.705 148.27 176.219 152.244 177.542ZM152.244 177.542C167.571 182.666 178.603 197.792 200.154 197.792C213.968 197.792 226.508 186.452 226.508 166.505C226.508 145.876 198.32 141.139 198.32 141.139" stroke="black" stroke-width="2" stroke-miterlimit="10"/>
<path d="M174.134 134.572H155.131C153.581 134.572 147.665 133.501 147.665 132.125C147.665 130.75 152.014 129.533 154.469 132.668" stroke="black" stroke-width="2" stroke-miterlimit="10"/>
<path d="M143.461 159.584C133.067 157.95 124.771 152.92 123.745 143.585C121.835 126.206 136.89 119.747 147.64 119.747C158.444 119.747 167.144 125.255 172.3 134.572" stroke="black" stroke-width="2" stroke-miterlimit="10"/>
<path d="M125.012 165.87L120.118 164.498C116.666 163.53 112.983 163.808 109.714 165.284C106.434 166.763 103.654 169.164 101.713 172.195L100.868 173.512C100.867 170.743 101.486 168.01 102.677 165.511C103.869 163.013 105.603 160.812 107.754 159.069C111.109 156.351 115.295 154.868 119.613 154.869H130.514" stroke="black" stroke-width="2" stroke-miterlimit="10"/>
<path d="M206.338 103.589C208.11 103.589 209.547 102.152 209.547 100.38C209.547 98.6075 208.11 97.1707 206.338 97.1707C204.565 97.1707 203.129 98.6075 203.129 100.38C203.129 102.152 204.565 103.589 206.338 103.589Z" fill="black"/>
<path d="M216.805 108.517C217.227 108.517 217.569 108.175 217.569 107.753C217.569 107.33 217.227 106.988 216.805 106.988C216.382 106.988 216.04 107.33 216.04 107.753C216.04 108.175 216.382 108.517 216.805 108.517Z" fill="black"/>
<path d="M206.568 99.6914C207.053 99.6914 207.446 99.2983 207.446 98.8133C207.446 98.3284 207.053 97.9353 206.568 97.9353C206.083 97.9353 205.69 98.3284 205.69 98.8133C205.69 99.2983 206.083 99.6914 206.568 99.6914Z" fill="white"/>
<path d="M208.057 99.8436C208.246 99.8436 208.4 99.6899 208.4 99.5002C208.4 99.3105 208.246 99.1567 208.057 99.1567C207.867 99.1567 207.713 99.3105 207.713 99.5002C207.713 99.6899 207.867 99.8436 208.057 99.8436Z" fill="white"/>
<line x1="219.354" y1="111.646" x2="223.354" y2="115.646" stroke="black"/>
<line x1="221" y1="113.5" x2="224" y2="113.5" stroke="black"/>
</svg>
