<svg width="51" height="51" viewBox="0 0 51 51" fill="none" xmlns="http://www.w3.org/2000/svg">
<path d="M37.1123 10.63L39.1337 11.9884C40.3097 12.7795 41.7233 13.1392 43.1344 13.0064L45.2073 12.8098C45.6483 12.7682 46.0708 12.6125 46.4332 12.3581C46.7957 12.1036 47.0856 11.7591 47.2745 11.3585L47.7014 10.4525C47.9229 9.98358 47.9419 9.20799 47.7441 8.72826C46.9872 6.89482 45.8473 5.24427 44.4007 3.88713C42.9542 2.53 41.2343 1.49762 39.3564 0.859116C37.2972 0.159218 35.0497 0.262378 33.0632 1.14797C31.7755 1.7206 30.7008 2.43765 30.041 4.40048C29.3812 6.36332 29.4309 6.6719 29.7865 12.3193C30.0576 16.6566 31.1914 24.9997 26.6008 32.2975" stroke="#B29694" stroke-width="0.8" stroke-miterlimit="10"/>
<path d="M35.8049 35.9535C35.8049 35.9535 38.0604 31.2452 38.4861 25.8435C38.9117 20.4417 37.8346 12.9104 37.8346 12.9104" stroke="#B29694" stroke-width="0.8" stroke-miterlimit="10"/>
<path d="M38.4068 32.295C40.1145 33.313 40.2443 34.84 38.8744 35.6531C36.3536 37.1502 34.8578 35.2141 29.1742 33.1768C23.4905 31.1395 19.3193 30.0293 13.9748 31.5963C6.579 33.7653 4.55827 39.5851 7.08291 45.0104C8.44003 47.9276 12.1449 50.3384 17.6065 50.3384C21.9273 50.3384 28.3159 47.9206 32.0557 44.3532" stroke="#B29694" stroke-width="0.8" stroke-miterlimit="10"/>
<path d="M20.5778 38.0098C17.4233 39.5247 15.6234 38.4647 16.077 38.1899C16.9169 37.6809 19.0171 37.49 20.5778 38.0098ZM20.5778 38.0098C26.5974 40.0223 30.9303 45.963 39.3943 45.963C44.8196 45.963 49.7448 41.5092 49.7448 33.6751C49.7448 25.573 38.6741 23.7126 38.6741 23.7126" stroke="#B29694" stroke-width="0.8" stroke-miterlimit="10"/>
<path d="M29.175 21.1331H21.7118C21.1029 21.1331 18.7793 20.7126 18.7793 20.1724C18.7793 19.6322 20.4876 19.1544 21.4515 20.3855" stroke="#B29694" stroke-width="0.8" stroke-miterlimit="10"/>
<path d="M17.1282 30.9568C13.046 30.3148 9.78773 28.3393 9.38498 24.6732C8.63485 17.8475 14.5475 15.3108 18.7697 15.3108C23.0128 15.3108 26.4295 17.474 28.4547 21.1331" stroke="#B29694" stroke-width="0.8" stroke-miterlimit="10"/>
<path d="M9.88258 33.4258L7.96046 32.8869C6.60448 32.5068 5.15799 32.616 3.87447 33.1954C2.58596 33.7763 1.49416 34.7194 0.732023 35.9097L0.399902 36.427C0.399832 35.3397 0.642636 34.2662 1.11058 33.2849C1.57853 32.3035 2.25979 31.4391 3.1046 30.7548C4.4221 29.6873 6.0663 29.1049 7.76195 29.105H12.0433" stroke="#B29694" stroke-width="0.8" stroke-miterlimit="10"/>
<path d="M41.8232 6.84473C42.2983 6.84491 42.6836 7.23 42.6836 7.70508C42.6834 8.18001 42.2982 8.56525 41.8232 8.56543C41.3482 8.56543 40.9631 8.18012 40.9629 7.70508C40.9629 7.22988 41.3481 6.84473 41.8232 6.84473Z" fill="black" stroke="black" stroke-width="0.8"/>
<path d="M46.0339 10.6006C46.0339 10.6554 45.9891 10.7001 45.9343 10.7002C45.893 10.7002 45.8575 10.6746 45.8425 10.6387L45.8347 10.6006C45.8347 10.5457 45.8795 10.501 45.9343 10.501L45.9724 10.5088C46.0083 10.5238 46.0339 10.5593 46.0339 10.6006Z" fill="#B29694" stroke="#B29694" stroke-width="0.8"/>
<path d="M41.9139 7.43488C42.1045 7.43488 42.2591 7.28031 42.2591 7.08963C42.2591 6.89896 42.1045 6.74438 41.9139 6.74438C41.7232 6.74438 41.5686 6.89896 41.5686 7.08963C41.5686 7.28031 41.7232 7.43488 41.9139 7.43488Z" fill="white"/>
<path d="M42.4981 7.49421C42.5727 7.49421 42.6331 7.43375 42.6331 7.35916C42.6331 7.28458 42.5727 7.22412 42.4981 7.22412C42.4235 7.22412 42.363 7.28458 42.363 7.35916C42.363 7.43375 42.4235 7.49421 42.4981 7.49421Z" fill="white"/>
</svg>
