<svg width="33" height="24" viewBox="0 0 33 24" fill="none" xmlns="http://www.w3.org/2000/svg">
<path d="M3.98713 23.0145C4.6666 23.0145 5.21742 22.4637 5.21742 21.7843C5.21742 21.1048 4.6666 20.554 3.98713 20.554C3.30766 20.554 2.75684 21.1048 2.75684 21.7843C2.75684 22.4637 3.30766 23.0145 3.98713 23.0145Z" fill="#FAF6E8"/>
<path d="M30.1679 14.8181C29.8953 15.1888 29.632 15.3406 29.3684 15.3406C29.0106 15.3348 28.6534 15.3078 28.2987 15.2599C28.2301 15.1312 28.1549 15.0048 28.0863 14.8693C27.5432 13.7989 27.3674 13.4474 27.3355 12.2971C27.3057 11.2285 27.0235 11.1101 26.9837 11.0984C27.1261 10.787 27.1728 10.4283 27.1364 10.0281L27.7107 9.49393L28.2373 9.51693C29.3317 9.51693 29.7178 9.09848 29.9585 8.61927C30.2125 8.58494 30.53 8.43871 30.53 8.43871C31.4167 8.03124 31.8482 6.90462 31.8482 5.92217C31.8482 4.93972 30.8335 3.26214 28.1975 3.26214C26.7798 3.26214 25.6916 3.72659 24.9865 4.37572C24.9662 4.20202 24.9457 4.17422 24.9457 4.17422C22.022 -1.98514 14.9825 0.0487572 11.764 1.65768C8.21313 3.43309 5.01416 7.53624 4.82983 11.0977C4.82207 11.4716 4.83801 11.8456 4.87754 12.2175C4.87754 12.2175 5.01485 12.3812 5.69762 12.5233C5.49475 13.6753 5.47003 14.3217 5.55619 15.1518C5.55619 15.1518 4.36606 14.9867 3.72723 14.3688C3.0884 13.7509 2.81653 13.8538 2.81653 13.8538C2.60413 13.8515 2.39306 13.8875 2.19349 13.9603C2.19349 13.9603 0.0411611 14.5679 0.820392 16.5966C1.48188 18.3216 3.60571 19.015 5.9743 19.2594H5.96503C5.96503 19.8961 6.34572 20.2277 6.81566 20.2277C7.27462 20.2277 7.64742 19.822 7.66458 19.3654C7.9495 19.3733 8.23407 19.3768 8.5159 19.3768H23.6642C23.6642 19.6024 23.7538 19.8187 23.9134 19.9783C24.0729 20.1378 24.2892 20.2274 24.5148 20.2274C24.7404 20.2274 24.9568 20.1378 25.1163 19.9783C25.2759 19.8187 25.3655 19.6024 25.3655 19.3768H27.2785C28.4268 19.3768 30.9859 18.9116 32.0191 16.8366C32.9271 15.0121 30.9128 14.0629 30.1679 14.8181ZM11.4461 15.1789L8.01918 15.1624C8.10534 14.4305 8.14722 13.7951 8.12525 13.5902C9.55911 13.9901 10.5488 14.249 11.4488 14.4141C11.4481 14.4501 11.4289 14.7869 11.4461 15.1789ZM20.2167 14.6465C20.049 14.8264 19.8943 15.0179 19.7536 15.2197L13.4783 15.1899C13.4759 15.1118 13.4666 15.0342 13.4505 14.9578C13.4505 14.9578 13.4206 14.8016 13.3842 14.6526C14.1463 14.7004 15.013 14.7117 16.1647 14.7117C17.7942 14.7117 20.7272 13.8473 20.7272 13.8473C20.6458 14.0814 20.4903 14.3523 20.2167 14.6465ZM22.6914 15.2338C23.2063 14.6502 23.703 13.9482 23.8602 13.1742H24.8142H24.9755C25.0098 13.3983 25.0758 13.7955 25.1815 14.3039C25.2625 14.6976 25.4928 14.9952 25.7307 15.2506L22.6914 15.2338Z" fill="#FAF6E8"/>
<path d="M25.6556 20.679C25.4123 20.679 25.1744 20.7511 24.9721 20.8863C24.7698 21.0215 24.6121 21.2136 24.5189 21.4384C24.4258 21.6632 24.4015 21.9106 24.4489 22.1493C24.4964 22.3879 24.6136 22.6071 24.7856 22.7792C24.9577 22.9513 25.1769 23.0684 25.4156 23.1159C25.6542 23.1634 25.9016 23.139 26.1264 23.0459C26.3512 22.9528 26.5433 22.7951 26.6785 22.5928C26.8137 22.3904 26.8859 22.1526 26.8859 21.9092C26.8859 21.583 26.7563 21.27 26.5255 21.0393C26.2948 20.8086 25.9819 20.679 25.6556 20.679Z" fill="#FAF6E8"/>
<path d="M4.47705 12.6988C4.47705 12.6988 5.30091 13.6802 12.9449 12.9253C16.4741 12.5769 19.4836 11.4791 21.477 9.97558C23.1305 8.72847 23.7876 7.6499 23.7876 7.6499" stroke="black" stroke-width="0.5" stroke-linejoin="round"/>
<path d="M24.5442 4.65427C21.6202 -1.50474 14.5811 0.52881 11.3625 2.13808C7.81205 3.91452 4.61343 8.01664 4.43115 11.5788" stroke="black" stroke-width="0.5" stroke-linejoin="round"/>
<path d="M24.5444 8.80023C24.5444 8.80023 23.6577 8.17718 23.6577 6.76324C23.6577 5.3493 25.1595 3.74243 27.7955 3.74243C30.4315 3.74243 31.4469 5.42104 31.4469 6.40383C31.4469 7.38663 31.0154 8.51256 30.1288 8.92003" stroke="black" stroke-width="0.5" stroke-miterlimit="10"/>
<path d="M29.6412 8.91992C29.4009 9.46916 29.0662 9.99849 27.8359 9.99849C26.5737 9.99849 26.3818 9.69503 25.9507 9.13584" stroke="black" stroke-width="0.5" stroke-miterlimit="10"/>
<path d="M25.251 8.09341C25.6107 8.36803 26.1318 8.30281 26.4614 7.90152C26.6014 7.72989 26.7308 7.87749 26.8088 7.94958C26.862 7.99832 27.2862 8.39378 27.5523 8.64162C27.6908 8.77058 27.8731 8.84221 28.0624 8.84209C28.1725 8.84212 28.2813 8.81786 28.381 8.77105C28.4807 8.72423 28.5688 8.65601 28.6391 8.57125C28.8598 8.30418 29.167 7.9331 29.1883 7.90736C29.2206 7.86754 29.2738 7.82532 29.3624 7.90152C29.4825 8.0045 29.6806 8.1631 29.9919 8.14525C30.1572 8.13641 30.3177 8.08648 30.4589 7.99999C30.6 7.9135 30.7174 7.79317 30.8003 7.6499" stroke="black" stroke-width="0.5" stroke-miterlimit="10"/>
<path d="M27.3095 9.97583L26.6758 10.5659C26.5546 10.6787 26.3951 10.7415 26.2295 10.7417H25.8379C25.6751 10.7416 25.5182 10.6812 25.3974 10.5721L25.1616 10.3589" stroke="black" stroke-width="0.5" stroke-miterlimit="10"/>
<path d="M26.7342 10.51C26.7891 11.1149 26.6555 11.6263 26.2852 12.0204" stroke="black" stroke-width="0.5" stroke-miterlimit="10"/>
<path d="M20.3244 14.3282C20.3244 14.3282 17.3918 15.1926 15.7623 15.1926C12.1284 15.1926 11.3316 15.0793 7.72314 14.0725" stroke="black" stroke-width="0.5" stroke-linejoin="round"/>
<path d="M7.7187 13.8887C7.75303 14.2224 7.62704 15.8797 7.40975 17.0561C7.75543 17.1759 7.7187 17.5834 7.7187 17.5834C7.41181 17.6016 7.00606 17.6071 6.69677 17.6084C6.36407 17.6111 6.04054 17.4994 5.78025 17.2922C5.51997 17.0849 5.33868 16.7946 5.2667 16.4698C5.26429 16.4592 5.26223 16.4482 5.25983 16.4355C5.06897 15.1341 5.03361 14.4926 5.29965 12.989" stroke="black" stroke-width="0.5" stroke-linejoin="round"/>
<path d="M11.0491 14.895C11.0491 14.895 10.964 16.23 11.2674 16.7573C11.5709 17.2845 11.8527 17.3642 12.3638 17.3642C12.7294 17.3642 13.373 17.2543 13.373 17.2543C13.373 17.0425 13.2567 16.9248 13.0171 16.9011C12.9457 16.5105 13.1527 15.9056 13.049 15.4391" stroke="black" stroke-width="0.5" stroke-linejoin="round"/>
<path d="M20.3248 13.4177C20.3248 13.4177 20.7243 14.1527 19.8136 15.1272C18.9029 16.1018 18.3118 17.524 18.9108 18.148C19.5098 18.7721 21.4754 18.4038 21.4754 18.4038C21.4754 18.4038 21.4332 17.9723 21.1747 17.9404" stroke="black" stroke-width="0.5" stroke-linejoin="round"/>
<path d="M21.175 11.8361C21.175 11.8361 23.6164 11.3088 23.5048 13.2902C23.3933 15.2716 20.8843 16.8369 20.8843 17.3164" stroke="black" stroke-width="0.5" stroke-linejoin="round"/>
<path d="M23.4579 12.8265C23.4579 12.8265 23.8565 12.5862 25.1588 12.5862C26.4612 12.5862 26.0665 13.304 25.9484 13.3757C25.6288 13.5755 25.5128 13.6503 24.4105 13.6503H23.4565" stroke="black" stroke-width="0.5" stroke-linejoin="round"/>
<path d="M28.1548 17.2045C28.5263 17.1804 28.5822 17.6851 28.5822 17.6851C28.5822 17.6851 28.0268 17.8461 27.0203 17.8299C26.0138 17.8138 25.7423 17.4455 25.95 16.8063C26.1577 16.1671 24.9837 15.7857 24.7781 14.7841C24.6123 13.9784 24.5439 13.655 24.5439 13.655" stroke="black" stroke-width="0.5" stroke-linejoin="round"/>
<path d="M26.5767 11.5791C26.5767 11.5791 26.9014 11.6285 26.9333 12.7806C26.9652 13.9326 27.1393 14.2824 27.6844 15.353C27.8814 15.7416 28.1224 16.0526 28.177 16.5682" stroke="black" stroke-width="0.5" stroke-linejoin="round"/>
<path d="M16.1478 15.1794C15.2343 14.6109 15.0294 13.8018 15.3565 12.5056" stroke="black" stroke-width="0.5" stroke-linejoin="round"/>
<path d="M11.8832 15.0287C11.5489 14.6951 11.3189 14.1242 11.4119 13.0618" stroke="black" stroke-width="0.5" stroke-linejoin="round"/>
<path d="M8.72437 14.3341C8.51463 14.2047 8.39105 13.42 8.44461 13.2109" stroke="black" stroke-width="0.5" stroke-linejoin="round"/>
<path d="M26.0018 6.81213C26.3544 6.81213 26.6403 6.52627 26.6403 6.17364C26.6403 5.82102 26.3544 5.53516 26.0018 5.53516C25.6491 5.53516 25.3633 5.82102 25.3633 6.17364C25.3633 6.52627 25.6491 6.81213 26.0018 6.81213Z" fill="black"/>
<path d="M26.0473 6.03695C26.1438 6.03695 26.222 5.95872 26.222 5.86223C26.222 5.76573 26.1438 5.6875 26.0473 5.6875C25.9508 5.6875 25.8726 5.76573 25.8726 5.86223C25.8726 5.95872 25.9508 6.03695 26.0473 6.03695Z" fill="white"/>
<path d="M26.3427 6.06704C26.3805 6.06704 26.411 6.03646 26.411 5.99873C26.411 5.961 26.3805 5.93042 26.3427 5.93042C26.305 5.93042 26.2744 5.961 26.2744 5.99873C26.2744 6.03646 26.305 6.06704 26.3427 6.06704Z" fill="white"/>
<path d="M29.7171 6.81213C30.0697 6.81213 30.3556 6.52627 30.3556 6.17364C30.3556 5.82102 30.0697 5.53516 29.7171 5.53516C29.3645 5.53516 29.0786 5.82102 29.0786 6.17364C29.0786 6.52627 29.3645 6.81213 29.7171 6.81213Z" fill="black"/>
<path d="M29.7626 6.03695C29.8591 6.03695 29.9373 5.95872 29.9373 5.86223C29.9373 5.76573 29.8591 5.6875 29.7626 5.6875C29.6661 5.6875 29.5879 5.76573 29.5879 5.86223C29.5879 5.95872 29.6661 6.03695 29.7626 6.03695Z" fill="white"/>
<path d="M30.0595 6.06704C30.0972 6.06704 30.1278 6.03646 30.1278 5.99873C30.1278 5.961 30.0972 5.93042 30.0595 5.93042C30.0218 5.93042 29.9912 5.961 29.9912 5.99873C29.9912 6.03646 30.0218 6.06704 30.0595 6.06704Z" fill="white"/>
<path d="M27.3896 7.33569L27.5918 7.53788" stroke="black" stroke-width="0.5" stroke-miterlimit="10" stroke-linecap="round"/>
<path d="M28.5671 7.33569L28.4185 7.54612" stroke="black" stroke-width="0.5" stroke-miterlimit="10" stroke-linecap="round"/>
<path d="M19.0432 7.16993L20.5481 7.28115C20.7617 7.29697 20.9749 7.24447 21.1567 7.13125C21.3385 7.01802 21.4797 6.84993 21.5597 6.65124L22.3376 4.72308C22.4094 4.54499 22.429 4.35014 22.3941 4.16132C22.3592 3.9725 22.2713 3.79753 22.1406 3.65687L21.2137 2.65932C21.1111 2.54897 20.985 2.46296 20.8449 2.40755C20.7047 2.35213 20.554 2.32873 20.4036 2.33904L17.8799 2.51411C17.7372 2.52398 17.5982 2.56402 17.4722 2.6316C17.3461 2.69918 17.2359 2.79275 17.1487 2.90613L16.0777 4.2981C15.9228 4.49958 15.8494 4.75202 15.8723 5.00514C15.8951 5.25826 16.0124 5.49349 16.2009 5.66399L17.7614 7.07484" stroke="black" stroke-width="0.5" stroke-linejoin="round"/>
<path d="M15.3052 0.756348L16.7661 1.54588C16.9608 1.65075 17.1845 1.68885 17.4029 1.65435L20.0726 1.23316" stroke="black" stroke-width="0.5" stroke-linejoin="round"/>
<path d="M13.1921 1.89819L15.1453 2.08905C15.2255 2.09702 15.3024 2.12501 15.3689 2.17045C15.4354 2.21589 15.4894 2.27732 15.526 2.3491C15.5626 2.42088 15.5805 2.5007 15.5782 2.58122C15.5758 2.66175 15.5533 2.74039 15.5126 2.80993L14.7125 4.17341C14.6624 4.2583 14.5875 4.32576 14.4979 4.36665C14.4082 4.40755 14.3082 4.4199 14.2113 4.40203L12.2337 4.03438C12.159 4.02028 12.0888 3.98868 12.0287 3.94218C11.9686 3.89567 11.9204 3.83558 11.8881 3.76684C11.8557 3.6981 11.8401 3.62267 11.8425 3.54673C11.845 3.47079 11.8654 3.39651 11.9021 3.32999L12.5371 2.18689" stroke="black" stroke-width="0.5" stroke-linejoin="round"/>
<path d="M11.5789 8.06516L10.2814 7.08203C10.2014 7.02146 10.1381 6.94161 10.0974 6.84994C10.0567 6.75827 10.0399 6.65777 10.0486 6.55785L10.0991 5.95678C10.1109 5.81794 10.1711 5.68769 10.2693 5.58879C10.3674 5.48989 10.4972 5.42865 10.636 5.41578L14.0804 5.09756C14.2769 5.07937 14.4746 5.11915 14.6488 5.212C14.823 5.30485 14.9662 5.4467 15.0608 5.62003L15.5959 6.60145C15.6765 6.74913 15.6981 6.92188 15.6563 7.08484C15.6145 7.24781 15.5124 7.38886 15.3707 7.47954L12.8971 9.06375" stroke="black" stroke-width="0.5" stroke-linejoin="round"/>
<path d="M9.39795 12.3956L7.30398 10.8268C7.18352 10.7366 7.09708 10.6084 7.0587 10.4629C7.02031 10.3174 7.03223 10.1632 7.09252 10.0253L7.84052 8.30893C7.87722 8.22479 7.9309 8.14913 7.99818 8.08667C8.06546 8.02422 8.1449 7.97632 8.23154 7.94597C8.31817 7.91562 8.41014 7.90348 8.50169 7.91029C8.59323 7.9171 8.68239 7.94273 8.76358 7.98556L11.3011 9.32433C11.4441 9.39978 11.567 9.50846 11.6593 9.64125C11.7517 9.77403 11.8108 9.92705 11.8318 10.0874L11.9316 10.8492C11.9469 10.9691 11.9229 11.0908 11.8633 11.196C11.8036 11.3012 11.7115 11.3842 11.6007 11.4327L10.5685 11.8834" stroke="black" stroke-width="0.5" stroke-linejoin="round"/>
<path d="M17.5907 10.9321L15.5754 11.5177C15.4369 11.5581 15.2914 11.5683 15.1487 11.5476L13.5453 11.3159C13.4473 11.3017 13.3577 11.2527 13.2929 11.1779C13.2281 11.103 13.1924 11.0074 13.1924 10.9084V10.2424C13.1924 10.0913 13.2362 9.94348 13.3183 9.81667C13.4005 9.68987 13.5176 9.58953 13.6555 9.52775L16.2987 8.3438C16.442 8.27964 16.5983 8.24967 16.7552 8.25626L19.488 8.37367C19.5874 8.37793 19.6837 8.40877 19.7671 8.46296C19.8505 8.51716 19.9177 8.59273 19.962 8.68178C20.0062 8.77084 20.0257 8.87013 20.0185 8.96929C20.0112 9.06846 19.9775 9.16387 19.9209 9.24558L19.0449 10.5099" stroke="black" stroke-width="0.5" stroke-linejoin="round"/>
<path d="M4.5874 10.4306L5.89596 9.65931C6.11391 9.53086 6.27572 9.32531 6.34943 9.0833L6.88184 7.33569" stroke="black" stroke-width="0.5" stroke-linejoin="round"/>
<path d="M9.6416 4.89112L10.2207 4.20457C10.3306 4.07453 10.4057 3.91875 10.439 3.75179L10.6896 2.50708" stroke="black" stroke-width="0.5" stroke-linejoin="round"/>
<path d="M7.21387 5.46289L9.01399 5.63213" stroke="black" stroke-width="0.5" stroke-linejoin="round"/>
<path d="M5.15505 15.6332C5.15505 15.6332 3.96492 15.4677 3.32574 14.8502C2.68657 14.2326 2.41504 14.3352 2.41504 14.3352" stroke="black" stroke-width="0.5" stroke-linejoin="round"/>
<path d="M1.79298 14.4402C1.79298 14.4402 -0.358999 15.0474 0.419888 17.0765C1.3148 19.4108 4.88244 19.857 8.11574 19.857H26.878C28.0263 19.857 30.5854 19.3916 31.6186 17.3168C32.5263 15.4951 30.8006 14.5449 30.0554 15.3004" stroke="black" stroke-width="0.5" stroke-linejoin="round"/>
<path d="M7.5459 15.9641H11.039" stroke="black" stroke-width="0.5" stroke-linejoin="round"/>
<path d="M13.0684 15.9641H19.1807" stroke="black" stroke-width="0.5" stroke-linejoin="round"/>
<path d="M22.0625 15.9641H25.5526" stroke="black" stroke-width="0.5" stroke-linejoin="round"/>
<path d="M27.8965 15.7417C27.8965 15.7417 28.6338 15.8303 29.1292 15.6545" stroke="black" stroke-width="0.5" stroke-linejoin="round"/>
<path d="M4.43 22.4235C5.10947 22.4235 5.66029 21.8727 5.66029 21.1932C5.66029 20.5137 5.10947 19.9629 4.43 19.9629C3.75053 19.9629 3.19971 20.5137 3.19971 21.1932C3.19971 21.8727 3.75053 22.4235 4.43 22.4235Z" stroke="black" stroke-width="0.5" stroke-linejoin="round"/>
<path d="M7.26474 19.8567C7.26474 19.9684 7.24274 20.079 7.19999 20.1822C7.15724 20.2854 7.09459 20.3792 7.0156 20.4582C6.93661 20.5372 6.84283 20.5998 6.73963 20.6426C6.63643 20.6853 6.52582 20.7073 6.41411 20.7073C6.3024 20.7073 6.19179 20.6853 6.08859 20.6426C5.98538 20.5998 5.89161 20.5372 5.81262 20.4582C5.73363 20.3792 5.67098 20.2854 5.62823 20.1822C5.58548 20.079 5.56348 19.9684 5.56348 19.8567" stroke="black" stroke-width="0.5" stroke-linejoin="round"/>
<path d="M26.098 22.549C26.7774 22.549 27.3283 21.9981 27.3283 21.3187C27.3283 20.6392 26.7774 20.0884 26.098 20.0884C25.4185 20.0884 24.8677 20.6392 24.8677 21.3187C24.8677 21.9981 25.4185 22.549 26.098 22.549Z" stroke="black" stroke-width="0.5" stroke-linejoin="round"/>
<path d="M24.9644 19.8567C24.9644 20.0823 24.8748 20.2987 24.7153 20.4582C24.5558 20.6177 24.3394 20.7073 24.1138 20.7073C23.8882 20.7073 23.6719 20.6177 23.5123 20.4582C23.3528 20.2987 23.2632 20.0823 23.2632 19.8567" stroke="black" stroke-width="0.5" stroke-linejoin="round"/>
</svg>
