<svg width="31" height="22" viewBox="0 0 31 22" fill="none" xmlns="http://www.w3.org/2000/svg">
<path d="M4.09867 21.1783C4.72972 21.1783 5.24129 20.6667 5.24129 20.0357C5.24129 19.4046 4.72972 18.8931 4.09867 18.8931C3.46762 18.8931 2.95605 19.4046 2.95605 20.0357C2.95605 20.6667 3.46762 21.1783 4.09867 21.1783Z" fill="#C28762"/>
<path d="M27.4139 14.5661C27.1608 14.9104 26.9163 15.0513 26.6714 15.0513C26.3391 15.0459 26.0074 15.0209 25.678 14.9764C25.6142 14.8568 25.5444 14.7395 25.4807 14.6136C24.9763 13.6195 24.8131 13.293 24.7834 12.2247C24.7557 11.2323 24.4936 11.1223 24.4566 11.1114C24.5889 10.8223 24.6323 10.4891 24.5985 10.1174L25.1319 9.62131L25.6209 9.64267C26.6373 9.64267 26.996 9.25404 27.2194 8.80898C27.4554 8.7771 27.7503 8.64128 27.7503 8.64128C28.5737 8.26286 28.9745 7.21652 28.9745 6.30408C28.9745 5.39165 28.0321 3.83362 25.5839 3.83362C24.2673 3.83362 23.2566 4.26497 22.6018 4.86784C22.583 4.70653 22.5639 4.6807 22.5639 4.6807C19.8486 -1.03971 13.3107 0.849238 10.3216 2.3435C7.02378 3.99239 4.05279 7.80313 3.88159 11.1108C3.87439 11.458 3.88919 11.8054 3.9259 12.1507C3.9259 12.1507 4.05343 12.3028 4.68754 12.4348C4.49912 13.5047 4.47617 14.1051 4.55619 14.8759C4.55619 14.8759 3.45088 14.7226 2.85757 14.1487C2.26426 13.5749 2.01177 13.6705 2.01177 13.6705C1.81451 13.6683 1.61847 13.7018 1.43313 13.7694C1.43313 13.7694 -0.565813 14.3336 0.157886 16.2178C0.772233 17.8198 2.74471 18.4638 4.9445 18.6908H4.93589C4.93589 19.2822 5.28945 19.5902 5.7259 19.5902C6.15215 19.5902 6.49838 19.2134 6.51432 18.7893C6.77893 18.7967 7.04323 18.7999 7.30497 18.7999H21.3737C21.3737 19.0094 21.457 19.2103 21.6051 19.3585C21.7533 19.5066 21.9542 19.5899 22.1637 19.5899C22.3733 19.5899 22.5742 19.5066 22.7224 19.3585C22.8705 19.2103 22.9538 19.0094 22.9538 18.7999H24.7305C25.7969 18.7999 28.1736 18.3679 29.1333 16.4407C29.9765 14.7462 28.1057 13.8647 27.4139 14.5661ZM10.0263 14.9011L6.84365 14.8858C6.92367 14.2061 6.96257 13.616 6.94216 13.4257C8.27383 13.7971 9.19296 14.0375 10.0289 14.1908C10.0282 14.2243 10.0104 14.537 10.0263 14.9011ZM18.1719 14.4067C18.0162 14.5737 17.8724 14.7516 17.7419 14.9391L11.9137 14.9113C11.9115 14.8389 11.9029 14.7667 11.8879 14.6958C11.8879 14.6958 11.8601 14.5508 11.8263 14.4124C12.5341 14.4567 13.3391 14.4672 14.4087 14.4672C15.9221 14.4672 18.646 13.6645 18.646 13.6645C18.5704 13.8819 18.426 14.1334 18.1719 14.4067ZM20.4702 14.9521C20.9484 14.4102 21.4098 13.7582 21.5558 13.0393H22.4418H22.5916C22.6235 13.2475 22.6847 13.6163 22.7829 14.0885C22.8581 14.4542 23.072 14.7306 23.293 14.9678L20.4702 14.9521Z" fill="#C28762"/>
<path d="M24.2227 19.0093C23.9967 19.0093 23.7758 19.0763 23.5879 19.2018C23.4 19.3274 23.2535 19.5058 23.1671 19.7146C23.0806 19.9234 23.0579 20.1532 23.102 20.3748C23.1461 20.5965 23.2549 20.8 23.4147 20.9598C23.5745 21.1196 23.7781 21.2285 23.9998 21.2726C24.2214 21.3166 24.4512 21.294 24.66 21.2075C24.8687 21.1211 25.0472 20.9746 25.1727 20.7867C25.2983 20.5988 25.3653 20.3779 25.3653 20.1519C25.3653 19.8489 25.2449 19.5582 25.0306 19.3439C24.8164 19.1297 24.5257 19.0093 24.2227 19.0093Z" fill="#C28762"/>
<path d="M4.55371 11.5978C4.55371 11.5978 5.31886 12.5092 12.4181 11.8082C15.6958 11.4846 18.4908 10.465 20.3421 9.06863C21.8779 7.91039 22.4881 6.90869 22.4881 6.90869" stroke="black" stroke-width="0.5" stroke-linejoin="round"/>
<path d="M23.191 4.12659C20.4753 -1.59351 13.9378 0.295123 10.9486 1.78971C7.65119 3.43955 4.68052 7.24934 4.51123 10.5576" stroke="black" stroke-width="0.5" stroke-linejoin="round"/>
<path d="M23.1912 7.97714C23.1912 7.97714 22.3677 7.3985 22.3677 6.08532C22.3677 4.77214 23.7625 3.27979 26.2106 3.27979C28.6588 3.27979 29.6018 4.83877 29.6018 5.75152C29.6018 6.66428 29.2011 7.70998 28.3776 8.0884" stroke="black" stroke-width="0.5" stroke-miterlimit="10"/>
<path d="M27.9246 8.08813C27.7014 8.59823 27.3906 9.08984 26.248 9.08984C25.0757 9.08984 24.8975 8.80801 24.4971 8.28867" stroke="black" stroke-width="0.5" stroke-miterlimit="10"/>
<path d="M23.8472 7.32059C24.1813 7.57564 24.6652 7.51507 24.9713 7.14238C25.1014 6.98297 25.2216 7.12006 25.2939 7.18701C25.3433 7.23228 25.7374 7.59955 25.9845 7.82974C26.1131 7.9495 26.2824 8.01603 26.4582 8.01592C26.5605 8.01594 26.6615 7.99342 26.7541 7.94994C26.8467 7.90646 26.9285 7.8431 26.9938 7.76438C27.1988 7.51634 27.4842 7.17171 27.5039 7.1478C27.5339 7.11082 27.5833 7.0716 27.6656 7.14238C27.7771 7.23802 27.9611 7.38531 28.2503 7.36873C28.4038 7.36053 28.5528 7.31416 28.6839 7.23383C28.815 7.15351 28.924 7.04175 29.0011 6.90869" stroke="black" stroke-width="0.5" stroke-miterlimit="10"/>
<path d="M25.759 9.06885L25.1704 9.61688C25.0578 9.72166 24.9098 9.77997 24.756 9.78011H24.3922C24.2411 9.78009 24.0953 9.72396 23.9832 9.62262L23.7642 9.42464" stroke="black" stroke-width="0.5" stroke-miterlimit="10"/>
<path d="M25.2246 9.56494C25.2756 10.1267 25.1516 10.6017 24.8076 10.9677" stroke="black" stroke-width="0.5" stroke-miterlimit="10"/>
<path d="M19.2716 13.111C19.2716 13.111 16.548 13.9138 15.0346 13.9138C11.6596 13.9138 10.9197 13.8086 7.56836 12.8735" stroke="black" stroke-width="0.5" stroke-linejoin="round"/>
<path d="M7.56441 12.703C7.59629 13.0129 7.47929 14.5521 7.27748 15.6447C7.59853 15.756 7.56441 16.1344 7.56441 16.1344C7.2794 16.1513 6.90256 16.1564 6.61531 16.1577C6.30632 16.1601 6.00585 16.0564 5.76411 15.8639C5.52237 15.6715 5.35401 15.4019 5.28715 15.1002C5.28492 15.0903 5.28301 15.0801 5.28078 15.0683C5.10352 13.8597 5.07068 13.2638 5.31776 11.8674" stroke="black" stroke-width="0.5" stroke-linejoin="round"/>
<path d="M10.6572 13.6375C10.6572 13.6375 10.5781 14.8773 10.8599 15.367C11.1418 15.8567 11.4035 15.9307 11.8782 15.9307C12.2178 15.9307 12.8155 15.8286 12.8155 15.8286C12.8155 15.6319 12.7075 15.5226 12.4849 15.5006C12.4186 15.1378 12.6109 14.576 12.5146 14.1428" stroke="black" stroke-width="0.5" stroke-linejoin="round"/>
<path d="M19.2717 12.2654C19.2717 12.2654 19.6428 12.948 18.797 13.8531C17.9512 14.7582 17.4022 16.079 17.9585 16.6586C18.5148 17.2382 20.3403 16.8961 20.3403 16.8961C20.3403 16.8961 20.3011 16.4954 20.061 16.4657" stroke="black" stroke-width="0.5" stroke-linejoin="round"/>
<path d="M20.062 10.7964C20.062 10.7964 22.3294 10.3067 22.2258 12.1469C22.1222 13.987 19.792 15.4408 19.792 15.8862" stroke="black" stroke-width="0.5" stroke-linejoin="round"/>
<path d="M22.1819 11.7163C22.1819 11.7163 22.5521 11.4932 23.7616 11.4932C24.9712 11.4932 24.6046 12.1598 24.4949 12.2264C24.1981 12.412 24.0903 12.4815 23.0666 12.4815H22.1807" stroke="black" stroke-width="0.5" stroke-linejoin="round"/>
<path d="M26.544 15.7823C26.8889 15.76 26.9409 16.2287 26.9409 16.2287C26.9409 16.2287 26.4251 16.3782 25.4903 16.3632C24.5556 16.3482 24.3034 16.0061 24.4963 15.4125C24.6892 14.8189 23.5988 14.4647 23.4079 13.5344C23.2539 12.7862 23.1904 12.4858 23.1904 12.4858" stroke="black" stroke-width="0.5" stroke-linejoin="round"/>
<path d="M25.0786 10.5579C25.0786 10.5579 25.3802 10.6038 25.4099 11.6737C25.4395 12.7436 25.6011 13.0685 26.1074 14.0629C26.2904 14.4238 26.5142 14.7126 26.5649 15.1915" stroke="black" stroke-width="0.5" stroke-linejoin="round"/>
<path d="M15.393 13.9014C14.5446 13.3735 14.3543 12.622 14.6581 11.4182" stroke="black" stroke-width="0.5" stroke-linejoin="round"/>
<path d="M11.4321 13.7616C11.1216 13.4517 10.908 12.9215 10.9944 11.9348" stroke="black" stroke-width="0.5" stroke-linejoin="round"/>
<path d="M8.49847 13.1166C8.30368 12.9964 8.1889 12.2676 8.23864 12.0735" stroke="black" stroke-width="0.5" stroke-linejoin="round"/>
<path d="M24.5442 6.13055C24.8717 6.13055 25.1371 5.86506 25.1371 5.53757C25.1371 5.21007 24.8717 4.94458 24.5442 4.94458C24.2167 4.94458 23.9512 5.21007 23.9512 5.53757C23.9512 5.86506 24.2167 6.13055 24.5442 6.13055Z" fill="black"/>
<path d="M24.5866 5.41073C24.6762 5.41073 24.7489 5.33808 24.7489 5.24846C24.7489 5.15883 24.6762 5.08618 24.5866 5.08618C24.497 5.08618 24.4243 5.15883 24.4243 5.24846C24.4243 5.33808 24.497 5.41073 24.5866 5.41073Z" fill="white"/>
<path d="M24.8613 5.43866C24.8963 5.43866 24.9247 5.41025 24.9247 5.37521C24.9247 5.34017 24.8963 5.31177 24.8613 5.31177C24.8263 5.31177 24.7979 5.34017 24.7979 5.37521C24.7979 5.41025 24.8263 5.43866 24.8613 5.43866Z" fill="white"/>
<path d="M27.9953 6.13055C28.3228 6.13055 28.5883 5.86506 28.5883 5.53757C28.5883 5.21007 28.3228 4.94458 27.9953 4.94458C27.6678 4.94458 27.4023 5.21007 27.4023 5.53757C27.4023 5.86506 27.6678 6.13055 27.9953 6.13055Z" fill="black"/>
<path d="M28.0378 5.41073C28.1274 5.41073 28.2 5.33808 28.2 5.24846C28.2 5.15883 28.1274 5.08618 28.0378 5.08618C27.9481 5.08618 27.8755 5.15883 27.8755 5.24846C27.8755 5.33808 27.9481 5.41073 28.0378 5.41073Z" fill="white"/>
<path d="M28.313 5.43866C28.348 5.43866 28.3764 5.41025 28.3764 5.37521C28.3764 5.34017 28.348 5.31177 28.313 5.31177C28.2779 5.31177 28.2495 5.34017 28.2495 5.37521C28.2495 5.41025 28.2779 5.43866 28.313 5.43866Z" fill="white"/>
<path d="M25.8335 6.61694L26.0213 6.80472" stroke="black" stroke-width="0.5" stroke-miterlimit="10" stroke-linecap="round"/>
<path d="M26.9271 6.61694L26.7891 6.81237" stroke="black" stroke-width="0.5" stroke-miterlimit="10" stroke-linecap="round"/>
<path d="M18.0821 6.46294L19.4797 6.56624C19.6781 6.58093 19.8761 6.53217 20.0449 6.42702C20.2138 6.32186 20.3449 6.16575 20.4193 5.98122L21.1417 4.19046C21.2084 4.02507 21.2266 3.8441 21.1942 3.66874C21.1618 3.49338 21.0801 3.33087 20.9587 3.20024L20.0979 2.27377C20.0026 2.1713 19.8855 2.09141 19.7554 2.03995C19.6252 1.98848 19.4852 1.96675 19.3455 1.97632L17.0016 2.13892C16.8691 2.14808 16.7401 2.18527 16.623 2.24804C16.5059 2.3108 16.4035 2.3977 16.3226 2.503L15.3279 3.79578C15.184 3.9829 15.1159 4.21734 15.1371 4.45242C15.1583 4.68751 15.2673 4.90597 15.4423 5.06432L16.8916 6.37463" stroke="black" stroke-width="0.5" stroke-linejoin="round"/>
<path d="M14.6104 0.506348L15.9672 1.23961C16.148 1.33701 16.3558 1.3724 16.5586 1.34036L19.038 0.949176" stroke="black" stroke-width="0.5" stroke-linejoin="round"/>
<path d="M12.6477 1.56689L14.4617 1.74415C14.5361 1.75155 14.6075 1.77755 14.6693 1.81975C14.7311 1.86195 14.7813 1.91901 14.8152 1.98567C14.8492 2.05233 14.8659 2.12646 14.8637 2.20125C14.8615 2.27603 14.8406 2.34907 14.8028 2.41366L14.0597 3.67997C14.0132 3.75881 13.9436 3.82146 13.8604 3.85944C13.7771 3.89742 13.6842 3.90889 13.5942 3.8923L11.7575 3.55085C11.6882 3.53776 11.623 3.50841 11.5672 3.46522C11.5114 3.42202 11.4666 3.36622 11.4366 3.30237C11.4065 3.23853 11.392 3.16847 11.3943 3.09795C11.3965 3.02742 11.4155 2.95843 11.4496 2.89665L12.0394 1.83501" stroke="black" stroke-width="0.5" stroke-linejoin="round"/>
<path d="M11.1494 7.29429L9.9443 6.38122C9.87005 6.32497 9.81127 6.2508 9.77347 6.16567C9.73567 6.08053 9.72008 5.9872 9.72814 5.89439L9.77501 5.33616C9.78597 5.20722 9.84193 5.08624 9.93308 4.99439C10.0242 4.90254 10.1448 4.84566 10.2736 4.83371L13.4726 4.53817C13.6551 4.52128 13.8387 4.55822 14.0005 4.64446C14.1623 4.73069 14.2953 4.86243 14.3831 5.0234L14.8801 5.93488C14.955 6.07204 14.975 6.23248 14.9362 6.38383C14.8974 6.53518 14.8026 6.66618 14.671 6.7504L12.3736 8.22171" stroke="black" stroke-width="0.5" stroke-linejoin="round"/>
<path d="M9.12371 11.3161L7.17897 9.8591C7.06709 9.77533 6.98682 9.65621 6.95117 9.52108C6.91552 9.38594 6.92659 9.24273 6.98258 9.11467L7.67727 7.52062C7.71136 7.44248 7.76121 7.37221 7.8237 7.31421C7.88618 7.25621 7.95996 7.21172 8.04043 7.18353C8.12089 7.15535 8.2063 7.14406 8.29132 7.15039C8.37634 7.15672 8.45915 7.18052 8.53455 7.2203L10.8912 8.46366C11.0241 8.53373 11.1382 8.63467 11.2239 8.75799C11.3097 8.88132 11.3646 9.02343 11.3841 9.17238L11.4768 9.87982C11.491 9.99123 11.4687 10.1042 11.4133 10.2019C11.3579 10.2996 11.2724 10.3768 11.1695 10.4218L10.2109 10.8404" stroke="black" stroke-width="0.5" stroke-linejoin="round"/>
<path d="M16.7329 9.95715L14.8611 10.501C14.7325 10.5386 14.5974 10.548 14.4648 10.5288L12.9757 10.3136C12.8847 10.3004 12.8015 10.2549 12.7413 10.1854C12.6811 10.1159 12.648 10.0271 12.6479 9.93515V9.31666C12.648 9.17633 12.6886 9.039 12.7649 8.92123C12.8412 8.80346 12.95 8.71027 13.078 8.6529L15.5329 7.55332C15.666 7.49373 15.8112 7.4659 15.9569 7.47202L18.4949 7.58106C18.5872 7.58502 18.6767 7.61366 18.7541 7.66399C18.8315 7.71432 18.894 7.7845 18.9351 7.86722C18.9762 7.94993 18.9943 8.04214 18.9876 8.13424C18.9809 8.22634 18.9496 8.31495 18.8969 8.39083L18.0833 9.56501" stroke="black" stroke-width="0.5" stroke-linejoin="round"/>
<path d="M4.65625 9.49134L5.87155 8.77497C6.07397 8.65567 6.22425 8.46477 6.2927 8.24001L6.78718 6.61694" stroke="black" stroke-width="0.5" stroke-linejoin="round"/>
<path d="M9.3501 4.34646L9.88793 3.70884C9.98998 3.58807 10.0597 3.44339 10.0907 3.28833L10.3234 2.13232" stroke="black" stroke-width="0.5" stroke-linejoin="round"/>
<path d="M7.0957 4.87744L8.76754 5.03462" stroke="black" stroke-width="0.5" stroke-linejoin="round"/>
<path d="M5.18341 14.3232C5.18341 14.3232 4.0781 14.1695 3.48448 13.596C2.89085 13.0224 2.63867 13.1177 2.63867 13.1177" stroke="black" stroke-width="0.5" stroke-linejoin="round"/>
<path d="M2.06095 13.2151C2.06095 13.2151 0.0623307 13.7791 0.785711 15.6636C1.61685 17.8315 4.93024 18.2459 7.93311 18.2459H25.3583C26.4247 18.2459 28.8015 17.8136 29.7611 15.8867C30.604 14.1948 29.0014 13.3123 28.3092 14.014" stroke="black" stroke-width="0.5" stroke-linejoin="round"/>
<path d="M7.40381 14.6304H10.648" stroke="black" stroke-width="0.5" stroke-linejoin="round"/>
<path d="M12.5327 14.6304H18.2094" stroke="black" stroke-width="0.5" stroke-linejoin="round"/>
<path d="M20.8862 14.6304H24.1276" stroke="black" stroke-width="0.5" stroke-linejoin="round"/>
<path d="M26.3042 14.4238C26.3042 14.4238 26.989 14.506 27.449 14.3428" stroke="black" stroke-width="0.5" stroke-linejoin="round"/>
<path d="M4.5098 20.6295C5.14085 20.6295 5.65242 20.1179 5.65242 19.4869C5.65242 18.8558 5.14085 18.3442 4.5098 18.3442C3.87875 18.3442 3.36719 18.8558 3.36719 19.4869C3.36719 20.1179 3.87875 20.6295 4.5098 20.6295Z" stroke="black" stroke-width="0.5" stroke-linejoin="round"/>
<path d="M7.14301 18.2456C7.14301 18.3494 7.12258 18.4521 7.08288 18.5479C7.04317 18.6438 6.98498 18.7309 6.91162 18.8042C6.83826 18.8776 6.75117 18.9358 6.65532 18.9755C6.55947 19.0152 6.45675 19.0356 6.353 19.0356C6.24925 19.0356 6.14652 19.0152 6.05068 18.9755C5.95483 18.9358 5.86774 18.8776 5.79438 18.8042C5.72102 18.7309 5.66283 18.6438 5.62313 18.5479C5.58342 18.4521 5.56299 18.3494 5.56299 18.2456" stroke="black" stroke-width="0.5" stroke-linejoin="round"/>
<path d="M24.6338 20.7459C25.2649 20.7459 25.7764 20.2344 25.7764 19.6033C25.7764 18.9723 25.2649 18.4607 24.6338 18.4607C24.0028 18.4607 23.4912 18.9723 23.4912 19.6033C23.4912 20.2344 24.0028 20.7459 24.6338 20.7459Z" stroke="black" stroke-width="0.5" stroke-linejoin="round"/>
<path d="M23.581 18.2456C23.581 18.4551 23.4978 18.6561 23.3496 18.8042C23.2015 18.9524 23.0005 19.0356 22.791 19.0356C22.5815 19.0356 22.3805 18.9524 22.2324 18.8042C22.0842 18.6561 22.001 18.4551 22.001 18.2456" stroke="black" stroke-width="0.5" stroke-linejoin="round"/>
</svg>
