<svg width="32" height="34" viewBox="0 0 32 34" fill="none" xmlns="http://www.w3.org/2000/svg">
<path fill-rule="evenodd" clip-rule="evenodd" d="M16.0002 11.0769C12.6015 11.0769 9.84631 13.6943 9.84631 16.9231C9.84631 20.1519 12.6015 22.7692 16.0002 22.7692C19.3989 22.7692 22.154 20.1519 22.154 16.9231C22.154 13.6943 19.3989 11.0769 16.0002 11.0769ZM12.3079 16.9231C12.3079 14.9859 13.961 13.4154 16.0002 13.4154C18.0393 13.4154 19.6925 14.9859 19.6925 16.9231C19.6925 18.8602 18.0393 20.4308 16.0002 20.4308C13.961 20.4308 12.3079 18.8602 12.3079 16.9231Z" fill="#095F3E"/>
<path fill-rule="evenodd" clip-rule="evenodd" d="M15.9602 6.68703e-07C15.2616 -1.50737e-05 14.6783 -1.5148e-05 14.1994 0.0326976C13.701 0.0667641 13.2302 0.140187 12.7737 0.329536C11.7144 0.768922 10.8729 1.61169 10.4341 2.67246C10.2057 3.2247 10.1438 3.8067 10.1202 4.43929C10.1012 4.94782 9.84496 5.37211 9.46675 5.59077C9.08856 5.80943 8.59352 5.81954 8.14426 5.58175C7.58539 5.28594 7.05115 5.04857 6.45936 4.97055C5.32266 4.82069 4.17305 5.12917 3.26346 5.82814C2.87147 6.12935 2.57254 6.50098 2.29386 6.91627C2.02613 7.31519 1.73452 7.82106 1.38517 8.42702L1.34548 8.49587C0.996125 9.10182 0.70449 9.60765 0.493357 10.0393C0.273579 10.4886 0.101651 10.9337 0.0371522 11.4243C-0.112501 12.5626 0.195545 13.7139 0.89349 14.6248C1.25681 15.0988 1.72911 15.4436 2.26427 15.7803C2.69465 16.0511 2.93348 16.4856 2.93345 16.9231C2.93344 17.3604 2.6946 17.7949 2.26427 18.0657C1.72905 18.4024 1.2567 18.7472 0.893348 19.2213C0.195388 20.1322 -0.112642 21.2834 0.036995 22.4217C0.101493 22.9123 0.273421 23.3575 0.4932 23.8068C0.704333 24.2384 0.995968 24.7442 1.34531 25.3501L1.38502 25.4191C1.73436 26.025 2.02598 26.5308 2.2937 26.9297C2.57238 27.345 2.87131 27.7167 3.2633 28.0179C4.1729 28.7168 5.3225 29.0254 6.4592 28.8755C7.05096 28.7974 7.58517 28.5602 8.14401 28.2644C8.59333 28.0265 9.08844 28.0366 9.46667 28.2554C9.84492 28.4741 10.1012 28.8983 10.1202 29.407C10.1438 30.0395 10.2057 30.6215 10.4341 31.1737C10.8729 32.2345 11.7144 33.0773 12.7737 33.5167C13.2302 33.7061 13.701 33.7794 14.1994 33.8134C14.6783 33.8462 15.2616 33.8462 15.9602 33.8462H16.0396C16.7383 33.8462 17.3216 33.8462 17.8005 33.8134C18.299 33.7794 18.7698 33.7061 19.2263 33.5167C20.2855 33.0773 21.1272 32.2345 21.5659 31.1737C21.7943 30.6215 21.8561 30.0395 21.8797 29.4068C21.8987 28.8983 22.1549 28.4741 22.5331 28.2552C22.9114 28.0366 23.4065 28.0265 23.8558 28.2642C24.4147 28.56 24.9488 28.7974 25.5407 28.8753C26.6774 29.0252 27.827 28.7168 28.7365 28.0179C29.1286 27.7165 29.4274 27.345 29.7061 26.9297C29.9738 26.5308 30.2654 26.025 30.6147 25.4191L30.6545 25.3501C31.0038 24.7442 31.2955 24.2383 31.5067 23.8066C31.7264 23.3573 31.8982 22.9123 31.9628 22.4217C32.1125 21.2833 31.8044 20.132 31.1064 19.2212C30.7431 18.747 30.2708 18.4024 29.7357 18.0657C29.3053 17.7949 29.0665 17.3604 29.0665 16.9229C29.0665 16.4856 29.3053 16.0513 29.7355 15.7805C30.2709 15.4438 30.7433 15.0992 31.1066 14.6248C31.8045 13.714 32.1127 12.5627 31.963 11.4244C31.8984 10.9338 31.7266 10.4888 31.5068 10.0394C31.2957 9.60779 31.0041 9.10199 30.6546 8.49609L30.615 8.42719C30.2656 7.82122 29.974 7.3153 29.7063 6.91638C29.4276 6.50109 29.1287 6.12946 28.7367 5.82823C27.8271 5.12928 26.6775 4.8208 25.5407 4.97066C24.949 5.04868 24.4148 5.28602 23.856 5.58181C23.4067 5.81963 22.9115 5.80951 22.5333 5.59082C22.1551 5.37214 21.8987 4.94779 21.8797 4.43922C21.8561 3.80664 21.7943 3.22467 21.5659 2.67246C21.1272 1.61169 20.2855 0.768922 19.2263 0.329536C18.7698 0.140187 18.299 0.0667641 17.8005 0.0326976C17.3216 -1.5148e-05 16.7383 -1.50737e-05 16.0396 6.68703e-07H15.9602ZM13.676 2.51115C13.7973 2.46084 13.9816 2.41444 14.3599 2.38858C14.749 2.36201 15.2514 2.36136 16 2.36136C16.7486 2.36136 17.251 2.36201 17.6399 2.38858C18.0184 2.41444 18.2027 2.46084 18.3239 2.51115C18.8054 2.71087 19.188 3.09395 19.3873 3.57612C19.4503 3.72821 19.5024 3.96531 19.5234 4.52747C19.57 5.77486 20.2129 6.97591 21.3543 7.63582C22.4956 8.29574 23.8558 8.2528 24.9578 7.66951C25.4544 7.40664 25.6856 7.33331 25.8485 7.31183C26.3652 7.24371 26.8877 7.38393 27.3011 7.70162C27.4054 7.78166 27.5376 7.91825 27.7491 8.23353C27.9667 8.55762 28.2184 8.993 28.5927 9.64222C28.967 10.2915 29.2177 10.7275 29.3892 11.0781C29.556 11.4193 29.608 11.6023 29.6252 11.7326C29.6932 12.25 29.5532 12.7733 29.2359 13.1874C29.1358 13.318 28.9569 13.4818 28.4811 13.7811C27.4258 14.4452 26.7087 15.6032 26.7085 16.9229C26.7085 18.2428 27.4256 19.4009 28.4811 20.0651C28.9567 20.3644 29.1356 20.5281 29.2358 20.6588C29.553 21.0728 29.6931 21.5961 29.625 22.1135C29.6079 22.2439 29.5558 22.4268 29.389 22.7679C29.2175 23.1185 28.9668 23.5546 28.5925 24.2038C28.2182 24.853 27.9666 25.2884 27.749 25.6126C27.5374 25.9277 27.4052 26.0644 27.301 26.1443C26.8875 26.4622 26.365 26.6023 25.8483 26.5343C25.6854 26.5127 25.4542 26.4394 24.9576 26.1766C23.8557 25.5932 22.4954 25.5504 21.354 26.2103C20.2129 26.8702 19.57 28.0712 19.5234 29.3186C19.5024 29.8808 19.4503 30.1179 19.3873 30.2701C19.188 30.7521 18.8054 31.1353 18.3239 31.3351C18.2027 31.3853 18.0184 31.4317 17.6399 31.4576C17.251 31.4842 16.7486 31.4848 16 31.4848C15.2514 31.4848 14.749 31.4842 14.3599 31.4576C13.9816 31.4317 13.7973 31.3853 13.676 31.3351C13.1946 31.1353 12.812 30.7521 12.6126 30.2701C12.5497 30.1179 12.4975 29.8808 12.4765 29.3186C12.43 28.0714 11.787 26.8702 10.6457 26.2103C9.50431 25.5504 8.1442 25.5934 7.04217 26.1766C6.54554 26.4395 6.31442 26.5129 6.15144 26.5343C5.63475 26.6025 5.1122 26.4622 4.69876 26.1445C4.5946 26.0645 4.46235 25.9279 4.25077 25.6126C4.03329 25.2886 3.78154 24.8532 3.40725 24.2039C3.03294 23.5547 2.78231 23.1187 2.61079 22.7681C2.44394 22.4269 2.39193 22.2439 2.3748 22.1135C2.30678 21.5961 2.4468 21.0728 2.76405 20.6588C2.86413 20.5282 3.0431 20.3644 3.51876 20.0651C4.57416 19.4011 5.29136 18.2429 5.29143 16.9232C5.2915 15.6032 4.57427 14.4451 3.51878 13.7809C3.04322 13.4816 2.86427 13.3179 2.7642 13.1873C2.44695 12.7732 2.30694 12.2499 2.37496 11.7325C2.39209 11.6022 2.44409 11.4191 2.61094 11.078C2.78246 10.7274 3.0331 10.2913 3.40739 9.64211C3.78169 8.99289 4.03343 8.55751 4.25093 8.23342C4.4625 7.91816 4.59475 7.78155 4.6989 7.70153C5.11236 7.38382 5.6349 7.2436 6.15158 7.31172C6.31458 7.3332 6.54571 7.40653 7.04241 7.66945C8.14437 8.25272 9.50442 8.29565 10.6457 7.63577C11.787 6.9759 12.43 5.77489 12.4765 4.52755C12.4975 3.96534 12.5497 3.72823 12.6126 3.57612C12.812 3.09395 13.1946 2.71087 13.676 2.51115Z" fill="#095F3E"/>
</svg>
